<?xml version="1.0" encoding="UTF-8" standalone="no"?>
<svg
   xmlns:dc="http://purl.org/dc/elements/1.1/"
   xmlns:cc="http://creativecommons.org/ns#"
   xmlns:rdf="http://www.w3.org/1999/02/22-rdf-syntax-ns#"
   xmlns:svg="http://www.w3.org/2000/svg"
   xmlns="http://www.w3.org/2000/svg"
   viewBox="0 0 141.82668 161.2"
   height="161.2"
   width="141.82668"
   xml:space="preserve"
   id="svg2"
   version="1.1"><metadata
     id="metadata8"><rdf:RDF><cc:Work
         rdf:about=""><dc:format>image/svg+xml</dc:format><dc:type
           rdf:resource="http://purl.org/dc/dcmitype/StillImage" /></cc:Work></rdf:RDF></metadata><defs
     id="defs6" /><g
     transform="matrix(1.3333333,0,0,-1.3333333,0,161.2)"
     id="g10"><g
       transform="scale(0.1)"
       id="g12"><path
         id="path14"
         style="fill:none;stroke:#231f20;stroke-width:5;stroke-linecap:butt;stroke-linejoin:miter;stroke-miterlimit:10;stroke-dasharray:none;stroke-opacity:1"
         d="M 194.555,667.418 401.891,242.109" /><path
         id="path16"
         style="fill:#231f20;fill-opacity:1;fill-rule:evenodd;stroke:none"
         d="m 406.461,266.77 16.98,-72.481 -46.628,58.027" /><path
         id="path18"
         style="fill:none;stroke:#231f20;stroke-width:5;stroke-linecap:butt;stroke-linejoin:miter;stroke-miterlimit:10;stroke-dasharray:none;stroke-opacity:1"
         d="M 876.383,664.918 669.047,239.609" /><path
         id="path20"
         style="fill:#231f20;fill-opacity:1;fill-rule:evenodd;stroke:none"
         d="m 664.477,264.27 -16.981,-72.481 46.629,58.027" /><path
         id="path22"
         style="fill:none;stroke:#231f20;stroke-width:5;stroke-linecap:butt;stroke-linejoin:miter;stroke-miterlimit:10;stroke-dasharray:none;stroke-opacity:1"
         d="M 537.953,420.852 V 265.41" /><path
         id="path24"
         style="fill:#231f20;fill-opacity:1;fill-rule:evenodd;stroke:none"
         d="M 552.867,285.566 536.371,212.98 519.879,285.566" /><path
         id="path26"
         style="fill:#ffffff;fill-opacity:1;fill-rule:evenodd;stroke:none"
         d="m 365.215,674.715 c 0,60.066 -81.25,108.812 -181.36,108.812 C 83.75,783.527 2.5,734.781 2.5,674.715 c 0,-60.067 81.25,-108.817 181.355,-108.817 100.11,0 181.36,48.75 181.36,108.817 v 0" /><path
         id="path28"
         style="fill:none;stroke:#231f20;stroke-width:5;stroke-linecap:butt;stroke-linejoin:miter;stroke-miterlimit:10;stroke-dasharray:none;stroke-opacity:1"
         d="m 365.215,674.715 c 0,60.066 -81.25,108.812 -181.36,108.812 C 83.75,783.527 2.5,734.781 2.5,674.715 c 0,-60.067 81.25,-108.817 181.355,-108.817 100.11,0 181.36,48.75 181.36,108.817 z" /><g
         transform="scale(10)"
         id="g30"><text
           id="text34"
           style="font-style:italic;font-variant:normal;font-size:10.15600014px;font-family:'Times New Roman';-inkscape-font-specification:Times-Italic;writing-mode:lr-tb;fill:#231f20;fill-opacity:1;fill-rule:nonzero;stroke:none"
           transform="matrix(1,0,0,-1,4.37188,65.832)"><tspan
             id="tspan32"
             y="0"
             x="0">H</tspan></text>
<text
           id="text38"
           style="font-style:italic;font-variant:normal;font-size:7.10921001px;font-family:'Times New Roman';-inkscape-font-specification:Times-Italic;writing-mode:lr-tb;fill:#231f20;fill-opacity:1;fill-rule:nonzero;stroke:none"
           transform="matrix(1,0,0,-1,11.98946,62.94919)"><tspan
             id="tspan36"
             y="0"
             x="0 5.133791 8.6883965 10.663496 14.218102 17.373373">mother</tspan></text>
</g><path
         id="path40"
         style="fill:#ffffff;fill-opacity:1;fill-rule:evenodd;stroke:none"
         d="m 1061.21,674.715 c 0,60.066 -81.245,108.812 -181.362,108.812 -100.106,0 -181.348,-48.746 -181.348,-108.812 0,-60.067 81.242,-108.817 181.348,-108.817 100.117,0 181.362,48.75 181.362,108.817 v 0" /><path
         id="path42"
         style="fill:none;stroke:#231f20;stroke-width:5;stroke-linecap:butt;stroke-linejoin:miter;stroke-miterlimit:10;stroke-dasharray:none;stroke-opacity:1"
         d="m 1061.21,674.715 c 0,60.066 -81.245,108.812 -181.362,108.812 -100.106,0 -181.348,-48.746 -181.348,-108.812 0,-60.067 81.242,-108.817 181.348,-108.817 100.117,0 181.362,48.75 181.362,108.817 z" /><g
         transform="scale(10)"
         id="g44"><text
           id="text48"
           style="font-style:italic;font-variant:normal;font-size:10.15600014px;font-family:'Times New Roman';-inkscape-font-specification:Times-Italic;writing-mode:lr-tb;fill:#231f20;fill-opacity:1;fill-rule:nonzero;stroke:none"
           transform="matrix(1,0,0,-1,75.7859,66.082)"><tspan
             id="tspan46"
             y="0"
             x="0">H</tspan></text>
<text
           id="text52"
           style="font-style:italic;font-variant:normal;font-size:7.10921001px;font-family:'Times New Roman';-inkscape-font-specification:Times-Italic;writing-mode:lr-tb;fill:#231f20;fill-opacity:1;fill-rule:nonzero;stroke:none"
           transform="matrix(1,0,0,-1,83.39528,63.19919)"><tspan
             id="tspan50"
             y="0"
             x="0 1.9755913 5.5301962 7.5057878 11.060392 14.215668">father</tspan></text>
</g><path
         id="path54"
         style="fill:#ffffff;fill-opacity:1;fill-rule:evenodd;stroke:none"
         d="m 713.207,111.32 c 0,60.071 -81.25,108.817 -181.352,108.817 -100.109,0 -181.351,-48.746 -181.351,-108.817 0,-60.07 81.242,-108.82 181.351,-108.82 100.102,0 181.352,48.75 181.352,108.82 v 0" /><path
         id="path56"
         style="fill:none;stroke:#231f20;stroke-width:5;stroke-linecap:butt;stroke-linejoin:miter;stroke-miterlimit:10;stroke-dasharray:none;stroke-opacity:1"
         d="m 713.207,111.32 c 0,60.071 -81.25,108.817 -181.352,108.817 -100.109,0 -181.351,-48.746 -181.351,-108.817 0,-60.07 81.242,-108.82 181.351,-108.82 100.102,0 181.352,48.75 181.352,108.82 z" /><g
         transform="scale(10)"
         id="g58"><text
           id="text62"
           style="font-style:italic;font-variant:normal;font-size:10.15600014px;font-family:'Times New Roman';-inkscape-font-specification:Times-Italic;writing-mode:lr-tb;fill:#231f20;fill-opacity:1;fill-rule:nonzero;stroke:none"
           transform="matrix(1,0,0,-1,42.4895,8.99609)"><tspan
             id="tspan60"
             y="0"
             x="0">H</tspan></text>
<text
           id="text66"
           style="font-style:italic;font-variant:normal;font-size:7.10921001px;font-family:'Times New Roman';-inkscape-font-specification:Times-Italic;writing-mode:lr-tb;fill:#231f20;fill-opacity:1;fill-rule:nonzero;stroke:none"
           transform="matrix(1,0,0,-1,49.34848,6.85586)"><tspan
             id="tspan64"
             y="0"
             x="0 3.1564891 6.7110944 8.685935 10.661526">child</tspan></text>
</g><path
         id="path68"
         style="fill:#ffffff;fill-opacity:1;fill-rule:evenodd;stroke:none"
         d="m 365.215,1097.71 c 0,60.07 -81.25,108.82 -181.36,108.82 C 83.75,1206.53 2.5,1157.78 2.5,1097.71 c 0,-60.06 81.25,-108.812 181.355,-108.812 100.11,0 181.36,48.752 181.36,108.812 v 0" /><path
         id="path70"
         style="fill:none;stroke:#231f20;stroke-width:5;stroke-linecap:butt;stroke-linejoin:miter;stroke-miterlimit:10;stroke-dasharray:none;stroke-opacity:1"
         d="m 365.215,1097.71 c 0,60.07 -81.25,108.82 -181.36,108.82 C 83.75,1206.53 2.5,1157.78 2.5,1097.71 c 0,-60.06 81.25,-108.812 181.355,-108.812 100.11,0 181.36,48.752 181.36,108.812 z" /><g
         transform="scale(10)"
         id="g72"><text
           id="text76"
           style="font-style:italic;font-variant:normal;font-size:7.10921001px;font-family:'Times New Roman';-inkscape-font-specification:Times-Italic;writing-mode:lr-tb;fill:#231f20;fill-opacity:1;fill-rule:nonzero;stroke:none"
           transform="matrix(1,0,0,-1,11.9895,105.52)"><tspan
             id="tspan74"
             y="0"
             x="0 5.133791 8.6883965 10.663496 14.218102 17.373373">mother</tspan></text>
<text
           id="text80"
           style="font-style:italic;font-variant:normal;font-size:10.15600014px;font-family:'Times New Roman';-inkscape-font-specification:Times-Italic;writing-mode:lr-tb;fill:#231f20;fill-opacity:1;fill-rule:nonzero;stroke:none"
           transform="matrix(1,0,0,-1,4.37192,108.395)"><tspan
             id="tspan78"
             y="0"
             x="0">G</tspan></text>
</g><path
         id="path82"
         style="fill:#ffffff;fill-opacity:1;fill-rule:evenodd;stroke:none"
         d="m 1061.21,1097.71 c 0,60.07 -81.245,108.82 -181.362,108.82 -100.106,0 -181.348,-48.75 -181.348,-108.82 0,-60.06 81.242,-108.812 181.348,-108.812 100.117,0 181.362,48.752 181.362,108.812 v 0" /><path
         id="path84"
         style="fill:none;stroke:#231f20;stroke-width:5;stroke-linecap:butt;stroke-linejoin:miter;stroke-miterlimit:10;stroke-dasharray:none;stroke-opacity:1"
         d="m 1061.21,1097.71 c 0,60.07 -81.245,108.82 -181.362,108.82 -100.106,0 -181.348,-48.75 -181.348,-108.82 0,-60.06 81.242,-108.812 181.348,-108.812 100.117,0 181.362,48.752 181.362,108.812 z" /><g
         transform="scale(10)"
         id="g86"><text
           id="text90"
           style="font-style:italic;font-variant:normal;font-size:7.10921001px;font-family:'Times New Roman';-inkscape-font-specification:Times-Italic;writing-mode:lr-tb;fill:#231f20;fill-opacity:1;fill-rule:nonzero;stroke:none"
           transform="matrix(1,0,0,-1,82.8953,105.77)"><tspan
             id="tspan88"
             y="0"
             x="0 1.9755913 5.5301962 7.5057878 11.060392 14.215668">father</tspan></text>
<text
           id="text94"
           style="font-style:italic;font-variant:normal;font-size:10.15600014px;font-family:'Times New Roman';-inkscape-font-specification:Times-Italic;writing-mode:lr-tb;fill:#231f20;fill-opacity:1;fill-rule:nonzero;stroke:none"
           transform="matrix(1,0,0,-1,75.28592,108.645)"><tspan
             id="tspan92"
             y="0"
             x="0">G</tspan></text>
</g><path
         id="path96"
         style="fill:#ffffff;fill-opacity:1;fill-rule:evenodd;stroke:none"
         d="m 713.207,459.316 c 0,60.071 -81.25,108.821 -181.352,108.821 -100.109,0 -181.351,-48.75 -181.351,-108.821 0,-60.066 81.242,-108.808 181.351,-108.808 100.102,0 181.352,48.742 181.352,108.808 v 0" /><path
         id="path98"
         style="fill:none;stroke:#231f20;stroke-width:5;stroke-linecap:butt;stroke-linejoin:miter;stroke-miterlimit:10;stroke-dasharray:none;stroke-opacity:1"
         d="m 713.207,459.316 c 0,60.071 -81.25,108.821 -181.352,108.821 -100.109,0 -181.351,-48.75 -181.351,-108.821 0,-60.066 81.242,-108.808 181.351,-108.808 100.102,0 181.352,48.742 181.352,108.808 z" /><g
         transform="scale(10)"
         id="g100"><text
           id="text104"
           style="font-style:italic;font-variant:normal;font-size:7.10921001px;font-family:'Times New Roman';-inkscape-font-specification:Times-Italic;writing-mode:lr-tb;fill:#231f20;fill-opacity:1;fill-rule:nonzero;stroke:none"
           transform="matrix(1,0,0,-1,49.0984,42.184)"><tspan
             id="tspan102"
             y="0"
             x="0 3.1564891 6.7110944 8.685935 10.661526">child</tspan></text>
<text
           id="text108"
           style="font-style:italic;font-variant:normal;font-size:10.15600014px;font-family:'Times New Roman';-inkscape-font-specification:Times-Italic;writing-mode:lr-tb;fill:#231f20;fill-opacity:1;fill-rule:nonzero;stroke:none"
           transform="matrix(1,0,0,-1,42.23942,43.81681)"><tspan
             id="tspan106"
             y="0"
             x="0">G</tspan></text>
</g><path
         id="path110"
         style="fill:none;stroke:#231f20;stroke-width:5;stroke-linecap:butt;stroke-linejoin:miter;stroke-miterlimit:10;stroke-dasharray:none;stroke-opacity:1"
         d="M 183.379,991.398 V 835.965" /><path
         id="path112"
         style="fill:#231f20;fill-opacity:1;fill-rule:evenodd;stroke:none"
         d="m 198.297,856.109 -16.488,-72.582 -16.5,72.582" /><path
         id="path114"
         style="fill:none;stroke:#231f20;stroke-width:5;stroke-linecap:butt;stroke-linejoin:miter;stroke-miterlimit:10;stroke-dasharray:none;stroke-opacity:1"
         d="M 881.43,988.898 V 833.461" /><path
         id="path116"
         style="fill:#231f20;fill-opacity:1;fill-rule:evenodd;stroke:none"
         d="m 896.344,853.613 -16.496,-72.586 -16.493,72.586" /></g></g></svg>