<?xml version="1.0" encoding="UTF-8" standalone="no"?>
<svg
   xmlns:dc="http://purl.org/dc/elements/1.1/"
   xmlns:cc="http://creativecommons.org/ns#"
   xmlns:rdf="http://www.w3.org/1999/02/22-rdf-syntax-ns#"
   xmlns:svg="http://www.w3.org/2000/svg"
   xmlns="http://www.w3.org/2000/svg"
   viewBox="0 0 521.25336 285.39999"
   height="285.39999"
   width="521.25336"
   xml:space="preserve"
   id="svg2"
   version="1.1"><metadata
     id="metadata8"><rdf:RDF><cc:Work
         rdf:about=""><dc:format>image/svg+xml</dc:format><dc:type
           rdf:resource="http://purl.org/dc/dcmitype/StillImage" /></cc:Work></rdf:RDF></metadata><defs
     id="defs6" /><g
     transform="matrix(1.3333333,0,0,-1.3333333,0,285.4)"
     id="g10"><g
       transform="scale(0.1)"
       id="g12"><g
         transform="scale(10)"
         id="g14"><text
           id="text20"
           style="font-variant:normal;font-weight:bold;font-size:12px;font-family:Helvetica;-inkscape-font-specification:Helvetica-Bold;writing-mode:lr-tb;fill:#100f0d;fill-opacity:1;fill-rule:nonzero;stroke:none"
           transform="matrix(1,0,0,-1,262.448,101.005)"><tspan
             id="tspan16"
             y="0"
             x="0 6.6719999 10.008">0.5</tspan><tspan
             id="tspan18"
             y="-0.116797"
             x="74.398003 81.07 84.405998">0.5</tspan></text>
</g><path
         id="path22"
         style="fill:#100f0d;fill-opacity:1;fill-rule:nonzero;stroke:none"
         d="m 3603.32,591.852 152.85,-379.731 9.27,3.731 -152.85,379.73 -9.27,-3.73 m 0,3.73 -152.86,-379.73 9.28,-3.731 152.85,379.731 -9.27,3.73" /><path
         id="path24"
         style="fill:#100f0d;fill-opacity:1;fill-rule:nonzero;stroke:none"
         d="m 2533.35,591.852 152.85,-379.731 9.27,3.731 -152.85,379.73 -9.27,-3.73 m 0,3.73 -152.86,-379.73 9.28,-3.731 152.85,379.731 -9.27,3.73" /><path
         id="path26"
         style="fill:#100f0d;fill-opacity:1;fill-rule:nonzero;stroke:none"
         d="m 3074.49,1211.32 -534.99,-458.558 6.51,-7.59 534.98,458.558 z m 0,-7.59 534.98,-458.558 6.5,7.59 -534.98,458.558" /><g
         transform="scale(10)"
         id="g28"><text
           id="text34"
           style="font-variant:normal;font-weight:bold;font-size:12px;font-family:Helvetica;-inkscape-font-specification:Helvetica-Bold;writing-mode:lr-tb;fill:#100f0d;fill-opacity:1;fill-rule:nonzero;stroke:none"
           transform="matrix(1,0,0,-1,32.4164,100.755)"><tspan
             id="tspan30"
             y="0"
             x="0 6.6719999 10.008">0.5</tspan><tspan
             id="tspan32"
             y="0.133203"
             x="74.398399 81.070396 84.406403">0.5</tspan></text>
</g><path
         id="path36"
         style="fill:#100f0d;fill-opacity:1;fill-rule:nonzero;stroke:none"
         d="m 1310.53,591.852 152.85,-379.731 9.28,3.731 -152.86,379.73 z m 0,3.73 -152.85,-379.73 9.27,-3.731 152.85,379.731" /><path
         id="path38"
         style="fill:#100f0d;fill-opacity:1;fill-rule:nonzero;stroke:none"
         d="m 240.563,591.852 152.851,-379.731 9.277,3.731 -152.851,379.73 z m 0,3.73 -152.8521,-379.73 9.2774,-3.731 152.8517,379.731" /><path
         id="path40"
         style="fill:#100f0d;fill-opacity:1;fill-rule:nonzero;stroke:none"
         d="m 1929.24,1890.83 1146.38,-534.98 4.23,9.06 -1146.38,534.98 z m 0,9.06 -1146.392,-534.98 4.226,-9.06 1146.396,534.98 z M 781.711,1211.32 246.727,752.762 l 6.507,-7.59 534.985,458.558 z m 0,-7.59 534.979,-458.558 6.51,7.59 -534.981,458.558" /><path
         id="path42"
         style="fill:#bebdbb;fill-opacity:1;fill-rule:evenodd;stroke:none"
         d="m 2071.61,1866.02 -137.67,263.71 -137.69,-263.71 z" /><path
         id="path44"
         style="fill:#100f0d;fill-opacity:1;fill-rule:nonzero;stroke:none"
         d="m 2071.61,1866.02 4.43,2.31 -142.1,272.21 L 1788,1861.02 h 291.86 l -3.82,7.31 -4.43,-2.31 v 5 h -267.1 l 129.43,247.91 133.23,-255.22 4.44,2.31 v 5 -5" /><path
         id="path46"
         style="fill:#bebdbb;fill-opacity:1;fill-rule:evenodd;stroke:none"
         d="M 1452.85,783.809 1315.16,520.078 1177.49,783.809 Z" /><path
         id="path48"
         style="fill:#100f0d;fill-opacity:1;fill-rule:nonzero;stroke:none"
         d="m 1452.85,783.809 -4.44,2.32 -133.25,-255.238 -129.42,247.918 h 267.11 v 5 l -4.44,2.32 4.44,-2.32 v 5 h -283.62 l 145.93,-279.528 145.94,279.528 h -8.25 v -5" /><path
         id="path50"
         style="fill:#bebdbb;fill-opacity:1;fill-rule:evenodd;stroke:none"
         d="M 3745.64,783.809 3607.96,520.078 3470.28,783.809 Z" /><path
         id="path52"
         style="fill:#100f0d;fill-opacity:1;fill-rule:nonzero;stroke:none"
         d="m 3745.64,783.809 -4.43,2.32 -133.25,-255.238 -129.43,247.918 h 267.11 v 5 l -4.43,2.32 4.43,-2.32 v 5 h -283.61 l 145.93,-279.528 145.93,279.528 h -8.25 v -5" /><path
         id="path54"
         style="fill:#bebdbb;fill-opacity:1;fill-rule:evenodd;stroke:none"
         d="m 3206.35,1296.43 c 0,71 -57.61,128.61 -128.61,128.61 -71,0 -128.61,-57.61 -128.61,-128.61 0,-71 57.61,-128.62 128.61,-128.62 71,0 128.61,57.62 128.61,128.62" /><path
         id="path56"
         style="fill:#100f0d;fill-opacity:1;fill-rule:nonzero;stroke:none"
         d="m 3206.35,1296.43 h 5 c 0,73.76 -59.85,133.61 -133.61,133.61 -73.76,0 -133.61,-59.85 -133.61,-133.61 0,-73.77 59.85,-133.61 133.61,-133.62 73.76,0.01 133.61,59.85 133.61,133.62 h -5 -5 c 0,-34.14 -13.83,-65.01 -36.22,-87.4 -22.39,-22.38 -53.26,-36.22 -87.39,-36.22 -34.13,0 -65.01,13.84 -87.4,36.22 -22.38,22.39 -36.21,53.26 -36.21,87.4 0,34.13 13.83,65 36.21,87.39 22.39,22.39 53.27,36.22 87.4,36.22 34.13,0 65,-13.83 87.39,-36.22 22.39,-22.39 36.22,-53.26 36.22,-87.39 h 5" /><path
         id="path58"
         style="fill:#bebdbb;fill-opacity:1;fill-rule:evenodd;stroke:none"
         d="M 2675.67,748.969 2537.99,485.238 2400.31,748.969 Z" /><path
         id="path60"
         style="fill:#100f0d;fill-opacity:1;fill-rule:nonzero;stroke:none"
         d="m 2675.67,748.969 -4.43,2.312 -133.25,-255.242 -129.43,247.93 h 267.11 v 5 l -4.43,2.312 4.43,-2.312 v 5 h -283.61 l 145.93,-279.539 145.93,279.539 h -8.25 v -5" /><path
         id="path62"
         style="fill:#bebdbb;fill-opacity:1;fill-rule:evenodd;stroke:none"
         d="M 382.875,783.809 245.203,520.078 107.523,783.809 Z" /><path
         id="path64"
         style="fill:#100f0d;fill-opacity:1;fill-rule:nonzero;stroke:none"
         d="m 382.875,783.809 -4.43,2.32 -133.242,-255.238 -129.43,247.918 h 267.102 v 5 l -4.43,2.32 4.43,-2.32 v 5 H 99.2734 L 245.203,509.281 391.125,788.809 h -8.25 v -5" /><path
         id="path66"
         style="fill:#bebdbb;fill-opacity:1;fill-rule:evenodd;stroke:none"
         d="m 909.789,1296.43 c 0,71 -57.625,128.61 -128.621,128.61 -70.988,0 -128.617,-57.61 -128.617,-128.61 0,-71 57.629,-128.62 128.617,-128.62 70.996,0 128.621,57.62 128.621,128.62" /><path
         id="path68"
         style="fill:#100f0d;fill-opacity:1;fill-rule:nonzero;stroke:none"
         d="m 909.789,1296.43 h 5 c -0.004,73.76 -59.859,133.61 -133.621,133.61 -73.754,0 -133.613,-59.85 -133.617,-133.61 0.004,-73.77 59.863,-133.61 133.617,-133.62 73.762,0.01 133.617,59.85 133.621,133.62 h -5 -5 c 0,-34.14 -13.836,-65.01 -36.223,-87.4 -22.39,-22.38 -53.265,-36.22 -87.398,-36.22 -34.129,0 -65,13.84 -87.395,36.22 -22.386,22.39 -36.222,53.26 -36.222,87.4 0,34.13 13.836,65 36.222,87.39 22.395,22.39 53.266,36.22 87.395,36.22 34.129,0 65.008,-13.83 87.398,-36.22 22.387,-22.39 36.223,-53.26 36.223,-87.39 h 5" /><g
         transform="scale(10)"
         id="g70"><text
           id="text86"
           style="font-variant:normal;font-weight:bold;font-size:12px;font-family:Helvetica;-inkscape-font-specification:Helvetica-Bold;writing-mode:lr-tb;fill:#100f0d;fill-opacity:1;fill-rule:nonzero;stroke:none"
           transform="matrix(1,0,0,-1,5.61523,9.21992)"><tspan
             id="tspan72"
             y="0"
             x="0">2</tspan><tspan
             id="tspan74"
             y="-0.21328101"
             x="32.171902">2</tspan><tspan
             id="tspan76"
             y="-0.77617198"
             x="105.3938 140.4368">12</tspan><tspan
             id="tspan78"
             y="0.148047"
             x="229.2048">0</tspan><tspan
             id="tspan80"
             y="0.36289099"
             x="261.7009">2</tspan><tspan
             id="tspan82"
             y="-0.026172001"
             x="332.57281 336.56879">-1</tspan><tspan
             id="tspan84"
             y="-0.77617198"
             x="369.465">0</tspan></text>
<text
           id="text102"
           style="font-variant:normal;font-weight:normal;font-size:10px;font-family:Helvetica;-inkscape-font-specification:Helvetica;writing-mode:lr-tb;fill:#100f0d;fill-opacity:1;fill-rule:nonzero;stroke:none"
           transform="matrix(1,0,0,-1,2.3e-4,65.194892)"><tspan
             id="tspan88"
             y="0"
             x="0">2</tspan><tspan
             id="tspan90"
             y="-0.138281"
             x="109.527">1</tspan><tspan
             id="tspan92"
             y="1.749999"
             x="231.808">0</tspan><tspan
             id="tspan94"
             y="0.49999899"
             x="336.80899 340.13901">-1</tspan><tspan
             id="tspan96"
             y="-61.666"
             x="46.848 52.408001 55.188">1.5</tspan><tspan
             id="tspan98"
             y="-61.555061"
             x="273.22699 276.55701 282.117 284.897">-0.5</tspan><tspan
             id="tspan100"
             y="-130.58276"
             x="163.909 169.46899 172.24899">1.5</tspan></text>
</g><path
         id="path104"
         style="fill:#625b5a;fill-opacity:1;fill-rule:nonzero;stroke:none"
         d="m 2707.89,0 c -70.51,0.0117188 -127.69,57.1992 -127.7,127.699 0.01,57.66 38.27,106.41 90.78,122.262 l 7.5,-18.641 c -17.9,-5.082 -33.9,-14.672 -46.73,-27.492 -19.5,-19.519 -31.55,-46.379 -31.55,-76.129 0,-29.7498 12.05,-56.617 31.55,-76.1404 19.53,-19.5078 46.39,-31.5469 76.15,-31.5586 29.74,0.0117 56.6,12.0508 76.13,31.5586 19.51,19.5234 31.55,46.3906 31.55,76.1404 0,29.75 -12.04,56.61 -31.55,76.129 -19.53,19.512 -46.39,31.551 -76.13,31.551 -6.69,0 -13.22,-0.609 -19.57,-1.77 l -7.59,18.871 c 8.75,1.899 17.84,2.899 27.16,2.899 70.49,-0.008 127.67,-57.188 127.68,-127.68 v 0 0 0 C 2835.56,57.1992 2778.38,0.0117188 2707.89,0" /><path
         id="path106"
         style="fill:#625b5a;fill-opacity:1;fill-rule:nonzero;stroke:none"
         d="m 2678.47,231.32 -7.5,18.641 c 3.2,0.961 6.46,1.809 9.76,2.519 l 7.59,-18.871 c -3.34,-0.609 -6.62,-1.379 -9.85,-2.289" /><path
         id="path108"
         style="fill:#100f0d;fill-opacity:1;fill-rule:nonzero;stroke:none"
         d="m 2678.47,231.32 -7.5,18.641 c 3.2,0.961 6.46,1.809 9.76,2.519 l 7.59,-18.871 c -3.34,-0.609 -6.62,-1.379 -9.85,-2.289" /><path
         id="path110"
         style="fill:#625b5a;fill-opacity:1;fill-rule:nonzero;stroke:none"
         d="m 3439.89,0 c -70.5,0.0117188 -127.69,57.1992 -127.7,127.699 0.01,70.492 57.2,127.672 127.7,127.68 8.72,0 17.23,-0.867 25.46,-2.539 l -7.62,-18.93 c -5.8,0.969 -11.76,1.469 -17.84,1.469 -29.76,0 -56.62,-12.039 -76.14,-31.551 -19.51,-19.519 -31.55,-46.379 -31.56,-76.129 0.01,-29.7498 12.05,-56.617 31.56,-76.1404 19.52,-19.5078 46.38,-31.5469 76.14,-31.5586 29.74,0.0117 56.6,12.0508 76.13,31.5586 19.51,19.5234 31.55,46.3906 31.55,76.1404 0,29.75 -12.04,56.61 -31.55,76.129 -13.22,13.211 -29.8,23.004 -48.37,27.942 l 7.52,18.671 c 53.34,-15.32 92.39,-64.492 92.4,-122.742 v 0 0 0 C 3567.56,57.1992 3510.38,0.0117188 3439.89,0" /><path
         id="path112"
         style="fill:#625b5a;fill-opacity:1;fill-rule:nonzero;stroke:none"
         d="m 3467.65,231.77 c -3.25,0.859 -6.56,1.582 -9.92,2.14 l 7.62,18.93 c 3.32,-0.668 6.6,-1.481 9.82,-2.399 l -7.52,-18.671" /><path
         id="path114"
         style="fill:#100f0d;fill-opacity:1;fill-rule:nonzero;stroke:none"
         d="m 3467.65,231.77 c -3.25,0.859 -6.56,1.582 -9.92,2.14 l 7.62,18.93 c 3.32,-0.668 6.6,-1.481 9.82,-2.399 l -7.52,-18.671" /><path
         id="path116"
         style="fill:#625b5a;fill-opacity:1;fill-rule:nonzero;stroke:none"
         d="m 3781.66,5 c -70.5,0.01172 -127.68,57.1992 -127.69,127.699 0.01,55.762 35.78,103.192 85.63,120.582 l 7.48,-18.57 c -15.82,-5.371 -29.98,-14.313 -41.56,-25.883 -19.51,-19.519 -31.55,-46.379 -31.55,-76.129 0,-29.75 12.04,-56.617 31.55,-76.1404 19.53,-19.5078 46.39,-31.5469 76.14,-31.5586 29.75,0.0117 56.61,12.0508 76.14,31.5586 19.51,19.5234 31.55,46.3904 31.55,76.1404 0,29.75 -12.04,56.61 -31.55,76.129 -19.53,19.512 -46.39,31.551 -76.14,31.551 -8.58,0 -16.93,-1 -24.92,-2.899 l -7.54,18.731 c 10.36,2.719 21.25,4.168 32.46,4.168 70.5,-0.008 127.68,-57.188 127.69,-127.68 v 0 0 0 C 3909.34,62.1992 3852.16,5.01172 3781.66,5" /><path
         id="path118"
         style="fill:#625b5a;fill-opacity:1;fill-rule:nonzero;stroke:none"
         d="m 3747.08,234.711 -7.48,18.57 c 3.14,1.098 6.34,2.078 9.6,2.93 l 7.54,-18.731 c -3.28,-0.769 -6.51,-1.699 -9.66,-2.769" /><path
         id="path120"
         style="fill:#100f0d;fill-opacity:1;fill-rule:nonzero;stroke:none"
         d="m 3747.08,234.711 -7.48,18.57 c 3.14,1.098 6.34,2.078 9.6,2.93 l 7.54,-18.731 c -3.28,-0.769 -6.51,-1.699 -9.66,-2.769" /></g></g></svg>