<?xml version="1.0" encoding="UTF-8" standalone="no"?>
<svg
   xmlns:dc="http://purl.org/dc/elements/1.1/"
   xmlns:cc="http://creativecommons.org/ns#"
   xmlns:rdf="http://www.w3.org/1999/02/22-rdf-syntax-ns#"
   xmlns:svg="http://www.w3.org/2000/svg"
   xmlns="http://www.w3.org/2000/svg"
   viewBox="0 0 485.70667 114.82667"
   height="114.82667"
   width="485.70667"
   xml:space="preserve"
   id="svg2"
   version="1.1"><metadata
     id="metadata8"><rdf:RDF><cc:Work
         rdf:about=""><dc:format>image/svg+xml</dc:format><dc:type
           rdf:resource="http://purl.org/dc/dcmitype/StillImage" /></cc:Work></rdf:RDF></metadata><defs
     id="defs6" /><g
     transform="matrix(1.3333333,0,0,-1.3333333,0,114.82667)"
     id="g10"><g
       transform="scale(0.1)"
       id="g12"><g
         transform="scale(10)"
         id="g14"><text
           id="text18"
           style="font-variant:normal;font-weight:normal;font-size:8.27999973px;font-family:'Times New Roman';-inkscape-font-specification:Times-Roman;writing-mode:lr-tb;fill:#231f20;fill-opacity:1;fill-rule:nonzero;stroke:none"
           transform="matrix(1,0,0,-1,47.1098,3.54609)"><tspan
             id="tspan16"
             y="0"
             x="0 2.7572401 5.0590801 131.14113 133.89836 136.20021 138.49895 258.75601 261.51324 263.81403 266.11484 268.41562">(i)(ii)(iii)</tspan></text>
</g><path
         id="path20"
         style="fill:#ffffff;fill-opacity:1;fill-rule:evenodd;stroke:none"
         d="m 3341.67,748.406 c 0,59.524 -96.6,107.824 -215.63,107.824 -119.05,0 -215.67,-48.3 -215.67,-107.824 0,-59.519 96.62,-107.824 215.67,-107.824 119.03,0 215.63,48.305 215.63,107.824 v 0" /><path
         id="path22"
         style="fill:none;stroke:#231f20;stroke-width:10;stroke-linecap:butt;stroke-linejoin:miter;stroke-miterlimit:10;stroke-dasharray:none;stroke-opacity:1"
         d="m 3341.67,748.406 c 0,59.524 -96.6,107.824 -215.63,107.824 -119.05,0 -215.67,-48.3 -215.67,-107.824 0,-59.519 96.62,-107.824 215.67,-107.824 119.03,0 215.63,48.305 215.63,107.824 z" /><g
         transform="scale(10)"
         id="g24"><text
           id="text28"
           style="font-style:italic;font-variant:normal;font-size:10px;font-family:'Times New Roman';-inkscape-font-specification:Times-Italic;writing-mode:lr-tb;fill:#231f20;fill-opacity:1;fill-rule:nonzero;stroke:none"
           transform="matrix(1,0,0,-1,298.943,72.4121)"><tspan
             id="tspan26"
             y="0"
             x="0 6.1100001 8.8900003 13.89 18.33 23.33">Flavor</tspan></text>
</g><path
         id="path30"
         style="fill:#ffffff;fill-opacity:1;fill-rule:evenodd;stroke:none"
         d="m 3047.57,291.367 c 0,59.512 -96.6,107.813 -215.65,107.813 -119.04,0 -215.66,-48.301 -215.66,-107.813 0,-59.531 96.62,-107.832 215.66,-107.832 119.05,0 215.65,48.301 215.65,107.832 v 0" /><path
         id="path32"
         style="fill:none;stroke:#231f20;stroke-width:10;stroke-linecap:butt;stroke-linejoin:miter;stroke-miterlimit:10;stroke-dasharray:none;stroke-opacity:1"
         d="m 3047.57,291.367 c 0,59.512 -96.6,107.813 -215.65,107.813 -119.04,0 -215.66,-48.301 -215.66,-107.813 0,-59.531 96.62,-107.832 215.66,-107.832 119.05,0 215.65,48.301 215.65,107.832 z" /><g
         transform="scale(10)"
         id="g34"><text
           id="text38"
           style="font-style:italic;font-variant:normal;font-size:10px;font-family:'Times New Roman';-inkscape-font-specification:Times-Italic;writing-mode:lr-tb;fill:#231f20;fill-opacity:1;fill-rule:nonzero;stroke:none"
           transform="matrix(1,0,0,-1,265.673,26.1434)"><tspan
             id="tspan36"
             y="0"
             x="0 8.3299999 12.22 17.219999 22.219999 27.219999 31.66">Wrapper</tspan></text>
</g><path
         id="path40"
         style="fill:#ffffff;fill-opacity:1;fill-rule:evenodd;stroke:none"
         d="m 3637.76,291.367 c 0,59.512 -96.6,107.813 -215.64,107.813 -119.04,0 -215.66,-48.301 -215.66,-107.813 0,-59.531 96.62,-107.832 215.66,-107.832 119.04,0 215.64,48.301 215.64,107.832 v 0" /><path
         id="path42"
         style="fill:none;stroke:#231f20;stroke-width:10;stroke-linecap:butt;stroke-linejoin:miter;stroke-miterlimit:10;stroke-dasharray:none;stroke-opacity:1"
         d="m 3637.76,291.367 c 0,59.512 -96.6,107.813 -215.64,107.813 -119.04,0 -215.66,-48.301 -215.66,-107.813 0,-59.531 96.62,-107.832 215.66,-107.832 119.04,0 215.64,48.301 215.64,107.832 z" /><g
         transform="scale(10)"
         id="g44"><text
           id="text48"
           style="font-style:italic;font-variant:normal;font-size:10px;font-family:'Times New Roman';-inkscape-font-specification:Times-Italic;writing-mode:lr-tb;fill:#231f20;fill-opacity:1;fill-rule:nonzero;stroke:none"
           transform="matrix(1,0,0,-1,329.499,26.1016)"><tspan
             id="tspan46"
             y="0"
             x="0 5 10 15 20">Shape</tspan></text>
</g><path
         id="path50"
         style="fill:none;stroke:#231f20;stroke-width:10;stroke-linecap:butt;stroke-linejoin:miter;stroke-miterlimit:10;stroke-dasharray:none;stroke-opacity:1"
         d="M 3125.48,639.828 2885.63,434.316" /><path
         id="path52"
         style="fill:#231f20;fill-opacity:1;fill-rule:evenodd;stroke:none"
         d="m 2948.36,446.715 -98.08,-43.231 66.2,84.297" /><path
         id="path54"
         style="fill:none;stroke:#231f20;stroke-width:10;stroke-linecap:butt;stroke-linejoin:miter;stroke-miterlimit:10;stroke-dasharray:none;stroke-opacity:1"
         d="M 3127.65,639.828 3368.56,434.316" /><path
         id="path56"
         style="fill:#231f20;fill-opacity:1;fill-rule:evenodd;stroke:none"
         d="m 3344.38,485.234 66.2,-84.296 -98.09,43.238" /><path
         id="path58"
         style="fill:#ffffff;fill-opacity:1;fill-rule:evenodd;stroke:none"
         d="m 436.309,748.406 c 0,59.524 -96.614,107.824 -215.657,107.824 C 101.609,856.23 5,807.93 5,748.406 5,688.887 101.609,640.582 220.652,640.582 c 119.043,0 215.657,48.305 215.657,107.824 v 0" /><path
         id="path60"
         style="fill:none;stroke:#231f20;stroke-width:10;stroke-linecap:butt;stroke-linejoin:miter;stroke-miterlimit:10;stroke-dasharray:none;stroke-opacity:1"
         d="m 436.309,748.406 c 0,59.524 -96.614,107.824 -215.657,107.824 C 101.609,856.23 5,807.93 5,748.406 5,688.887 101.609,640.582 220.652,640.582 c 119.043,0 215.657,48.305 215.657,107.824 z" /><g
         transform="scale(10)"
         id="g62"><text
           id="text66"
           style="font-style:italic;font-variant:normal;font-size:10px;font-family:'Times New Roman';-inkscape-font-specification:Times-Italic;writing-mode:lr-tb;fill:#231f20;fill-opacity:1;fill-rule:nonzero;stroke:none"
           transform="matrix(1,0,0,-1,4.49453,72.4121)"><tspan
             id="tspan64"
             y="0"
             x="0 8.3299999 12.22 17.219999 22.219999 27.219999 31.66">Wrapper</tspan></text>
</g><path
         id="path68"
         style="fill:#ffffff;fill-opacity:1;fill-rule:evenodd;stroke:none"
         d="m 1028.5,748.406 c 0,59.524 -96.621,107.824 -215.656,107.824 -119.043,0 -215.656,-48.3 -215.656,-107.824 0,-59.519 96.613,-107.824 215.656,-107.824 119.035,0 215.656,48.305 215.656,107.824 v 0" /><path
         id="path70"
         style="fill:none;stroke:#231f20;stroke-width:10;stroke-linecap:butt;stroke-linejoin:miter;stroke-miterlimit:10;stroke-dasharray:none;stroke-opacity:1"
         d="m 1028.5,748.406 c 0,59.524 -96.621,107.824 -215.656,107.824 -119.043,0 -215.656,-48.3 -215.656,-107.824 0,-59.519 96.613,-107.824 215.656,-107.824 119.035,0 215.656,48.305 215.656,107.824 z" /><g
         transform="scale(10)"
         id="g72"><text
           id="text76"
           style="font-style:italic;font-variant:normal;font-size:10px;font-family:'Times New Roman';-inkscape-font-specification:Times-Italic;writing-mode:lr-tb;fill:#231f20;fill-opacity:1;fill-rule:nonzero;stroke:none"
           transform="matrix(1,0,0,-1,68.6934,72.2055)"><tspan
             id="tspan74"
             y="0"
             x="0 5 10 15 20">Shape</tspan></text>
</g><path
         id="path78"
         style="fill:none;stroke:#231f20;stroke-width:10;stroke-linecap:butt;stroke-linejoin:miter;stroke-miterlimit:10;stroke-dasharray:none;stroke-opacity:1"
         d="M 461.855,424.707 214.723,639.195" /><path
         id="path80"
         style="fill:#231f20;fill-opacity:1;fill-rule:evenodd;stroke:none"
         d="m 425.867,483.48 66.203,-84.3 -98.082,43.23" /><path
         id="path82"
         style="fill:none;stroke:#231f20;stroke-width:10;stroke-linecap:butt;stroke-linejoin:miter;stroke-miterlimit:10;stroke-dasharray:none;stroke-opacity:1"
         d="M 578.129,427.348 818.051,639.195" /><path
         id="path84"
         style="fill:#231f20;fill-opacity:1;fill-rule:evenodd;stroke:none"
         d="m 638.777,442.41 -98.078,-43.23 66.196,84.3" /><path
         id="path86"
         style="fill:#ffffff;fill-opacity:1;fill-rule:evenodd;stroke:none"
         d="m 732.398,291.367 c 0,59.512 -96.605,107.813 -215.652,107.813 -119.035,0 -215.656,-48.301 -215.656,-107.813 0,-59.531 96.621,-107.832 215.656,-107.832 119.047,0 215.652,48.301 215.652,107.832 v 0" /><path
         id="path88"
         style="fill:none;stroke:#231f20;stroke-width:10;stroke-linecap:butt;stroke-linejoin:miter;stroke-miterlimit:10;stroke-dasharray:none;stroke-opacity:1"
         d="m 732.398,291.367 c 0,59.512 -96.605,107.813 -215.652,107.813 -119.035,0 -215.656,-48.301 -215.656,-107.813 0,-59.531 96.621,-107.832 215.656,-107.832 119.047,0 215.652,48.301 215.652,107.832 z" /><g
         transform="scale(10)"
         id="g90"><text
           id="text94"
           style="font-style:italic;font-variant:normal;font-size:10px;font-family:'Times New Roman';-inkscape-font-specification:Times-Italic;writing-mode:lr-tb;fill:#231f20;fill-opacity:1;fill-rule:nonzero;stroke:none"
           transform="matrix(1,0,0,-1,37.7145,26.7305)"><tspan
             id="tspan92"
             y="0"
             x="0 6.1100001 8.8900003 13.89 18.33 23.33">Flavor</tspan></text>
</g><path
         id="path96"
         style="fill:none;stroke:#231f20;stroke-width:10;stroke-linecap:butt;stroke-linejoin:miter;stroke-miterlimit:10;stroke-dasharray:none;stroke-opacity:1"
         d="m 1882.18,746.609 h -160.4" /><path
         id="path98"
         style="fill:#231f20;fill-opacity:1;fill-rule:evenodd;stroke:none"
         d="m 1813.39,771.391 103.98,-25.996 -103.98,-25.997" /><path
         id="path100"
         style="fill:#ffffff;fill-opacity:1;fill-rule:evenodd;stroke:none"
         d="m 1759.54,748.406 c 0,59.524 -96.62,107.824 -215.66,107.824 -119.04,0 -215.65,-48.3 -215.65,-107.824 0,-59.519 96.61,-107.824 215.65,-107.824 119.04,0 215.66,48.305 215.66,107.824 v 0" /><path
         id="path102"
         style="fill:none;stroke:#231f20;stroke-width:10;stroke-linecap:butt;stroke-linejoin:miter;stroke-miterlimit:10;stroke-dasharray:none;stroke-opacity:1"
         d="m 1759.54,748.406 c 0,59.524 -96.62,107.824 -215.66,107.824 -119.04,0 -215.65,-48.3 -215.65,-107.824 0,-59.519 96.61,-107.824 215.65,-107.824 119.04,0 215.66,48.305 215.66,107.824 z" /><g
         transform="scale(10)"
         id="g104"><text
           id="text108"
           style="font-style:italic;font-variant:normal;font-size:10px;font-family:'Times New Roman';-inkscape-font-specification:Times-Italic;writing-mode:lr-tb;fill:#231f20;fill-opacity:1;fill-rule:nonzero;stroke:none"
           transform="matrix(1,0,0,-1,136.468,72.3262)"><tspan
             id="tspan106"
             y="0"
             x="0 8.3299999 12.22 17.219999 22.219999 27.219999 31.66">Wrapper</tspan></text>
</g><path
         id="path110"
         style="fill:#ffffff;fill-opacity:1;fill-rule:evenodd;stroke:none"
         d="m 2349.74,748.406 c 0,59.524 -96.62,107.824 -215.67,107.824 -119.04,0 -215.64,-48.3 -215.64,-107.824 0,-59.519 96.6,-107.824 215.64,-107.824 119.05,0 215.67,48.305 215.67,107.824 v 0" /><path
         id="path112"
         style="fill:none;stroke:#231f20;stroke-width:10;stroke-linecap:butt;stroke-linejoin:miter;stroke-miterlimit:10;stroke-dasharray:none;stroke-opacity:1"
         d="m 2349.74,748.406 c 0,59.524 -96.62,107.824 -215.67,107.824 -119.04,0 -215.64,-48.3 -215.64,-107.824 0,-59.519 96.6,-107.824 215.64,-107.824 119.05,0 215.67,48.305 215.67,107.824 z" /><g
         transform="scale(10)"
         id="g114"><text
           id="text118"
           style="font-style:italic;font-variant:normal;font-size:10px;font-family:'Times New Roman';-inkscape-font-specification:Times-Italic;writing-mode:lr-tb;fill:#231f20;fill-opacity:1;fill-rule:nonzero;stroke:none"
           transform="matrix(1,0,0,-1,200.96,72.8262)"><tspan
             id="tspan116"
             y="0"
             x="0 5 10 15 20">Shape</tspan></text>
</g><path
         id="path120"
         style="fill:#ffffff;fill-opacity:1;fill-rule:evenodd;stroke:none"
         d="m 2055.63,291.367 c 0,59.512 -96.62,107.813 -215.65,107.813 -119.04,0 -215.66,-48.301 -215.66,-107.813 0,-59.531 96.62,-107.832 215.66,-107.832 119.03,0 215.65,48.301 215.65,107.832 v 0" /><path
         id="path122"
         style="fill:none;stroke:#231f20;stroke-width:10;stroke-linecap:butt;stroke-linejoin:miter;stroke-miterlimit:10;stroke-dasharray:none;stroke-opacity:1"
         d="m 2055.63,291.367 c 0,59.512 -96.62,107.813 -215.65,107.813 -119.04,0 -215.66,-48.301 -215.66,-107.813 0,-59.531 96.62,-107.832 215.66,-107.832 119.03,0 215.65,48.301 215.65,107.832 z" /><g
         transform="scale(10)"
         id="g124"><text
           id="text128"
           style="font-style:italic;font-variant:normal;font-size:10px;font-family:'Times New Roman';-inkscape-font-specification:Times-Italic;writing-mode:lr-tb;fill:#231f20;fill-opacity:1;fill-rule:nonzero;stroke:none"
           transform="matrix(1,0,0,-1,169.609,26.2305)"><tspan
             id="tspan126"
             y="0"
             x="0 6.1100001 8.8900003 13.89 18.33 23.33">Flavor</tspan></text>
</g><path
         id="path130"
         style="fill:none;stroke:#231f20;stroke-width:10;stroke-linecap:butt;stroke-linejoin:miter;stroke-miterlimit:10;stroke-dasharray:none;stroke-opacity:1"
         d="M 1786.01,424.707 1538.88,639.195" /><path
         id="path132"
         style="fill:#231f20;fill-opacity:1;fill-rule:evenodd;stroke:none"
         d="m 1750.02,483.48 66.21,-84.3 -98.09,43.23" /><path
         id="path134"
         style="fill:none;stroke:#231f20;stroke-width:10;stroke-linecap:butt;stroke-linejoin:miter;stroke-miterlimit:10;stroke-dasharray:none;stroke-opacity:1"
         d="m 1902.29,427.348 239.92,211.847" /><path
         id="path136"
         style="fill:#231f20;fill-opacity:1;fill-rule:evenodd;stroke:none"
         d="m 1962.94,442.41 -98.1,-43.23 66.2,84.3" /></g></g></svg>