<?xml version="1.0" encoding="UTF-8" standalone="no"?>
<svg
   xmlns:dc="http://purl.org/dc/elements/1.1/"
   xmlns:cc="http://creativecommons.org/ns#"
   xmlns:rdf="http://www.w3.org/1999/02/22-rdf-syntax-ns#"
   xmlns:svg="http://www.w3.org/2000/svg"
   xmlns="http://www.w3.org/2000/svg"
   viewBox="0 0 368.84 202.26666"
   height="202.26666"
   width="368.84"
   xml:space="preserve"
   id="svg2"
   version="1.1"><metadata
     id="metadata8"><rdf:RDF><cc:Work
         rdf:about=""><dc:format>image/svg+xml</dc:format><dc:type
           rdf:resource="http://purl.org/dc/dcmitype/StillImage" /></cc:Work></rdf:RDF></metadata><defs
     id="defs6" /><g
     transform="matrix(1.3333333,0,0,-1.3333333,0,202.26667)"
     id="g10"><g
       transform="scale(0.1)"
       id="g12"><path
         id="path14"
         style="fill:none;stroke:#231f20;stroke-width:8.78199959;stroke-linecap:butt;stroke-linejoin:miter;stroke-miterlimit:10;stroke-dasharray:none;stroke-opacity:1"
         d="M 646.848,1349.41 390.211,1116.1" /><path
         id="path16"
         style="fill:#231f20;fill-opacity:1;fill-rule:evenodd;stroke:none"
         d="m 476.992,1157.72 -100.179,-53.79 63.074,94.61" /><path
         id="path18"
         style="fill:none;stroke:#231f20;stroke-width:8.78199959;stroke-linecap:butt;stroke-linejoin:miter;stroke-miterlimit:10;stroke-dasharray:none;stroke-opacity:1"
         d="m 469.961,1158.93 -79.75,-42.83 50.215,75.33" /><path
         id="path20"
         style="fill:none;stroke:#231f20;stroke-width:8.78199959;stroke-linecap:butt;stroke-linejoin:miter;stroke-miterlimit:10;stroke-dasharray:none;stroke-opacity:1"
         d="m 933.91,1336.37 298.2,-232.93" /><path
         id="path22"
         style="fill:#231f20;fill-opacity:1;fill-rule:evenodd;stroke:none"
         d="m 1176.67,1182.11 69.67,-89.86 -103.76,46.51" /><path
         id="path24"
         style="fill:none;stroke:#231f20;stroke-width:8.78199959;stroke-linecap:butt;stroke-linejoin:miter;stroke-miterlimit:10;stroke-dasharray:none;stroke-opacity:1"
         d="m 1176.65,1174.98 55.46,-71.54 -82.6,37.03" /><path
         id="path26"
         style="fill:none;stroke:#231f20;stroke-width:8.78199959;stroke-linecap:butt;stroke-linejoin:miter;stroke-miterlimit:10;stroke-dasharray:none;stroke-opacity:1"
         d="m 1445.63,921.547 306.4,-234.895" /><path
         id="path28"
         style="fill:#231f20;fill-opacity:1;fill-rule:evenodd;stroke:none"
         d="m 1697.08,765.668 69.12,-90.293 -103.47,47.141" /><path
         id="path30"
         style="fill:none;stroke:#231f20;stroke-width:8.78199959;stroke-linecap:butt;stroke-linejoin:miter;stroke-miterlimit:10;stroke-dasharray:none;stroke-opacity:1"
         d="m 1697.01,758.535 55.02,-71.883 -82.37,37.532" /><path
         id="path32"
         style="fill:none;stroke:#231f20;stroke-width:8.78199959;stroke-linecap:butt;stroke-linejoin:miter;stroke-miterlimit:10;stroke-dasharray:none;stroke-opacity:1"
         d="M 1938.93,500.672 V 225.539" /><path
         id="path34"
         style="fill:#231f20;fill-opacity:1;fill-rule:evenodd;stroke:none"
         d="M 1966.51,317.738 1938.93,207.43 1911.36,317.738" /><path
         id="path36"
         style="fill:none;stroke:#231f20;stroke-width:8.78199959;stroke-linecap:butt;stroke-linejoin:miter;stroke-miterlimit:10;stroke-dasharray:none;stroke-opacity:1"
         d="m 1960.89,313.359 -21.96,-87.82 -21.97,87.82" /><path
         id="path38"
         style="fill:none;stroke:#231f20;stroke-width:8.78199959;stroke-linecap:butt;stroke-linejoin:miter;stroke-miterlimit:10;stroke-dasharray:none;stroke-opacity:1"
         d="M 2384.28,927.605 2098,686.813" /><path
         id="path40"
         style="fill:#231f20;fill-opacity:1;fill-rule:evenodd;stroke:none"
         d="m 2185.71,726.422 -101.38,-51.469 65.23,93.137" /><path
         id="path42"
         style="fill:none;stroke:#231f20;stroke-width:8.78199959;stroke-linecap:butt;stroke-linejoin:miter;stroke-miterlimit:10;stroke-dasharray:none;stroke-opacity:1"
         d="m 2178.71,727.809 -80.71,-40.996 51.93,74.152" /><path
         id="path44"
         style="fill:#ffffff;fill-opacity:1;fill-rule:evenodd;stroke:none"
         d="m 478.617,1019.52 c 0,57.13 -106.23,103.51 -237.117,103.51 -130.887,0 -237.10937,-46.38 -237.10937,-103.51 0,-57.153 106.22237,-103.532 237.10937,-103.532 130.887,0 237.117,46.379 237.117,103.532" /><path
         id="path46"
         style="fill:none;stroke:#231f20;stroke-width:8.78199959;stroke-linecap:butt;stroke-linejoin:miter;stroke-miterlimit:10;stroke-dasharray:none;stroke-opacity:1"
         d="m 478.617,1019.52 c 0,57.13 -106.23,103.51 -237.117,103.51 -130.887,0 -237.10937,-46.38 -237.10937,-103.51 0,-57.153 106.22237,-103.532 237.10937,-103.532 130.887,0 237.117,46.379 237.117,103.532" /><g
         transform="scale(10)"
         id="g48"><text
           id="text52"
           style="font-style:italic;font-variant:normal;font-size:9px;font-family:'Times New Roman';-inkscape-font-specification:Times-Italic;writing-mode:lr-tb;fill:#231f20;fill-opacity:1;fill-rule:nonzero;stroke:none"
           transform="matrix(1,0,0,-1,13.0684,99.0961)"><tspan
             id="tspan50"
             y="0"
             x="0 5.4990001 9.9989996 14.499 17.000999">Radio</tspan></text>
</g><path
         id="path54"
         style="fill:#ffffff;fill-opacity:1;fill-rule:evenodd;stroke:none"
         d="m 1049.45,1414.59 c 0,54.12 -110.157,98.06 -245.895,98.06 -135.735,0 -245.895,-43.94 -245.895,-98.06 0,-54.14 110.16,-98.08 245.895,-98.08 135.738,0 245.895,43.94 245.895,98.08" /><path
         id="path56"
         style="fill:none;stroke:#231f20;stroke-width:8.78199959;stroke-linecap:butt;stroke-linejoin:miter;stroke-miterlimit:10;stroke-dasharray:none;stroke-opacity:1"
         d="m 1049.45,1414.59 c 0,54.12 -110.157,98.06 -245.895,98.06 -135.735,0 -245.895,-43.94 -245.895,-98.06 0,-54.14 110.16,-98.08 245.895,-98.08 135.738,0 245.895,43.94 245.895,98.08" /><g
         transform="scale(10)"
         id="g58"><text
           id="text62"
           style="font-style:italic;font-variant:normal;font-size:9px;font-family:'Times New Roman';-inkscape-font-specification:Times-Italic;writing-mode:lr-tb;fill:#231f20;fill-opacity:1;fill-rule:nonzero;stroke:none"
           transform="matrix(1,0,0,-1,65.9453,139.405)"><tspan
             id="tspan60"
             y="0"
             x="0 5.4990001 9.9989996 12.501 15.003 18.999001 22.5">Battery</tspan></text>
</g><path
         id="path64"
         style="fill:#ffffff;fill-opacity:1;fill-rule:evenodd;stroke:none"
         d="m 1612.54,1011.66 c 0,54.14 -110.16,98.07 -245.9,98.07 -135.74,0 -245.89,-43.93 -245.89,-98.07 0,-54.137 110.15,-98.062 245.89,-98.062 135.74,0 245.9,43.925 245.9,98.062" /><path
         id="path66"
         style="fill:none;stroke:#231f20;stroke-width:8.78199959;stroke-linecap:butt;stroke-linejoin:miter;stroke-miterlimit:10;stroke-dasharray:none;stroke-opacity:1"
         d="m 1612.54,1011.66 c 0,54.14 -110.16,98.07 -245.9,98.07 -135.74,0 -245.89,-43.93 -245.89,-98.07 0,-54.137 110.15,-98.062 245.89,-98.062 135.74,0 245.9,43.925 245.9,98.062" /><g
         transform="scale(10)"
         id="g68"><text
           id="text72"
           style="font-style:italic;font-variant:normal;font-size:9px;font-family:'Times New Roman';-inkscape-font-specification:Times-Italic;writing-mode:lr-tb;fill:#231f20;fill-opacity:1;fill-rule:nonzero;stroke:none"
           transform="matrix(1,0,0,-1,120.916,99.0395)"><tspan
             id="tspan70"
             y="0"
             x="0 2.997 7.4970002 11.997 14.499 17.000999 19.503 24.003">Ignition</tspan></text>
</g><path
         id="path74"
         style="fill:#ffffff;fill-opacity:1;fill-rule:evenodd;stroke:none"
         d="m 2761.91,1005.92 c 0,54.13 -110.17,98.07 -245.89,98.07 -135.77,0 -245.9,-43.94 -245.9,-98.07 0,-54.131 110.13,-98.065 245.9,-98.065 135.72,0 245.89,43.934 245.89,98.065" /><path
         id="path76"
         style="fill:none;stroke:#231f20;stroke-width:8.78199959;stroke-linecap:butt;stroke-linejoin:miter;stroke-miterlimit:10;stroke-dasharray:none;stroke-opacity:1"
         d="m 2761.91,1005.92 c 0,54.13 -110.17,98.07 -245.89,98.07 -135.77,0 -245.9,-43.94 -245.9,-98.07 0,-54.131 110.13,-98.065 245.9,-98.065 135.72,0 245.89,43.934 245.89,98.065" /><g
         transform="scale(10)"
         id="g78"><text
           id="text82"
           style="font-style:italic;font-variant:normal;font-size:9px;font-family:'Times New Roman';-inkscape-font-specification:Times-Italic;writing-mode:lr-tb;fill:#231f20;fill-opacity:1;fill-rule:nonzero;stroke:none"
           transform="matrix(1,0,0,-1,244.434,98.1145)"><tspan
             id="tspan80"
             y="0"
             x="0 6.4980001 10.998">Gas</tspan></text>
</g><path
         id="path84"
         style="fill:#ffffff;fill-opacity:1;fill-rule:evenodd;stroke:none"
         d="m 2186.34,601.359 c 0,54.133 -110.16,98.071 -245.9,98.071 -135.73,0 -245.89,-43.938 -245.89,-98.071 0,-54.136 110.16,-98.07 245.89,-98.07 135.74,0 245.9,43.934 245.9,98.07" /><path
         id="path86"
         style="fill:none;stroke:#231f20;stroke-width:8.78199959;stroke-linecap:butt;stroke-linejoin:miter;stroke-miterlimit:10;stroke-dasharray:none;stroke-opacity:1"
         d="m 2186.34,601.359 c 0,54.133 -110.16,98.071 -245.9,98.071 -135.73,0 -245.89,-43.938 -245.89,-98.071 0,-54.136 110.16,-98.07 245.89,-98.07 135.74,0 245.9,43.934 245.9,98.07" /><g
         transform="scale(10)"
         id="g88"><text
           id="text92"
           style="font-style:italic;font-variant:normal;font-size:9px;font-family:'Times New Roman';-inkscape-font-specification:Times-Italic;writing-mode:lr-tb;fill:#231f20;fill-opacity:1;fill-rule:nonzero;stroke:none"
           transform="matrix(1,0,0,-1,183.291,57.0824)"><tspan
             id="tspan90"
             y="0"
             x="0 4.5 7.0019999 11.502 15.003 17.504999">Starts</tspan></text>
</g><path
         id="path94"
         style="fill:#ffffff;fill-opacity:1;fill-rule:evenodd;stroke:none"
         d="m 2186.97,102.461 c 0,54.141 -110.15,98.078 -245.9,98.078 -135.73,0 -245.88,-43.937 -245.88,-98.078 0,-54.1329 110.15,-98.06256 245.88,-98.06256 135.75,0 245.9,43.92966 245.9,98.06256" /><path
         id="path96"
         style="fill:none;stroke:#231f20;stroke-width:8.78199959;stroke-linecap:butt;stroke-linejoin:miter;stroke-miterlimit:10;stroke-dasharray:none;stroke-opacity:1"
         d="m 2186.97,102.461 c 0,54.141 -110.15,98.078 -245.9,98.078 -135.73,0 -245.88,-43.937 -245.88,-98.078 0,-54.1329 110.15,-98.06256 245.88,-98.06256 135.75,0 245.9,43.92966 245.9,98.06256" /><g
         transform="scale(10)"
         id="g98"><text
           id="text102"
           style="font-style:italic;font-variant:normal;font-size:9px;font-family:'Times New Roman';-inkscape-font-specification:Times-Italic;writing-mode:lr-tb;fill:#231f20;fill-opacity:1;fill-rule:nonzero;stroke:none"
           transform="matrix(1,0,0,-1,181.698,7.69492)"><tspan
             id="tspan100"
             y="0"
             x="0 7.4970002 11.997 15.993 19.989">Moves</tspan></text>
</g></g></g></svg>