<?xml version="1.0" encoding="UTF-8" standalone="no"?>
<svg
   xmlns:dc="http://purl.org/dc/elements/1.1/"
   xmlns:cc="http://creativecommons.org/ns#"
   xmlns:rdf="http://www.w3.org/1999/02/22-rdf-syntax-ns#"
   xmlns:svg="http://www.w3.org/2000/svg"
   xmlns="http://www.w3.org/2000/svg"
   viewBox="0 0 344.51999 146.02667"
   height="146.02667"
   width="344.51999"
   xml:space="preserve"
   id="svg2"
   version="1.1"><metadata
     id="metadata8"><rdf:RDF><cc:Work
         rdf:about=""><dc:format>image/svg+xml</dc:format><dc:type
           rdf:resource="http://purl.org/dc/dcmitype/StillImage" /></cc:Work></rdf:RDF></metadata><defs
     id="defs6" /><g
     transform="matrix(1.3333333,0,0,-1.3333333,0,146.02667)"
     id="g10"><g
       transform="scale(0.1)"
       id="g12"><g
         transform="scale(10)"
         id="g14"><text
           id="text22"
           style="font-variant:normal;font-weight:normal;font-size:8px;font-family:'Times New Roman';-inkscape-font-specification:Times-Roman;writing-mode:lr-tb;fill:#231f20;fill-opacity:1;fill-rule:nonzero;stroke:none"
           transform="matrix(1,0,0,-1,135.881,3.74297)"><tspan
             id="tspan16"
             y="0"
             x="0 5.336 8.8879995 12.44 14.664 17.327999 19.552 23.104">Beatrice</tspan><tspan
             id="tspan18"
             y="-36.9473"
             x="-0.20273399 5.573266 9.573266 13.573266 16.237267 19.789267">Andrew</tspan><tspan
             id="tspan20"
             y="0"
             x="34.192966 39.080967 43.080967 47.080967 50.632965 54.632965 56.856964">Eugenie</tspan></text>
</g><path
         id="path24"
         style="fill:none;stroke:#231f20;stroke-width:4.93300009;stroke-linecap:butt;stroke-linejoin:miter;stroke-miterlimit:10;stroke-dasharray:none;stroke-opacity:1"
         d="M 1666.53,393.953 1486.46,130.137" /><path
         id="path26"
         style="fill:#231f20;fill-opacity:1;fill-rule:evenodd;stroke:none"
         d="m 1528.46,164.18 -47.74,-42.442 22.15,59.91" /><path
         id="path28"
         style="fill:none;stroke:#231f20;stroke-width:4.93300009;stroke-linecap:butt;stroke-linejoin:miter;stroke-miterlimit:10;stroke-dasharray:none;stroke-opacity:1"
         d="m 1668.73,397.129 180.09,-266.992 m -324.37,33.789 -37.99,-33.789 17.62,47.695" /><path
         id="path30"
         style="fill:#231f20;fill-opacity:1;fill-rule:evenodd;stroke:none"
         d="m 1832.7,181.738 21.8,-60.039 -47.49,42.715" /><path
         id="path32"
         style="fill:none;stroke:#231f20;stroke-width:4.93300009;stroke-linecap:butt;stroke-linejoin:miter;stroke-miterlimit:10;stroke-dasharray:none;stroke-opacity:1"
         d="m 1831.46,177.93 17.36,-47.793 -37.81,34.004" /><g
         transform="scale(10)"
         id="g34"><text
           id="text42"
           style="font-variant:normal;font-weight:normal;font-size:8px;font-family:'Times New Roman';-inkscape-font-specification:Times-Roman;writing-mode:lr-tb;fill:#231f20;fill-opacity:1;fill-rule:nonzero;stroke:none"
           transform="matrix(1,0,0,-1,16.6801,3.74297)"><tspan
             id="tspan36"
             y="0"
             x="0 7.552 9.776 12 14.224 16.448 20 31.572264 37.348263 40.900265 43.564262 46.228264">WilliamHarry</tspan><tspan
             id="tspan38"
             y="-36.7258"
             x="29.4512 34.787201 38.787201 42.339199 45.003201 47.2272 50.779202 1.2192 6.9952002 9.2192001 12.7712 16.7712">CharlesDiana</tspan><tspan
             id="tspan40"
             y="-99.121101"
             x="133.23219 140.34419 144.34419">Mum</tspan></text>
<text
           id="text46"
           style="font-variant:normal;font-weight:normal;font-size:8px;font-family:'Times New Roman';-inkscape-font-specification:TimesNewRomanPSMT;writing-mode:lr-tb;fill:#231f20;fill-opacity:1;fill-rule:nonzero;stroke:none"
           transform="matrix(1,0,0,-1,116.1193,102.86407)"><tspan
             id="tspan44"
             y="0"
             x="0 5.776 9.3280001 13.328 15.992 19.992001">George</tspan></text>
<text
           id="text50"
           style="font-variant:normal;font-weight:normal;font-size:8.00003052px;font-family:'Times New Roman';-inkscape-font-specification:Times-Roman;writing-mode:lr-tb;fill:#231f20;fill-opacity:1;fill-rule:nonzero;stroke:none"
           transform="matrix(0.999946,0.0104,0.0104,-0.999946,135.186,73.2172)"><tspan
             id="tspan48"
             y="0"
             x="0 4.4494538 8.4494686 10.672243 12.895029 15.117319">Philip</tspan></text>
<text
           id="text58"
           style="font-variant:normal;font-weight:normal;font-size:8px;font-family:'Times New Roman';-inkscape-font-specification:Times-Roman;writing-mode:lr-tb;fill:#231f20;fill-opacity:1;fill-rule:nonzero;stroke:none"
           transform="matrix(1,0,0,-1,93.9402,73.3523)"><tspan
             id="tspan52"
             y="0"
             x="0 4.888 7.112 9.3360004 12.888 16.440001 20.440001 23.992001 26.216">Elizabeth</tspan><tspan
             id="tspan54"
             y="-0.052343801"
             x="85.628899 92.740898 96.2929 98.956902 102.9569 106.5089 109.1729 112.7249">Margaret</tspan><tspan
             id="tspan56"
             y="0"
             x="-58.141102 -52.365101 -48.365101 -44.365101 -93.9403 -89.492302 -85.492302 -81.9403 -77.9403 -74.388298 -70.836304">KyddSpencer</tspan></text>
</g><path
         id="path60"
         style="fill:none;stroke:#231f20;stroke-width:4.93300009;stroke-linecap:butt;stroke-linejoin:miter;stroke-miterlimit:10;stroke-dasharray:none;stroke-opacity:1"
         d="M 1443.34,1014.34 1140.27,824.008" /><path
         id="path62"
         style="fill:#231f20;fill-opacity:1;fill-rule:evenodd;stroke:none"
         d="m 1192.38,838.438 -60.72,-19.84 44.24,46.078" /><path
         id="path64"
         style="fill:none;stroke:#231f20;stroke-width:4.93300009;stroke-linecap:butt;stroke-linejoin:miter;stroke-miterlimit:10;stroke-dasharray:none;stroke-opacity:1"
         d="m 1188.61,839.801 -48.34,-15.793 35.22,36.68" /><path
         id="path66"
         style="fill:none;stroke:#231f20;stroke-width:4.93300009;stroke-linecap:butt;stroke-linejoin:miter;stroke-miterlimit:10;stroke-dasharray:none;stroke-opacity:1"
         d="M 1443.34,1014.34 1867.18,824.008" /><path
         id="path68"
         style="fill:#231f20;fill-opacity:1;fill-rule:evenodd;stroke:none"
         d="m 1826.27,859.359 50.19,-39.515 -62.88,11.25" /><path
         id="path70"
         style="fill:none;stroke:#231f20;stroke-width:4.93300009;stroke-linecap:butt;stroke-linejoin:miter;stroke-miterlimit:10;stroke-dasharray:none;stroke-opacity:1"
         d="m 1827.23,855.469 39.95,-31.461 -50.05,8.957" /><path
         id="path72"
         style="fill:none;stroke:#231f20;stroke-width:4.93300009;stroke-linecap:butt;stroke-linejoin:miter;stroke-miterlimit:10;stroke-dasharray:none;stroke-opacity:1"
         d="M 1303.16,713.977 607.152,483.816" /><path
         id="path74"
         style="fill:#231f20;fill-opacity:1;fill-rule:evenodd;stroke:none"
         d="m 632.563,476.152 -63.254,-8.886 51.644,37.605" /><path
         id="path76"
         style="fill:none;stroke:#231f20;stroke-width:4.93300009;stroke-linecap:butt;stroke-linejoin:miter;stroke-miterlimit:10;stroke-dasharray:none;stroke-opacity:1"
         d="m 1306.36,720.75 182.5,-230.156" /><path
         id="path78"
         style="fill:#231f20;fill-opacity:1;fill-rule:evenodd;stroke:none"
         d="m 1482.29,524.727 24.98,-58.789 -49.71,40.101" /><path
         id="path80"
         style="fill:none;stroke:#231f20;stroke-width:4.93300009;stroke-linecap:butt;stroke-linejoin:miter;stroke-miterlimit:10;stroke-dasharray:none;stroke-opacity:1"
         d="M 1302.71,718.266 911.508,488.105" /><path
         id="path82"
         style="fill:#231f20;fill-opacity:1;fill-rule:evenodd;stroke:none"
         d="m 934.707,484.473 -61.988,-15.442 47.433,42.785" /><path
         id="path84"
         style="fill:none;stroke:#231f20;stroke-width:4.93300009;stroke-linecap:butt;stroke-linejoin:miter;stroke-miterlimit:10;stroke-dasharray:none;stroke-opacity:1"
         d="M 414.961,393.953 261.234,130.137" /><path
         id="path86"
         style="fill:#231f20;fill-opacity:1;fill-rule:evenodd;stroke:none"
         d="m 300.703,167.09 -44.586,-45.742 17.813,61.347" /><path
         id="path88"
         style="fill:none;stroke:#231f20;stroke-width:4.93300009;stroke-linecap:butt;stroke-linejoin:miter;stroke-miterlimit:10;stroke-dasharray:none;stroke-opacity:1"
         d="m 296.73,166.551 -35.496,-36.414 14.18,48.828" /><path
         id="path90"
         style="fill:none;stroke:#231f20;stroke-width:4.93300009;stroke-linecap:butt;stroke-linejoin:miter;stroke-miterlimit:10;stroke-dasharray:none;stroke-opacity:1"
         d="M 414.961,393.953 575.277,130.137" /><path
         id="path92"
         style="fill:#231f20;fill-opacity:1;fill-rule:evenodd;stroke:none"
         d="m 561.617,182.449 18.942,-61.004 -45.418,44.91" /><path
         id="path94"
         style="fill:none;stroke:#231f20;stroke-width:4.93300009;stroke-linecap:butt;stroke-linejoin:miter;stroke-miterlimit:10;stroke-dasharray:none;stroke-opacity:1"
         d="m 560.195,178.699 15.082,-48.562 -36.16,35.75" /><path
         id="path96"
         style="fill:none;stroke:#231f20;stroke-width:4.93300009;stroke-linecap:butt;stroke-linejoin:miter;stroke-miterlimit:10;stroke-dasharray:none;stroke-opacity:1"
         d="M 307.773,720.773 275.313,492.734" /><path
         id="path98"
         style="fill:#231f20;fill-opacity:1;fill-rule:evenodd;stroke:none"
         d="m 296.348,532.723 -22.309,-59.852 -8.48,63.309" /><path
         id="path100"
         style="fill:none;stroke:#231f20;stroke-width:4.93300009;stroke-linecap:butt;stroke-linejoin:miter;stroke-miterlimit:10;stroke-dasharray:none;stroke-opacity:1"
         d="M 1302.37,718.152 2026.44,479.637" /><path
         id="path102"
         style="fill:#231f20;fill-opacity:1;fill-rule:evenodd;stroke:none"
         d="m 1998.73,504.965 50.62,-38.942 -63,10.547" /><g
         transform="scale(10)"
         id="g104"><text
           id="text112"
           style="font-variant:normal;font-weight:normal;font-size:8px;font-family:'Times New Roman';-inkscape-font-specification:Times-Roman;writing-mode:lr-tb;fill:#231f20;fill-opacity:1;fill-rule:nonzero;stroke:none"
           transform="matrix(1,0,0,-1,78.6047,3.74297)"><tspan
             id="tspan106"
             y="0"
             x="0 4.448 8 10.224 13.776">Peter</tspan><tspan
             id="tspan108"
             y="-36.835899"
             x="28.801201 35.9132 39.465199 42.1292">Mark</tspan><tspan
             id="tspan110"
             y="0"
             x="35.573471 40.461472 44.01347 46.677471">Zara</tspan></text>
</g><path
         id="path114"
         style="fill:none;stroke:#231f20;stroke-width:4.93300009;stroke-linecap:butt;stroke-linejoin:miter;stroke-miterlimit:10;stroke-dasharray:none;stroke-opacity:1"
         d="M 1029.59,393.953 875.863,130.137" /><path
         id="path116"
         style="fill:#231f20;fill-opacity:1;fill-rule:evenodd;stroke:none"
         d="m 915.332,167.09 -44.586,-45.742 17.809,61.347" /><path
         id="path118"
         style="fill:none;stroke:#231f20;stroke-width:4.93300009;stroke-linecap:butt;stroke-linejoin:miter;stroke-miterlimit:10;stroke-dasharray:none;stroke-opacity:1"
         d="M 1029.59,393.953 1192.1,130.137 m -280.745,36.414 -35.492,-36.414 14.18,48.828" /><path
         id="path120"
         style="fill:#231f20;fill-opacity:1;fill-rule:evenodd;stroke:none"
         d="m 1178.12,182.363 19.31,-60.89 -45.69,44.64" /><path
         id="path122"
         style="fill:none;stroke:#231f20;stroke-width:4.93300009;stroke-linecap:butt;stroke-linejoin:miter;stroke-miterlimit:10;stroke-dasharray:none;stroke-opacity:1"
         d="m 1176.74,178.602 15.36,-48.465 -36.38,35.535" /><g
         transform="scale(10)"
         id="g124"><text
           id="text132"
           style="font-variant:normal;font-weight:normal;font-size:8px;font-family:'Times New Roman';-inkscape-font-specification:Times-Roman;writing-mode:lr-tb;fill:#231f20;fill-opacity:1;fill-rule:nonzero;stroke:none"
           transform="matrix(1,0,0,-1,80.7457,40.5789)"><tspan
             id="tspan126"
             y="0"
             x="0 5.776 9.776 13.776">Anne</tspan><tspan
             id="tspan128"
             y="-0.111328"
             x="90.434402 94.882401 98.434402 101.0984 104.6504">Sarah</tspan><tspan
             id="tspan130"
             y="0"
             x="117.8555 122.7435 126.7435 132.5195 136.0715 138.7355">Edward</tspan></text>
</g><path
         id="path134"
         style="fill:#ffffff;fill-opacity:1;fill-rule:nonzero;stroke:none"
         d="m 1424.16,1077.01 v -45.05 l 47.42,45.16 v -44.82 l -47.42,44.71" /><path
         id="path136"
         style="fill:none;stroke:#231f20;stroke-width:7.5;stroke-linecap:butt;stroke-linejoin:miter;stroke-miterlimit:4;stroke-dasharray:none;stroke-opacity:1"
         d="m 1424.16,1077.01 v -45.05 l 47.42,45.16 v -44.82 z" /><path
         id="path138"
         style="fill:#ffffff;fill-opacity:1;fill-rule:nonzero;stroke:none"
         d="M 284.109,781.895 V 736.84 l 47.43,45.168 V 737.18 l -47.43,44.715" /><path
         id="path140"
         style="fill:none;stroke:#231f20;stroke-width:7.5;stroke-linecap:butt;stroke-linejoin:miter;stroke-miterlimit:4;stroke-dasharray:none;stroke-opacity:1"
         d="M 284.109,781.895 V 736.84 l 47.43,45.168 V 737.18 Z" /><path
         id="path142"
         style="fill:#ffffff;fill-opacity:1;fill-rule:nonzero;stroke:none"
         d="M 1272.68,781.895 V 736.84 l 47.42,45.168 V 737.18 l -47.42,44.715" /><path
         id="path144"
         style="fill:none;stroke:#231f20;stroke-width:7.5;stroke-linecap:butt;stroke-linejoin:miter;stroke-miterlimit:4;stroke-dasharray:none;stroke-opacity:1"
         d="M 1272.68,781.895 V 736.84 l 47.42,45.168 V 737.18 Z" /><path
         id="path146"
         style="fill:#ffffff;fill-opacity:1;fill-rule:nonzero;stroke:none"
         d="m 391.949,453.055 v -45.059 l 47.426,45.168 V 408.34 l -47.426,44.715" /><path
         id="path148"
         style="fill:none;stroke:#231f20;stroke-width:7.5;stroke-linecap:butt;stroke-linejoin:miter;stroke-miterlimit:4;stroke-dasharray:none;stroke-opacity:1"
         d="m 391.949,453.055 v -45.059 l 47.426,45.168 V 408.34 Z" /><path
         id="path150"
         style="fill:#ffffff;fill-opacity:1;fill-rule:nonzero;stroke:none"
         d="m 1003.69,454.168 v -45.059 l 47.42,45.168 v -44.824 l -47.42,44.715" /><path
         id="path152"
         style="fill:none;stroke:#231f20;stroke-width:7.5;stroke-linecap:butt;stroke-linejoin:miter;stroke-miterlimit:4;stroke-dasharray:none;stroke-opacity:1"
         d="m 1003.69,454.168 v -45.059 l 47.42,45.168 v -44.824 z" /><path
         id="path154"
         style="fill:#ffffff;fill-opacity:1;fill-rule:nonzero;stroke:none"
         d="m 1639.41,455.281 v -45.058 l 47.45,45.168 v -44.825 l -47.45,44.715" /><path
         id="path156"
         style="fill:none;stroke:#231f20;stroke-width:7.5;stroke-linecap:butt;stroke-linejoin:miter;stroke-miterlimit:4;stroke-dasharray:none;stroke-opacity:1"
         d="m 1639.41,455.281 v -45.058 l 47.45,45.168 v -44.825 z" /><path
         id="path158"
         style="fill:#ffffff;fill-opacity:1;fill-rule:nonzero;stroke:none"
         d="m 2259.41,455.281 v -45.058 l 47.45,45.168 v -44.825 l -47.45,44.715" /><path
         id="path160"
         style="fill:none;stroke:#231f20;stroke-width:7.5;stroke-linecap:butt;stroke-linejoin:miter;stroke-miterlimit:4;stroke-dasharray:none;stroke-opacity:1"
         d="m 2259.41,455.281 v -45.058 l 47.45,45.168 v -44.825 z" /><g
         transform="scale(10)"
         id="g162"><text
           id="text170"
           style="font-variant:normal;font-weight:normal;font-size:8px;font-family:'Times New Roman';-inkscape-font-specification:Times-Roman;writing-mode:lr-tb;fill:#231f20;fill-opacity:1;fill-rule:nonzero;stroke:none"
           transform="matrix(1,0,0,-1,233.601,40.2129)"><tspan
             id="tspan164"
             y="0"
             x="0 4.448 8.448 12.448 16.448 18.672001">Sophie</tspan><tspan
             id="tspan166"
             y="36.786701"
             x="-27.959 -23.070999 -19.070999 -15.071 -12.847 -9.7349997">Louise</tspan><tspan
             id="tspan168"
             y="36.286701"
             x="5.2340002 8.3459997 11.898 18.122 21.674">James</tspan></text>
</g><path
         id="path172"
         style="fill:none;stroke:#231f20;stroke-width:4.93300009;stroke-linecap:butt;stroke-linejoin:miter;stroke-miterlimit:10;stroke-dasharray:none;stroke-opacity:1"
         d="M 2289.14,390.781 2171.02,129.746" /><path
         id="path174"
         style="fill:#231f20;fill-opacity:1;fill-rule:evenodd;stroke:none"
         d="m 2202.38,166.355 -36.19,-52.636 7.17,63.476" /><path
         id="path176"
         style="fill:none;stroke:#231f20;stroke-width:4.93300009;stroke-linecap:butt;stroke-linejoin:miter;stroke-miterlimit:10;stroke-dasharray:none;stroke-opacity:1"
         d="M 2291.34,393.953 2471.43,126.961" /><path
         id="path178"
         style="fill:#231f20;fill-opacity:1;fill-rule:evenodd;stroke:none"
         d="m 2455.3,178.563 21.81,-60.04 -47.49,42.715" /><path
         id="path180"
         style="fill:none;stroke:#231f20;stroke-width:4.93300009;stroke-linecap:butt;stroke-linejoin:miter;stroke-miterlimit:10;stroke-dasharray:none;stroke-opacity:1"
         d="m 2454.06,174.754 17.37,-47.793 -37.82,34.004" /></g></g></svg>