<?xml version="1.0" encoding="UTF-8" standalone="no"?>
<svg
   xmlns:dc="http://purl.org/dc/elements/1.1/"
   xmlns:cc="http://creativecommons.org/ns#"
   xmlns:rdf="http://www.w3.org/1999/02/22-rdf-syntax-ns#"
   xmlns:svg="http://www.w3.org/2000/svg"
   xmlns="http://www.w3.org/2000/svg"
   viewBox="0 0 408.22668 206.13333"
   height="206.13333"
   width="408.22668"
   xml:space="preserve"
   id="svg2"
   version="1.1"><metadata
     id="metadata8"><rdf:RDF><cc:Work
         rdf:about=""><dc:format>image/svg+xml</dc:format><dc:type
           rdf:resource="http://purl.org/dc/dcmitype/StillImage" /></cc:Work></rdf:RDF></metadata><defs
     id="defs6" /><g
     transform="matrix(1.3333333,0,0,-1.3333333,0,206.13333)"
     id="g10"><g
       transform="scale(0.1)"
       id="g12"><path
         id="path14"
         style="fill:none;stroke:#231f20;stroke-width:10;stroke-linecap:butt;stroke-linejoin:miter;stroke-miterlimit:10;stroke-dasharray:none;stroke-opacity:1"
         d="M 1255.16,585.992 1073.1,1214.09 909.242,585.992 Z m 337.04,206.766 123.9,-571.188 263.34,248.981 z m 286.51,-120.293 v 819.265 h 523.41 V 672.465 Z M 281.148,26.1602 V 422.141 H 1532.79 V 26.1602 Z M 221.973,717.98 656.637,617.848 893.313,1136.71 602.016,1537.24 146.875,1127.61 Z M 2677.48,444.898 2679.76,133.121 2424.87,5.67969 2179.1,151.328 v 291.293 l 282.19,191.16 z M 2661.84,1505.6 2807.69,1350.64 2734.77,584.961 2470.41,1387.1 Z m -1071.24,31.73 218.78,-227.89 -528.71,-309.92 v 501.34 z" /><g
         transform="scale(10)"
         id="g16"><text
           id="text22"
           style="font-variant:normal;font-weight:bold;font-size:12px;font-family:Helvetica;-inkscape-font-specification:Helvetica-Bold;writing-mode:lr-tb;fill:#231f20;fill-opacity:1;fill-rule:nonzero;stroke:none"
           transform="matrix(1,0,0,-1,0,16.777)"><tspan
             id="tspan18"
             y="0"
             x="0">S</tspan><tspan
             id="tspan20"
             y="-127.5"
             x="296.83499">G</tspan></text>
</g><path
         id="path24"
         style="fill:#231f20;fill-opacity:1;fill-rule:nonzero;stroke:none"
         d="m 182.52,204.059 c 0,-9.668 -7.836,-17.5 -17.5,-17.5 -9.665,0 -17.5,7.832 -17.5,17.5 0,9.671 7.835,17.5 17.5,17.5 9.664,0 17.5,-7.829 17.5,-17.5" /><path
         id="path26"
         style="fill:#231f20;fill-opacity:1;fill-rule:nonzero;stroke:none"
         d="m 2897.52,1479.07 c 0,-9.67 -7.83,-17.5 -17.5,-17.5 -9.67,0 -17.5,7.83 -17.5,17.5 0,9.66 7.83,17.5 17.5,17.5 9.67,0 17.5,-7.84 17.5,-17.5" /></g></g></svg>