<?xml version="1.0" encoding="UTF-8" standalone="no"?>
<svg
   xmlns:dc="http://purl.org/dc/elements/1.1/"
   xmlns:cc="http://creativecommons.org/ns#"
   xmlns:rdf="http://www.w3.org/1999/02/22-rdf-syntax-ns#"
   xmlns:svg="http://www.w3.org/2000/svg"
   xmlns="http://www.w3.org/2000/svg"
   viewBox="0 0 143.09332 54.706669"
   height="54.706669"
   width="143.09332"
   xml:space="preserve"
   id="svg2"
   version="1.1"><metadata
     id="metadata8"><rdf:RDF><cc:Work
         rdf:about=""><dc:format>image/svg+xml</dc:format><dc:type
           rdf:resource="http://purl.org/dc/dcmitype/StillImage" /></cc:Work></rdf:RDF></metadata><defs
     id="defs6" /><g
     transform="matrix(1.3333333,0,0,-1.3333333,0,54.706667)"
     id="g10"><g
       transform="scale(0.1)"
       id="g12"><path
         id="path14"
         style="fill:none;stroke:#231f20;stroke-width:9.06900024;stroke-linecap:butt;stroke-linejoin:miter;stroke-miterlimit:10;stroke-dasharray:none;stroke-opacity:1"
         d="M 270.57,139.73 V 405.766 H 536.602 V 139.73 Z m 266.032,0 V 405.766 H 802.641 V 139.73 Z m 266.039,0 V 405.766 H 1068.67 V 139.73 Z m -798.10584,0 V 405.766 H 270.57 V 139.73 Z" /><path
         id="path16"
         style="fill:#a7a5a6;fill-opacity:1;fill-rule:evenodd;stroke:none"
         d="m 236.992,272.441 c 0,53.403 -43.336,96.743 -96.738,96.743 -53.3985,0 -96.7384,-43.34 -96.7384,-96.743 0,-53.398 43.3399,-96.734 96.7384,-96.734 53.402,0 96.738,43.336 96.738,96.734 v 0" /><g
         transform="scale(10)"
         id="g18"><text
           id="text22"
           style="font-variant:normal;font-weight:bold;font-size:12.69709969px;font-family:Helvetica;-inkscape-font-specification:Helvetica-Bold;writing-mode:lr-tb;fill:#ffffff;fill-opacity:1;fill-rule:nonzero;stroke:none"
           transform="matrix(1,0,0,-1,9.44063,22.4195)"><tspan
             id="tspan20"
             y="0"
             x="0">A</tspan></text>
</g><path
         id="path24"
         style="fill:#a7a5a6;fill-opacity:1;fill-rule:evenodd;stroke:none"
         d="m 1032.6,272.441 c 0,53.403 -43.338,96.743 -96.737,96.743 -53.406,0 -96.738,-43.34 -96.738,-96.743 0,-53.398 43.332,-96.734 96.738,-96.734 53.399,0 96.737,43.336 96.737,96.734 v 0" /><g
         transform="scale(10)"
         id="g26"><text
           id="text30"
           style="font-variant:normal;font-weight:bold;font-size:12.69709969px;font-family:Helvetica;-inkscape-font-specification:Helvetica-Bold;writing-mode:lr-tb;fill:#ffffff;fill-opacity:1;fill-rule:nonzero;stroke:none"
           transform="matrix(1,0,0,-1,89.4848,22.4195)"><tspan
             id="tspan28"
             y="0"
             x="0">B</tspan></text>
</g><g
         transform="scale(10)"
         id="g32"><text
           id="text36"
           style="font-variant:normal;font-weight:normal;font-size:8px;font-family:Helvetica;-inkscape-font-specification:Helvetica;writing-mode:lr-tb;fill:#231f20;fill-opacity:1;fill-rule:nonzero;stroke:none"
           transform="matrix(1,0,0,-1,11.5023,3.84766)"><tspan
             id="tspan34"
             y="0"
             x="0 79.75 53.166401 26.583599">1432</tspan></text>
</g></g></g></svg>