<?xml version="1.0" encoding="UTF-8" standalone="no"?>
<svg
   xmlns:dc="http://purl.org/dc/elements/1.1/"
   xmlns:cc="http://creativecommons.org/ns#"
   xmlns:rdf="http://www.w3.org/1999/02/22-rdf-syntax-ns#"
   xmlns:svg="http://www.w3.org/2000/svg"
   xmlns="http://www.w3.org/2000/svg"
   viewBox="0 0 205.85333 210.98666"
   height="210.98666"
   width="205.85333"
   xml:space="preserve"
   id="svg2"
   version="1.1"><metadata
     id="metadata8"><rdf:RDF><cc:Work
         rdf:about=""><dc:format>image/svg+xml</dc:format><dc:type
           rdf:resource="http://purl.org/dc/dcmitype/StillImage" /></cc:Work></rdf:RDF></metadata><defs
     id="defs6" /><g
     transform="matrix(1.3333333,0,0,-1.3333333,0,210.98667)"
     id="g10"><g
       transform="scale(0.1)"
       id="g12"><path
         id="path14"
         style="fill:none;stroke:#231f20;stroke-width:5;stroke-linecap:butt;stroke-linejoin:miter;stroke-miterlimit:10;stroke-dasharray:none;stroke-opacity:1"
         d="M 838.074,899.094 V 736.16" /><path
         id="path16"
         style="fill:#231f20;fill-opacity:1;fill-rule:evenodd;stroke:none"
         d="m 851.555,779.266 -13.481,-59.297 -13.472,59.297" /><path
         id="path18"
         style="fill:none;stroke:#231f20;stroke-width:5;stroke-linecap:butt;stroke-linejoin:miter;stroke-miterlimit:10;stroke-dasharray:none;stroke-opacity:1"
         d="M 484.691,969.469 H 750.172" /><path
         id="path20"
         style="fill:#231f20;fill-opacity:1;fill-rule:evenodd;stroke:none"
         d="m 707.074,982.945 59.309,-13.476 -59.309,-13.477" /><path
         id="path22"
         style="fill:none;stroke:#231f20;stroke-width:5;stroke-linecap:butt;stroke-linejoin:miter;stroke-miterlimit:10;stroke-dasharray:none;stroke-opacity:1"
         d="M 1199.27,969.469 H 948.484" /><path
         id="path24"
         style="fill:#231f20;fill-opacity:1;fill-rule:evenodd;stroke:none"
         d="m 966.57,955.992 -59.304,13.477 59.304,13.476" /><path
         id="path26"
         style="fill:none;stroke:#231f20;stroke-width:5;stroke-linecap:butt;stroke-linejoin:miter;stroke-miterlimit:10;stroke-dasharray:none;stroke-opacity:1"
         d="M 414.691,969.469 781.625,715.438" /><path
         id="path28"
         style="fill:#231f20;fill-opacity:1;fill-rule:evenodd;stroke:none"
         d="m 753.855,751.051 41.09,-44.844 -56.429,22.688" /><path
         id="path30"
         style="fill:none;stroke:#231f20;stroke-width:5;stroke-linecap:butt;stroke-linejoin:miter;stroke-miterlimit:10;stroke-dasharray:none;stroke-opacity:1"
         d="M 1261.46,969.469 894.531,715.438 m -140.277,29.871 27.371,-29.871 -37.598,15.105" /><path
         id="path32"
         style="fill:#231f20;fill-opacity:1;fill-rule:evenodd;stroke:none"
         d="m 937.637,728.895 -56.438,-22.688 41.098,44.844" /><path
         id="path34"
         style="fill:none;stroke:#231f20;stroke-width:5;stroke-linecap:butt;stroke-linejoin:miter;stroke-miterlimit:10;stroke-dasharray:none;stroke-opacity:1"
         d="M 838.074,630.77 V 404.949 m 94.043,325.594 -37.586,-15.105 27.371,29.871" /><path
         id="path36"
         style="fill:#231f20;fill-opacity:1;fill-rule:evenodd;stroke:none"
         d="m 851.555,448.051 -13.481,-59.289 -13.472,59.289" /><path
         id="path38"
         style="fill:none;stroke:#231f20;stroke-width:5;stroke-linecap:butt;stroke-linejoin:miter;stroke-miterlimit:10;stroke-dasharray:none;stroke-opacity:1"
         d="m 847.063,444.461 -8.989,-39.512 -8.972,39.512" /><path
         id="path40"
         style="fill:#ffffff;fill-opacity:1;fill-rule:evenodd;stroke:none"
         d="m 486.371,978.453 c 0,38.847 -31.527,70.367 -70.375,70.367 -38.848,0 -70.375,-31.52 -70.375,-70.367 0,-38.851 31.527,-70.375 70.375,-70.375 38.848,0 70.375,31.524 70.375,70.375 v 0" /><path
         id="path42"
         style="fill:none;stroke:#231f20;stroke-width:5;stroke-linecap:butt;stroke-linejoin:miter;stroke-miterlimit:10;stroke-dasharray:none;stroke-opacity:1"
         d="m 486.371,978.453 c 0,38.847 -31.527,70.367 -70.375,70.367 -38.848,0 -70.375,-31.52 -70.375,-70.367 0,-38.851 31.527,-70.375 70.375,-70.375 38.848,0 70.375,31.524 70.375,70.375 z" /><g
         transform="scale(10)"
         id="g44"><text
           id="text48"
           style="font-style:italic;font-variant:normal;font-size:10.05650043px;font-family:'Times New Roman';-inkscape-font-specification:Times-Italic;writing-mode:lr-tb;fill:#231f20;fill-opacity:1;fill-rule:nonzero;stroke:none"
           transform="matrix(1,0,0,-1,38.384,94.2496)"><tspan
             id="tspan46"
             y="0"
             x="0">B</tspan></text>
</g><path
         id="path50"
         style="fill:#ffffff;fill-opacity:1;fill-rule:evenodd;stroke:none"
         d="m 907.688,969.469 c 0,38.851 -31.536,70.381 -70.383,70.381 -38.848,0 -70.375,-31.53 -70.375,-70.381 0,-38.848 31.527,-70.375 70.375,-70.375 38.847,0 70.383,31.527 70.383,70.375 v 0" /><path
         id="path52"
         style="fill:none;stroke:#231f20;stroke-width:5;stroke-linecap:butt;stroke-linejoin:miter;stroke-miterlimit:10;stroke-dasharray:none;stroke-opacity:1"
         d="m 907.688,969.469 c 0,38.851 -31.536,70.381 -70.383,70.381 -38.848,0 -70.375,-31.53 -70.375,-70.381 0,-38.848 31.527,-70.375 70.375,-70.375 38.847,0 70.383,31.527 70.383,70.375 z" /><g
         transform="scale(10)"
         id="g54"><text
           id="text58"
           style="font-style:italic;font-variant:normal;font-size:10.05650043px;font-family:'Times New Roman';-inkscape-font-specification:Times-Italic;writing-mode:lr-tb;fill:#231f20;fill-opacity:1;fill-rule:nonzero;stroke:none"
           transform="matrix(1,0,0,-1,81.8422,93.8063)"><tspan
             id="tspan56"
             y="0"
             x="0">I</tspan></text>
</g><path
         id="path60"
         style="fill:#ffffff;fill-opacity:1;fill-rule:evenodd;stroke:none"
         d="m 1340.02,970.645 c 0,38.845 -31.52,70.375 -70.37,70.375 -38.85,0 -70.38,-31.53 -70.38,-70.375 0,-38.844 31.53,-70.375 70.38,-70.375 38.85,0 70.37,31.531 70.37,70.375 v 0" /><path
         id="path62"
         style="fill:none;stroke:#231f20;stroke-width:5;stroke-linecap:butt;stroke-linejoin:miter;stroke-miterlimit:10;stroke-dasharray:none;stroke-opacity:1"
         d="m 1340.02,970.645 c 0,38.845 -31.52,70.375 -70.37,70.375 -38.85,0 -70.38,-31.53 -70.38,-70.375 0,-38.844 31.53,-70.375 70.38,-70.375 38.85,0 70.37,31.531 70.37,70.375 z" /><g
         transform="scale(10)"
         id="g64"><text
           id="text68"
           style="font-style:italic;font-variant:normal;font-size:10.05650043px;font-family:'Times New Roman';-inkscape-font-specification:Times-Italic;writing-mode:lr-tb;fill:#231f20;fill-opacity:1;fill-rule:nonzero;stroke:none"
           transform="matrix(1,0,0,-1,122.406,94.2336)"><tspan
             id="tspan66"
             y="0"
             x="0">M</tspan></text>
</g><path
         id="path70"
         style="fill:#ffffff;fill-opacity:1;fill-rule:evenodd;stroke:none"
         d="m 911.105,649.547 c 0,38.848 -31.542,70.383 -70.39,70.383 -38.844,0 -70.371,-31.535 -70.371,-70.383 0,-38.848 31.527,-70.375 70.371,-70.375 38.848,0 70.39,31.527 70.39,70.375 v 0" /><path
         id="path72"
         style="fill:none;stroke:#231f20;stroke-width:5;stroke-linecap:butt;stroke-linejoin:miter;stroke-miterlimit:10;stroke-dasharray:none;stroke-opacity:1"
         d="m 911.105,649.547 c 0,38.848 -31.542,70.383 -70.39,70.383 -38.844,0 -70.371,-31.535 -70.371,-70.383 0,-38.848 31.527,-70.375 70.371,-70.375 38.848,0 70.39,31.527 70.39,70.375 z" /><g
         transform="scale(10)"
         id="g74"><text
           id="text78"
           style="font-style:italic;font-variant:normal;font-size:10.05650043px;font-family:'Times New Roman';-inkscape-font-specification:Times-Italic;writing-mode:lr-tb;fill:#231f20;fill-opacity:1;fill-rule:nonzero;stroke:none"
           transform="matrix(1,0,0,-1,80.1863,61.243)"><tspan
             id="tspan76"
             y="0"
             x="0">G</tspan></text>
</g><path
         id="path80"
         style="fill:#ffffff;fill-opacity:1;fill-rule:evenodd;stroke:none"
         d="m 907.688,318.59 c 0,38.851 -31.536,70.379 -70.383,70.379 -38.848,0 -70.375,-31.528 -70.375,-70.379 0,-38.852 31.527,-70.371 70.375,-70.371 38.847,0 70.383,31.519 70.383,70.371 v 0" /><path
         id="path82"
         style="fill:none;stroke:#231f20;stroke-width:5;stroke-linecap:butt;stroke-linejoin:miter;stroke-miterlimit:10;stroke-dasharray:none;stroke-opacity:1"
         d="m 907.688,318.59 c 0,38.851 -31.536,70.379 -70.383,70.379 -38.848,0 -70.375,-31.528 -70.375,-70.379 0,-38.852 31.527,-70.371 70.375,-70.371 38.847,0 70.383,31.519 70.383,70.371 z" /><g
         transform="scale(10)"
         id="g84"><text
           id="text88"
           style="font-style:italic;font-variant:normal;font-size:10.05650043px;font-family:'Times New Roman';-inkscape-font-specification:Times-Italic;writing-mode:lr-tb;fill:#231f20;fill-opacity:1;fill-rule:nonzero;stroke:none"
           transform="matrix(1,0,0,-1,81.3926,28.391)"><tspan
             id="tspan86"
             y="0"
             x="0">J</tspan></text>
</g><path
         id="path90"
         style="fill:#ffffff;fill-opacity:1;fill-rule:evenodd;stroke:none"
         d="m 150.172,1041.02 v 215.3 h 180.641 v -215.3 H 150.172" /><path
         id="path92"
         style="fill:none;stroke:#231f20;stroke-width:5;stroke-linecap:butt;stroke-linejoin:miter;stroke-miterlimit:10;stroke-dasharray:none;stroke-opacity:1"
         d="m 150.172,1041.02 v 215.3 h 180.641 v -215.3 z" /><g
         transform="scale(10)"
         id="g94"><text
           id="text98"
           style="font-style:italic;font-variant:normal;font-size:6.90171003px;font-family:'Times New Roman';-inkscape-font-specification:TimesNewRomanPS-ItalicMT;writing-mode:lr-tb;fill:#231f20;fill-opacity:1;fill-rule:nonzero;stroke:none"
           transform="matrix(1,0,0,-1,17.4055,119.189)"><tspan
             id="tspan96"
             y="0"
             x="0">P</tspan></text>
<text
           id="text102"
           style="font-variant:normal;font-weight:normal;font-size:6.90171003px;font-family:'Times New Roman';-inkscape-font-specification:TimesNewRomanPSMT;writing-mode:lr-tb;fill:#231f20;fill-opacity:1;fill-rule:nonzero;stroke:none"
           transform="matrix(1,0,0,-1,21.62113,119.189)"><tspan
             id="tspan100"
             y="0"
             x="0">(</tspan></text>
<text
           id="text106"
           style="font-style:italic;font-variant:normal;font-size:6.90171003px;font-family:'Times New Roman';-inkscape-font-specification:TimesNewRomanPS-ItalicMT;writing-mode:lr-tb;fill:#231f20;fill-opacity:1;fill-rule:nonzero;stroke:none"
           transform="matrix(1,0,0,-1,23.91957,119.189)"><tspan
             id="tspan104"
             y="0"
             x="0">B</tspan></text>
<text
           id="text110"
           style="font-variant:normal;font-weight:normal;font-size:6.90171003px;font-family:'Times New Roman';-inkscape-font-specification:TimesNewRomanPSMT;writing-mode:lr-tb;fill:#231f20;fill-opacity:1;fill-rule:nonzero;stroke:none"
           transform="matrix(1,0,0,-1,28.27348,119.189)"><tspan
             id="tspan108"
             y="0"
             x="0">)</tspan></text>
<text
           id="text114"
           style="font-variant:normal;font-weight:normal;font-size:7.47053003px;font-family:'Times New Roman';-inkscape-font-specification:Times-Roman;writing-mode:lr-tb;fill:#231f20;fill-opacity:1;fill-rule:nonzero;stroke:none"
           transform="matrix(1,0,0,-1,20.78051,107.4011)"><tspan
             id="tspan112"
             y="0"
             x="0 1.8676325">.9</tspan></text>
</g><path
         id="path116"
         style="fill:#ffffff;fill-opacity:1;fill-rule:evenodd;stroke:none"
         d="m 613.594,1115.72 v 464.15 H 1061.08 V 1115.72 H 613.594" /><path
         id="path118"
         style="fill:none;stroke:#231f20;stroke-width:5;stroke-linecap:butt;stroke-linejoin:miter;stroke-miterlimit:10;stroke-dasharray:none;stroke-opacity:1"
         d="m 613.594,1115.72 v 464.15 h 447.486 v -464.15 z" /><g
         transform="scale(10)"
         id="g120"><text
           id="text124"
           style="font-style:italic;font-variant:normal;font-size:6.90171003px;font-family:'Times New Roman';-inkscape-font-specification:TimesNewRomanPS-ItalicMT;writing-mode:lr-tb;fill:#231f20;fill-opacity:1;fill-rule:nonzero;stroke:none"
           transform="matrix(1,0,0,-1,65.484,149.777)"><tspan
             id="tspan122"
             y="0"
             x="0 4.2169447 7.6677999 13.416924 23.768471">B M P</tspan></text>
<text
           id="text128"
           style="font-variant:normal;font-weight:normal;font-size:6.90171003px;font-family:'Times New Roman';-inkscape-font-specification:TimesNewRomanPSMT;writing-mode:lr-tb;fill:#231f20;fill-opacity:1;fill-rule:nonzero;stroke:none"
           transform="matrix(1,0,0,-1,93.468,149.777)"><tspan
             id="tspan126"
             y="0"
             x="0">(</tspan></text>
<text
           id="text132"
           style="font-style:italic;font-variant:normal;font-size:6.90171003px;font-family:'Times New Roman';-inkscape-font-specification:TimesNewRomanPS-ItalicMT;writing-mode:lr-tb;fill:#231f20;fill-opacity:1;fill-rule:nonzero;stroke:none"
           transform="matrix(1,0,0,-1,96.18089,149.777)"><tspan
             id="tspan130"
             y="0"
             x="0">I</tspan></text>
<text
           id="text136"
           style="font-variant:normal;font-weight:normal;font-size:6.90171003px;font-family:'Times New Roman';-inkscape-font-specification:TimesNewRomanPSMT;writing-mode:lr-tb;fill:#231f20;fill-opacity:1;fill-rule:nonzero;stroke:none"
           transform="matrix(1,0,0,-1,99.30667,149.777)"><tspan
             id="tspan134"
             y="0"
             x="0">)</tspan></text>
<text
           id="text146"
           style="font-variant:normal;font-weight:normal;font-size:7.47053003px;font-family:'Times New Roman';-inkscape-font-specification:Times-Roman;writing-mode:lr-tb;fill:#231f20;fill-opacity:1;fill-rule:nonzero;stroke:none"
           transform="matrix(1,0,0,-1,91.595555,138.2997)"><tspan
             id="tspan138"
             y="0"
             x="0 1.8676325">.9</tspan><tspan
             id="tspan140"
             y="7.4777298"
             x="-33.617386 0 1.8676325"> .5</tspan><tspan
             id="tspan142"
             y="14.94921"
             x="-33.617386 0 1.8676325"> .5</tspan><tspan
             id="tspan144"
             y="22.420691"
             x="-33.617386 0 1.8676325"> .1</tspan></text>
</g><path
         id="path148"
         style="fill:none;stroke:#231f20;stroke-width:5;stroke-linecap:butt;stroke-linejoin:miter;stroke-miterlimit:10;stroke-dasharray:none;stroke-opacity:1"
         d="M 613.594,1465.35 H 1061.08" /><path
         id="path150"
         style="fill:none;stroke:#231f20;stroke-width:5;stroke-linecap:butt;stroke-linejoin:miter;stroke-miterlimit:10;stroke-dasharray:none;stroke-opacity:1"
         d="M 839.395,1577.37 V 1118.32" /><path
         id="path152"
         style="fill:#ffffff;fill-opacity:1;fill-rule:evenodd;stroke:none"
         d="M 1323.49,154.328 V 424.699 H 973.484 V 154.328 h 350.006" /><path
         id="path154"
         style="fill:none;stroke:#231f20;stroke-width:5;stroke-linecap:butt;stroke-linejoin:miter;stroke-miterlimit:10;stroke-dasharray:none;stroke-opacity:1"
         d="M 1323.49,154.328 V 424.699 H 973.484 V 154.328 Z" /><path
         id="path156"
         style="fill:none;stroke:#231f20;stroke-width:5;stroke-linecap:butt;stroke-linejoin:miter;stroke-miterlimit:10;stroke-dasharray:none;stroke-opacity:1"
         d="M 1116.67,424.699 V 154.328" /><path
         id="path158"
         style="fill:none;stroke:#231f20;stroke-width:5;stroke-linecap:butt;stroke-linejoin:miter;stroke-miterlimit:10;stroke-dasharray:none;stroke-opacity:1"
         d="M 973.484,334.68 H 1323.49" /><g
         transform="scale(10)"
         id="g160"><text
           id="text164"
           style="font-style:italic;font-variant:normal;font-size:6.90171003px;font-family:'Times New Roman';-inkscape-font-specification:TimesNewRomanPS-ItalicMT;writing-mode:lr-tb;fill:#231f20;fill-opacity:1;fill-rule:nonzero;stroke:none"
           transform="matrix(1,0,0,-1,101.247,36.148)"><tspan
             id="tspan162"
             y="0"
             x="0 15.090244">GP</tspan></text>
<text
           id="text168"
           style="font-variant:normal;font-weight:normal;font-size:6.90171003px;font-family:'Times New Roman';-inkscape-font-specification:TimesNewRomanPSMT;writing-mode:lr-tb;fill:#231f20;fill-opacity:1;fill-rule:nonzero;stroke:none"
           transform="matrix(1,0,0,-1,120.5532,36.148)"><tspan
             id="tspan166"
             y="0"
             x="0">(</tspan></text>
<text
           id="text172"
           style="font-style:italic;font-variant:normal;font-size:6.90171003px;font-family:'Times New Roman';-inkscape-font-specification:TimesNewRomanPS-ItalicMT;writing-mode:lr-tb;fill:#231f20;fill-opacity:1;fill-rule:nonzero;stroke:none"
           transform="matrix(1,0,0,-1,122.85125,36.148)"><tspan
             id="tspan170"
             y="0"
             x="0">J</tspan></text>
<text
           id="text176"
           style="font-variant:normal;font-weight:normal;font-size:6.90171003px;font-family:'Times New Roman';-inkscape-font-specification:TimesNewRomanPSMT;writing-mode:lr-tb;fill:#231f20;fill-opacity:1;fill-rule:nonzero;stroke:none"
           transform="matrix(1,0,0,-1,125.91414,36.148)"><tspan
             id="tspan174"
             y="0"
             x="0">)</tspan></text>
<text
           id="text182"
           style="font-variant:normal;font-weight:normal;font-size:7.47053003px;font-family:'Times New Roman';-inkscape-font-specification:Times-Roman;writing-mode:lr-tb;fill:#231f20;fill-opacity:1;fill-rule:nonzero;stroke:none"
           transform="matrix(1,0,0,-1,118.61805,25.9878)"><tspan
             id="tspan178"
             y="0"
             x="0 1.8676325">.9</tspan><tspan
             id="tspan180"
             y="7.4570298"
             x="0 1.8676325">.0</tspan></text>
</g><path
         id="path184"
         style="fill:#ffffff;fill-opacity:1;fill-rule:evenodd;stroke:none"
         d="M 605.258,5.55078 V 761.277 H 2.5 V 5.55078 h 602.758" /><path
         id="path186"
         style="fill:none;stroke:#231f20;stroke-width:5;stroke-linecap:butt;stroke-linejoin:miter;stroke-miterlimit:10;stroke-dasharray:none;stroke-opacity:1"
         d="M 605.258,5.55078 V 761.277 H 2.5 V 5.55078 Z" /><g
         transform="scale(10)"
         id="g188"><text
           id="text192"
           style="font-style:italic;font-variant:normal;font-size:7.47053003px;font-family:'Times New Roman';-inkscape-font-specification:TimesNewRomanPS-ItalicMT;writing-mode:lr-tb;fill:#231f20;fill-opacity:1;fill-rule:nonzero;stroke:none"
           transform="matrix(1,0,0,-1,5.03281,60.0777)"><tspan
             id="tspan190"
             y="0"
             x="0">t</tspan></text>
<text
           id="text196"
           style="font-variant:normal;font-weight:normal;font-size:7.47053003px;font-family:'Times New Roman';-inkscape-font-specification:Times-Roman;writing-mode:lr-tb;fill:#231f20;fill-opacity:1;fill-rule:nonzero;stroke:none"
           transform="matrix(1,0,0,-1,45.47811,59.8277)"><tspan
             id="tspan194"
             y="0"
             x="0 1.8676325">.9</tspan></text>
<text
           id="text202"
           style="font-style:italic;font-variant:normal;font-size:6.90171003px;font-family:'Times New Roman';-inkscape-font-specification:TimesNewRomanPS-ItalicMT;writing-mode:lr-tb;fill:#231f20;fill-opacity:1;fill-rule:nonzero;stroke:none"
           transform="matrix(1,0,0,-1,4.42151,69.61286)"><tspan
             id="tspan198"
             y="0"
             x="0 21.595726">BM</tspan><tspan
             id="tspan200"
             y="-0.5"
             x="37.642601">P</tspan></text>
<text
           id="text206"
           style="font-variant:normal;font-weight:normal;font-size:6.90171003px;font-family:'Times New Roman';-inkscape-font-specification:TimesNewRomanPSMT;writing-mode:lr-tb;fill:#231f20;fill-opacity:1;fill-rule:nonzero;stroke:none"
           transform="matrix(1,0,0,-1,46.27974,70.11286)"><tspan
             id="tspan204"
             y="0"
             x="0">(</tspan></text>
<text
           id="text210"
           style="font-style:italic;font-variant:normal;font-size:6.90171003px;font-family:'Times New Roman';-inkscape-font-specification:TimesNewRomanPS-ItalicMT;writing-mode:lr-tb;fill:#231f20;fill-opacity:1;fill-rule:nonzero;stroke:none"
           transform="matrix(1,0,0,-1,48.57818,70.11286)"><tspan
             id="tspan208"
             y="0"
             x="0">G</tspan></text>
<text
           id="text214"
           style="font-variant:normal;font-weight:normal;font-size:6.90171003px;font-family:'Times New Roman';-inkscape-font-specification:TimesNewRomanPSMT;writing-mode:lr-tb;fill:#231f20;fill-opacity:1;fill-rule:nonzero;stroke:none"
           transform="matrix(1,0,0,-1,53.56256,70.11286)"><tspan
             id="tspan212"
             y="0"
             x="0">)</tspan></text>
<text
           id="text230"
           style="font-variant:normal;font-weight:normal;font-size:7.47053003px;font-family:'Times New Roman';-inkscape-font-specification:Times-Roman;writing-mode:lr-tb;fill:#231f20;fill-opacity:1;fill-rule:nonzero;stroke:none"
           transform="matrix(1,0,0,-1,45.47819,36.41406)"><tspan
             id="tspan216"
             y="0"
             x="0 1.8676325">.0</tspan><tspan
             id="tspan218"
             y="24.871099"
             x="0 1.8676325">.0</tspan><tspan
             id="tspan220"
             y="33.21524"
             x="0 1.8676325">.0</tspan><tspan
             id="tspan222"
             y="-8.1007605"
             x="0 1.8676325">.0</tspan><tspan
             id="tspan224"
             y="-15.81599"
             x="0 1.8676325">.8</tspan><tspan
             id="tspan226"
             y="8.3031101"
             x="0 1.8676325">.2</tspan><tspan
             id="tspan228"
             y="16.653111"
             x="0 1.8676325">.1</tspan></text>
</g><path
         id="path232"
         style="fill:none;stroke:#231f20;stroke-width:5;stroke-linecap:butt;stroke-linejoin:miter;stroke-miterlimit:10;stroke-dasharray:none;stroke-opacity:1"
         d="M 150.172,1156.29 H 330.813" /><path
         id="path234"
         style="fill:none;stroke:#231f20;stroke-width:5;stroke-linecap:butt;stroke-linejoin:miter;stroke-miterlimit:10;stroke-dasharray:none;stroke-opacity:1"
         d="M 2.30078,674.969 H 605.258" /><path
         id="path236"
         style="fill:none;stroke:#231f20;stroke-width:5;stroke-linecap:butt;stroke-linejoin:miter;stroke-miterlimit:10;stroke-dasharray:none;stroke-opacity:1"
         d="M 378.652,758.641 V 5.55078" /><g
         transform="scale(10)"
         id="g238"><text
           id="text242"
           style="font-style:italic;font-variant:normal;font-size:6.90171003px;font-family:'Times New Roman';-inkscape-font-specification:TimesNewRomanPS-ItalicMT;writing-mode:lr-tb;fill:#231f20;fill-opacity:1;fill-rule:nonzero;stroke:none"
           transform="matrix(1,0,0,-1,16.6266,69.6203)"><tspan
             id="tspan240"
             y="0"
             x="0">I</tspan></text>
<text
           id="text300"
           style="font-style:italic;font-variant:normal;font-size:7.47053003px;font-family:'Times New Roman';-inkscape-font-specification:TimesNewRomanPS-ItalicMT;writing-mode:lr-tb;fill:#231f20;fill-opacity:1;fill-rule:nonzero;stroke:none"
           transform="matrix(1,0,0,-1,16.53285,59.99374)"><tspan
             id="tspan244"
             y="0"
             x="0 10.877316">tt</tspan><tspan
             id="tspan246"
             y="7.1796899"
             x="11">f</tspan><tspan
             id="tspan248"
             y="7.1757836"
             x="-11.5">t</tspan><tspan
             id="tspan250"
             y="7.259768"
             x="0">t</tspan><tspan
             id="tspan252"
             y="14.754688"
             x="-0.122656">f</tspan><tspan
             id="tspan254"
             y="14.775782"
             x="-11.688656">t</tspan><tspan
             id="tspan256"
             y="14.859766"
             x="10.689044">t</tspan><tspan
             id="tspan258"
             y="23.002735"
             x="-0.250056">f</tspan><tspan
             id="tspan260"
             y="22.973829"
             x="10.622644">f</tspan><tspan
             id="tspan262"
             y="22.938675"
             x="-11.688656">t</tspan><tspan
             id="tspan264"
             y="31.113674"
             x="-11.499984">f</tspan><tspan
             id="tspan266"
             y="31.290627"
             x="-0.53048402 10.347281">tt</tspan><tspan
             id="tspan268"
             y="39.127735"
             x="-11.622684">f</tspan><tspan
             id="tspan270"
             y="39.126564"
             x="10.877316">f</tspan><tspan
             id="tspan272"
             y="39.290627"
             x="-0.53048402">t</tspan><tspan
             id="tspan274"
             y="47.295708"
             x="-0.060952999">f</tspan><tspan
             id="tspan276"
             y="47.267582"
             x="-11.688653">f</tspan><tspan
             id="tspan278"
             y="47.29063"
             x="10.439047">t</tspan><tspan
             id="tspan280"
             y="56.059769"
             x="-0.152753">f</tspan><tspan
             id="tspan282"
             y="56.030865"
             x="-11.780453">f</tspan><tspan
             id="tspan284"
             y="56.029694"
             x="10.719547">f</tspan><tspan
             id="tspan286"
             y="-79.00631"
             x="49.043346 59.920662">tt</tspan><tspan
             id="tspan288"
             y="-71.827789"
             x="60.043346">f</tspan><tspan
             id="tspan290"
             y="-71.746536"
             x="49.043346">t</tspan><tspan
             id="tspan292"
             y="-64.252396"
             x="48.920692">f</tspan><tspan
             id="tspan294"
             y="-64.146927"
             x="59.732391">t</tspan><tspan
             id="tspan296"
             y="-56.003571"
             x="48.793289">f</tspan><tspan
             id="tspan298"
             y="-56.033649"
             x="59.665993">f</tspan></text>
</g><path
         id="path302"
         style="fill:#ffffff;fill-opacity:1;fill-rule:evenodd;stroke:none"
         d="m 1360.78,1038.25 v 215.3 h 180.65 v -215.3 h -180.65" /><path
         id="path304"
         style="fill:none;stroke:#231f20;stroke-width:5;stroke-linecap:butt;stroke-linejoin:miter;stroke-miterlimit:10;stroke-dasharray:none;stroke-opacity:1"
         d="m 1360.78,1038.25 v 215.3 h 180.65 v -215.3 z" /><g
         transform="scale(10)"
         id="g306"><text
           id="text310"
           style="font-style:italic;font-variant:normal;font-size:6.90171003px;font-family:'Times New Roman';-inkscape-font-specification:TimesNewRomanPS-ItalicMT;writing-mode:lr-tb;fill:#231f20;fill-opacity:1;fill-rule:nonzero;stroke:none"
           transform="matrix(1,0,0,-1,137.717,118.662)"><tspan
             id="tspan308"
             y="0"
             x="0">P</tspan></text>
<text
           id="text314"
           style="font-variant:normal;font-weight:normal;font-size:6.90171003px;font-family:'Times New Roman';-inkscape-font-specification:TimesNewRomanPSMT;writing-mode:lr-tb;fill:#231f20;fill-opacity:1;fill-rule:nonzero;stroke:none"
           transform="matrix(1,0,0,-1,141.93263,118.662)"><tspan
             id="tspan312"
             y="0"
             x="0">(</tspan></text>
<text
           id="text318"
           style="font-style:italic;font-variant:normal;font-size:6.90171003px;font-family:'Times New Roman';-inkscape-font-specification:TimesNewRomanPS-ItalicMT;writing-mode:lr-tb;fill:#231f20;fill-opacity:1;fill-rule:nonzero;stroke:none"
           transform="matrix(1,0,0,-1,144.23068,118.662)"><tspan
             id="tspan316"
             y="0"
             x="0">M</tspan></text>
<text
           id="text322"
           style="font-variant:normal;font-weight:normal;font-size:6.90171003px;font-family:'Times New Roman';-inkscape-font-specification:TimesNewRomanPSMT;writing-mode:lr-tb;fill:#231f20;fill-opacity:1;fill-rule:nonzero;stroke:none"
           transform="matrix(1,0,0,-1,149.9799,118.662)"><tspan
             id="tspan320"
             y="0"
             x="0">)</tspan></text>
<text
           id="text326"
           style="font-variant:normal;font-weight:normal;font-size:7.47053003px;font-family:'Times New Roman';-inkscape-font-specification:Times-Roman;writing-mode:lr-tb;fill:#231f20;fill-opacity:1;fill-rule:nonzero;stroke:none"
           transform="matrix(1,0,0,-1,141.84201,107.1241)"><tspan
             id="tspan324"
             y="0"
             x="0 1.8676325">.1</tspan></text>
</g><path
         id="path328"
         style="fill:none;stroke:#231f20;stroke-width:5;stroke-linecap:butt;stroke-linejoin:miter;stroke-miterlimit:10;stroke-dasharray:none;stroke-opacity:1"
         d="m 1360.78,1153.52 h 180.65" /><g
         transform="scale(10)"
         id="g330"><text
           id="text336"
           style="font-style:italic;font-variant:normal;font-size:7.47053003px;font-family:'Times New Roman';-inkscape-font-specification:TimesNewRomanPS-ItalicMT;writing-mode:lr-tb;fill:#231f20;fill-opacity:1;fill-rule:nonzero;stroke:none"
           transform="matrix(1,0,0,-1,102.858,27.1281)"><tspan
             id="tspan332"
             y="0"
             x="0">t</tspan><tspan
             id="tspan334"
             y="7.1792998"
             x="0.121875">f</tspan></text>
</g></g></g></svg>