<?xml version="1.0" encoding="UTF-8" standalone="no"?>
<svg
   xmlns:dc="http://purl.org/dc/elements/1.1/"
   xmlns:cc="http://creativecommons.org/ns#"
   xmlns:rdf="http://www.w3.org/1999/02/22-rdf-syntax-ns#"
   xmlns:svg="http://www.w3.org/2000/svg"
   xmlns="http://www.w3.org/2000/svg"
   viewBox="0 0 320.97333 180.54668"
   height="180.54668"
   width="320.97333"
   xml:space="preserve"
   id="svg2"
   version="1.1"><metadata
     id="metadata8"><rdf:RDF><cc:Work
         rdf:about=""><dc:format>image/svg+xml</dc:format><dc:type
           rdf:resource="http://purl.org/dc/dcmitype/StillImage" /></cc:Work></rdf:RDF></metadata><defs
     id="defs6" /><g
     transform="matrix(1.3333333,0,0,-1.3333333,0,180.54667)"
     id="g10"><g
       transform="scale(0.1)"
       id="g12"><g
         transform="scale(10)"
         id="g14"><text
           id="text20"
           style="font-variant:normal;font-weight:bold;font-size:7.67999983px;font-family:Helvetica;-inkscape-font-specification:Helvetica-Bold;writing-mode:lr-tb;fill:#231f20;fill-opacity:1;fill-rule:nonzero;stroke:none"
           transform="matrix(1,0,0,-1,164.372,62.668)"><tspan
             id="tspan16"
             y="0"
             x="0 4.2714839 6.4052787">0.5</tspan><tspan
             id="tspan18"
             y="-0.074609399"
             x="47.616001 51.887497 54.02129">0.5</tspan></text>
</g><path
         id="path22"
         style="fill:none;stroke:#231f20;stroke-width:10;stroke-linecap:butt;stroke-linejoin:miter;stroke-miterlimit:10;stroke-dasharray:none;stroke-opacity:1"
         d="m 2273.15,360.223 97.84,-243.024 m -97.84,243.024 -97.83,-243.024" /><path
         id="path24"
         style="fill:none;stroke:#231f20;stroke-width:10;stroke-linecap:butt;stroke-linejoin:miter;stroke-miterlimit:10;stroke-dasharray:none;stroke-opacity:1"
         d="m 1588.37,360.223 97.83,-243.024 m -97.83,243.024 -97.82,-243.024" /><path
         id="path26"
         style="fill:none;stroke:#231f20;stroke-width:10;stroke-linecap:butt;stroke-linejoin:miter;stroke-miterlimit:10;stroke-dasharray:none;stroke-opacity:1"
         d="M 1933.82,753.059 1591.43,459.59 M 1933.82,753.059 2276.2,459.59" /><g
         transform="scale(10)"
         id="g28"><text
           id="text34"
           style="font-variant:normal;font-weight:bold;font-size:7.67999983px;font-family:Helvetica;-inkscape-font-specification:Helvetica-Bold;writing-mode:lr-tb;fill:#231f20;fill-opacity:1;fill-rule:nonzero;stroke:none"
           transform="matrix(1,0,0,-1,17.1527,62.5074)"><tspan
             id="tspan30"
             y="0"
             x="0 4.2709999 6.4047904">0.5</tspan><tspan
             id="tspan32"
             y="0.085156299"
             x="47.6152 51.8862 54.019989">0.5</tspan></text>
</g><path
         id="path36"
         style="fill:none;stroke:#231f20;stroke-width:10;stroke-linecap:butt;stroke-linejoin:miter;stroke-miterlimit:10;stroke-dasharray:none;stroke-opacity:1"
         d="M 805.77,360.223 903.594,117.199 M 805.77,360.223 707.945,117.199" /><path
         id="path38"
         style="fill:none;stroke:#231f20;stroke-width:10;stroke-linecap:butt;stroke-linejoin:miter;stroke-miterlimit:10;stroke-dasharray:none;stroke-opacity:1"
         d="M 120.992,360.223 218.816,117.199 M 120.992,360.223 23.1641,117.199" /><path
         id="path40"
         style="fill:none;stroke:#231f20;stroke-width:10;stroke-linecap:butt;stroke-linejoin:miter;stroke-miterlimit:10;stroke-dasharray:none;stroke-opacity:1"
         d="M 1200.13,1193.27 1933.82,850.887 M 1200.13,1193.27 466.441,850.887 M 466.445,753.059 124.055,459.59 M 466.445,753.059 808.828,459.59" /><path
         id="path42"
         style="fill:#c8c7c7;fill-opacity:1;fill-rule:evenodd;stroke:none"
         d="m 1289.89,1174.5 -88.1,168.77 -88.12,-168.77 z" /><path
         id="path44"
         style="fill:none;stroke:#231f20;stroke-width:10;stroke-linecap:butt;stroke-linejoin:miter;stroke-miterlimit:10;stroke-dasharray:none;stroke-opacity:1"
         d="m 1289.89,1174.5 -88.1,168.77 -88.12,-168.77 z" /><path
         id="path46"
         style="fill:#c8c7c7;fill-opacity:1;fill-rule:evenodd;stroke:none"
         d="M 893.887,481.891 805.766,313.102 717.656,481.891 Z" /><path
         id="path48"
         style="fill:none;stroke:#231f20;stroke-width:10;stroke-linecap:butt;stroke-linejoin:miter;stroke-miterlimit:10;stroke-dasharray:none;stroke-opacity:1"
         d="M 893.887,481.891 805.766,313.102 717.656,481.891 Z" /><path
         id="path50"
         style="fill:#c8c7c7;fill-opacity:1;fill-rule:evenodd;stroke:none"
         d="m 2361.27,481.891 -88.11,-168.789 -88.11,168.789 z" /><path
         id="path52"
         style="fill:none;stroke:#231f20;stroke-width:10;stroke-linecap:butt;stroke-linejoin:miter;stroke-miterlimit:10;stroke-dasharray:none;stroke-opacity:1"
         d="m 2361.27,481.891 -88.11,-168.789 -88.11,168.789 z" /><path
         id="path54"
         style="fill:#c8c7c7;fill-opacity:1;fill-rule:evenodd;stroke:none"
         d="m 2016.13,809.961 c 0,45.434 -36.87,82.309 -82.31,82.309 -45.44,0 -82.32,-36.875 -82.32,-82.309 0,-45.441 36.88,-82.316 82.32,-82.316 45.44,0 82.31,36.875 82.31,82.316 v 0" /><path
         id="path56"
         style="fill:none;stroke:#231f20;stroke-width:10;stroke-linecap:butt;stroke-linejoin:miter;stroke-miterlimit:10;stroke-dasharray:none;stroke-opacity:1"
         d="m 2016.13,809.961 c 0,45.434 -36.87,82.309 -82.31,82.309 -45.44,0 -82.32,-36.875 -82.32,-82.309 0,-45.441 36.88,-82.316 82.32,-82.316 45.44,0 82.31,36.875 82.31,82.316 z" /><path
         id="path58"
         style="fill:#c8c7c7;fill-opacity:1;fill-rule:evenodd;stroke:none"
         d="M 1676.49,459.59 1588.38,290.801 1500.26,459.59 Z" /><path
         id="path60"
         style="fill:none;stroke:#231f20;stroke-width:10;stroke-linecap:butt;stroke-linejoin:miter;stroke-miterlimit:10;stroke-dasharray:none;stroke-opacity:1"
         d="M 1676.49,459.59 1588.38,290.801 1500.26,459.59 Z" /><path
         id="path62"
         style="fill:#c8c7c7;fill-opacity:1;fill-rule:evenodd;stroke:none"
         d="M 209.102,481.891 120.996,313.102 32.8828,481.891 Z" /><path
         id="path64"
         style="fill:none;stroke:#231f20;stroke-width:10;stroke-linecap:butt;stroke-linejoin:miter;stroke-miterlimit:10;stroke-dasharray:none;stroke-opacity:1"
         d="M 209.102,481.891 120.996,313.102 32.8828,481.891 Z" /><path
         id="path66"
         style="fill:#c8c7c7;fill-opacity:1;fill-rule:evenodd;stroke:none"
         d="m 546.328,809.961 c 0,45.434 -36.879,82.309 -82.32,82.309 -45.43,0 -82.313,-36.875 -82.313,-82.309 0,-45.441 36.883,-82.316 82.313,-82.316 45.441,0 82.32,36.875 82.32,82.316 v 0" /><path
         id="path68"
         style="fill:none;stroke:#231f20;stroke-width:10;stroke-linecap:butt;stroke-linejoin:miter;stroke-miterlimit:10;stroke-dasharray:none;stroke-opacity:1"
         d="m 546.328,809.961 c 0,45.434 -36.879,82.309 -82.32,82.309 -45.43,0 -82.313,-36.875 -82.313,-82.309 0,-45.441 36.883,-82.316 82.313,-82.316 45.441,0 82.32,36.875 82.32,82.316 z" /><g
         transform="scale(10)"
         id="g70"><text
           id="text86"
           style="font-variant:normal;font-weight:bold;font-size:7.67999983px;font-family:Helvetica;-inkscape-font-specification:Helvetica-Bold;writing-mode:lr-tb;fill:#231f20;fill-opacity:1;fill-rule:nonzero;stroke:none"
           transform="matrix(1,0,0,-1,0,3.925)"><tspan
             id="tspan72"
             y="0"
             x="0">2</tspan><tspan
             id="tspan74"
             y="-0.137109"
             x="20.5898">2</tspan><tspan
             id="tspan76"
             y="-0.49687499"
             x="67.451897 89.878883">12</tspan><tspan
             id="tspan78"
             y="0.094140999"
             x="146.69099">0</tspan><tspan
             id="tspan80"
             y="0.232032"
             x="167.4879">2</tspan><tspan
             id="tspan82"
             y="-0.016015001"
             x="212.84689 215.40434">-1</tspan><tspan
             id="tspan84"
             y="-0.496874"
             x="236.45711">0</tspan></text>
</g></g></g></svg>