<?xml version="1.0" encoding="UTF-8" standalone="no"?>
<svg
   xmlns:dc="http://purl.org/dc/elements/1.1/"
   xmlns:cc="http://creativecommons.org/ns#"
   xmlns:rdf="http://www.w3.org/1999/02/22-rdf-syntax-ns#"
   xmlns:svg="http://www.w3.org/2000/svg"
   xmlns="http://www.w3.org/2000/svg"
   viewBox="0 0 480.23999 384.79999"
   height="384.79999"
   width="480.23999"
   xml:space="preserve"
   id="svg2"
   version="1.1"><metadata
     id="metadata8"><rdf:RDF><cc:Work
         rdf:about=""><dc:format>image/svg+xml</dc:format><dc:type
           rdf:resource="http://purl.org/dc/dcmitype/StillImage" /></cc:Work></rdf:RDF></metadata><defs
     id="defs6" /><g
     transform="matrix(1.3333333,0,0,-1.3333333,0,384.8)"
     id="g10"><g
       transform="scale(0.1)"
       id="g12"><path
         id="path14"
         style="fill:none;stroke:#231f20;stroke-width:10;stroke-linecap:butt;stroke-linejoin:miter;stroke-miterlimit:4;stroke-dasharray:none;stroke-opacity:1"
         d="m 2218.3,2521.01 360,-270" /><path
         id="path16"
         style="fill:none;stroke:#231f20;stroke-width:10;stroke-linecap:butt;stroke-linejoin:miter;stroke-miterlimit:4;stroke-dasharray:none;stroke-opacity:1"
         d="m 2218.3,2521.01 360,270" /><path
         id="path18"
         style="fill:none;stroke:#231f20;stroke-width:10;stroke-linecap:butt;stroke-linejoin:miter;stroke-miterlimit:4;stroke-dasharray:none;stroke-opacity:1"
         d="M 868.301,2521.01 H 2218.3" /><g
         transform="scale(10)"
         id="g20"><text
           id="text26"
           style="font-variant:normal;font-weight:normal;font-size:10px;font-family:'Times New Roman';-inkscape-font-specification:Times-Roman;writing-mode:lr-tb;fill:#231f20;fill-opacity:1;fill-rule:nonzero;stroke:none"
           transform="matrix(1,0,0,-1,0,99.1012)"><tspan
             id="tspan22"
             y="0"
             x="0 3.3299999 8.3299999">(b)</tspan><tspan
             id="tspan24"
             y="-150.815"
             x="0.28085899 3.6108589 8.0508595">(a)</tspan></text>
</g><path
         id="path28"
         style="fill:#ffffff;fill-opacity:1;fill-rule:nonzero;stroke:none"
         d="m 958.301,2521.01 c 0,-49.71 -40.293,-90 -90,-90 -49.707,0 -90,40.29 -90,90 0,49.71 40.293,90 90,90 49.707,0 90,-40.29 90,-90" /><path
         id="path30"
         style="fill:none;stroke:#231f20;stroke-width:10;stroke-linecap:butt;stroke-linejoin:miter;stroke-miterlimit:4;stroke-dasharray:none;stroke-opacity:1"
         d="m 958.301,2521.01 c 0,-49.71 -40.293,-90 -90,-90 -49.707,0 -90,40.29 -90,90 0,49.71 40.293,90 90,90 49.707,0 90,-40.29 90,-90 z" /><g
         transform="scale(10)"
         id="g32"><text
           id="text36"
           style="font-variant:normal;font-weight:bold;font-size:11px;font-family:'Times New Roman';-inkscape-font-specification:Times-Bold;writing-mode:lr-tb;fill:#231f20;fill-opacity:1;fill-rule:nonzero;stroke:none"
           transform="matrix(1,0,0,-1,84.0801,249.734)"><tspan
             id="tspan34"
             y="0"
             x="0">a</tspan></text>
</g><path
         id="path38"
         style="fill:#ffffff;fill-opacity:1;fill-rule:nonzero;stroke:none"
         d="m 2668.3,2251.01 c 0,-49.71 -40.29,-90 -90,-90 -49.71,0 -90,40.29 -90,90 0,49.71 40.29,90 90,90 49.71,0 90,-40.29 90,-90" /><path
         id="path40"
         style="fill:none;stroke:#231f20;stroke-width:10;stroke-linecap:butt;stroke-linejoin:miter;stroke-miterlimit:4;stroke-dasharray:none;stroke-opacity:1"
         d="m 2668.3,2251.01 c 0,-49.71 -40.29,-90 -90,-90 -49.71,0 -90,40.29 -90,90 0,49.71 40.29,90 90,90 49.71,0 90,-40.29 90,-90 z" /><g
         transform="scale(10)"
         id="g42"><text
           id="text46"
           style="font-variant:normal;font-weight:bold;font-size:11px;font-family:'Times New Roman';-inkscape-font-specification:Times-Bold;writing-mode:lr-tb;fill:#231f20;fill-opacity:1;fill-rule:nonzero;stroke:none"
           transform="matrix(1,0,0,-1,255.696,222.734)"><tspan
             id="tspan44"
             y="0"
             x="0">f</tspan></text>
</g><path
         id="path48"
         style="fill:#ffffff;fill-opacity:1;fill-rule:nonzero;stroke:none"
         d="m 2668.3,2791.01 c 0,-49.71 -40.29,-90 -90,-90 -49.71,0 -90,40.29 -90,90 0,49.71 40.29,90 90,90 49.71,0 90,-40.29 90,-90" /><path
         id="path50"
         style="fill:none;stroke:#231f20;stroke-width:10;stroke-linecap:butt;stroke-linejoin:miter;stroke-miterlimit:4;stroke-dasharray:none;stroke-opacity:1"
         d="m 2668.3,2791.01 c 0,-49.71 -40.29,-90 -90,-90 -49.71,0 -90,40.29 -90,90 0,49.71 40.29,90 90,90 49.71,0 90,-40.29 90,-90 z" /><g
         transform="scale(10)"
         id="g52"><text
           id="text56"
           style="font-variant:normal;font-weight:bold;font-size:11px;font-family:'Times New Roman';-inkscape-font-specification:Times-Bold;writing-mode:lr-tb;fill:#231f20;fill-opacity:1;fill-rule:nonzero;stroke:none"
           transform="matrix(1,0,0,-1,255.08,276.734)"><tspan
             id="tspan54"
             y="0"
             x="0">e</tspan></text>
</g><path
         id="path58"
         style="fill:#ffffff;fill-opacity:1;fill-rule:nonzero;stroke:none"
         d="m 2308.3,2521.01 c 0,-49.71 -40.29,-90 -90,-90 -49.71,0 -90,40.29 -90,90 0,49.71 40.29,90 90,90 49.71,0 90,-40.29 90,-90" /><path
         id="path60"
         style="fill:none;stroke:#231f20;stroke-width:10;stroke-linecap:butt;stroke-linejoin:miter;stroke-miterlimit:4;stroke-dasharray:none;stroke-opacity:1"
         d="m 2308.3,2521.01 c 0,-49.71 -40.29,-90 -90,-90 -49.71,0 -90,40.29 -90,90 0,49.71 40.29,90 90,90 49.71,0 90,-40.29 90,-90 z" /><g
         transform="scale(10)"
         id="g62"><text
           id="text66"
           style="font-variant:normal;font-weight:bold;font-size:11px;font-family:'Times New Roman';-inkscape-font-specification:Times-Bold;writing-mode:lr-tb;fill:#231f20;fill-opacity:1;fill-rule:nonzero;stroke:none"
           transform="matrix(1,0,0,-1,218.771,249.734)"><tspan
             id="tspan64"
             y="0"
             x="0">d</tspan></text>
</g><path
         id="path68"
         style="fill:#ffffff;fill-opacity:1;fill-rule:nonzero;stroke:none"
         d="m 1858.3,2521.01 c 0,-49.71 -40.29,-90 -90,-90 -49.71,0 -90,40.29 -90,90 0,49.71 40.29,90 90,90 49.71,0 90,-40.29 90,-90" /><path
         id="path70"
         style="fill:none;stroke:#231f20;stroke-width:10;stroke-linecap:butt;stroke-linejoin:miter;stroke-miterlimit:4;stroke-dasharray:none;stroke-opacity:1"
         d="m 1858.3,2521.01 c 0,-49.71 -40.29,-90 -90,-90 -49.71,0 -90,40.29 -90,90 0,49.71 40.29,90 90,90 49.71,0 90,-40.29 90,-90 z" /><g
         transform="scale(10)"
         id="g72"><text
           id="text76"
           style="font-variant:normal;font-weight:bold;font-size:11px;font-family:'Times New Roman';-inkscape-font-specification:Times-Bold;writing-mode:lr-tb;fill:#231f20;fill-opacity:1;fill-rule:nonzero;stroke:none"
           transform="matrix(1,0,0,-1,174.08,249.734)"><tspan
             id="tspan74"
             y="0"
             x="0">c</tspan></text>
</g><path
         id="path78"
         style="fill:#ffffff;fill-opacity:1;fill-rule:nonzero;stroke:none"
         d="m 1408.3,2521.01 c 0,-49.71 -40.29,-90 -90,-90 -49.71,0 -90,40.29 -90,90 0,49.71 40.29,90 90,90 49.71,0 90,-40.29 90,-90" /><path
         id="path80"
         style="fill:none;stroke:#231f20;stroke-width:10;stroke-linecap:butt;stroke-linejoin:miter;stroke-miterlimit:4;stroke-dasharray:none;stroke-opacity:1"
         d="m 1408.3,2521.01 c 0,-49.71 -40.29,-90 -90,-90 -49.71,0 -90,40.29 -90,90 0,49.71 40.29,90 90,90 49.71,0 90,-40.29 90,-90 z" /><g
         transform="scale(10)"
         id="g82"><text
           id="text86"
           style="font-variant:normal;font-weight:bold;font-size:11px;font-family:'Times New Roman';-inkscape-font-specification:Times-Bold;writing-mode:lr-tb;fill:#231f20;fill-opacity:1;fill-rule:nonzero;stroke:none"
           transform="matrix(1,0,0,-1,128.771,249.734)"><tspan
             id="tspan84"
             y="0"
             x="0">b</tspan></text>
</g><path
         id="path88"
         style="fill:none;stroke:#231f20;stroke-width:10;stroke-linecap:butt;stroke-linejoin:miter;stroke-miterlimit:4;stroke-dasharray:none;stroke-opacity:1"
         d="M 2015,1802.52 1160,1544" /><path
         id="path90"
         style="fill:none;stroke:#231f20;stroke-width:10;stroke-linecap:butt;stroke-linejoin:miter;stroke-miterlimit:4;stroke-dasharray:none;stroke-opacity:1"
         d="M 2015,1802.52 2870,1544" /><path
         id="path92"
         style="fill:none;stroke:#231f20;stroke-width:10;stroke-linecap:butt;stroke-linejoin:miter;stroke-miterlimit:4;stroke-dasharray:none;stroke-opacity:1"
         d="M 1160,1330.25 561.5,1073.75" /><path
         id="path94"
         style="fill:none;stroke:#231f20;stroke-width:10;stroke-linecap:butt;stroke-linejoin:miter;stroke-miterlimit:4;stroke-dasharray:none;stroke-opacity:1"
         d="m 1160,1330.25 v -256.5" /><path
         id="path96"
         style="fill:none;stroke:#231f20;stroke-width:10;stroke-linecap:butt;stroke-linejoin:miter;stroke-miterlimit:4;stroke-dasharray:none;stroke-opacity:1"
         d="m 1160,1330.25 600.12,-256.5" /><path
         id="path98"
         style="fill:none;stroke:#231f20;stroke-width:10;stroke-linecap:butt;stroke-linejoin:miter;stroke-miterlimit:4;stroke-dasharray:none;stroke-opacity:1"
         d="M 561.5,860 390.496,603.5" /><path
         id="path100"
         style="fill:none;stroke:#231f20;stroke-width:10;stroke-linecap:butt;stroke-linejoin:miter;stroke-miterlimit:4;stroke-dasharray:none;stroke-opacity:1"
         d="M 561.5,860 639.895,731.75" /><path
         id="path102"
         style="fill:none;stroke:#231f20;stroke-width:10;stroke-linecap:butt;stroke-linejoin:miter;stroke-miterlimit:4;stroke-dasharray:none;stroke-opacity:1"
         d="M 1160,860 989,603.5" /><path
         id="path104"
         style="fill:none;stroke:#231f20;stroke-width:10;stroke-linecap:butt;stroke-linejoin:miter;stroke-miterlimit:4;stroke-dasharray:none;stroke-opacity:1"
         d="m 1160,860 78.39,-128.25" /><path
         id="path106"
         style="fill:none;stroke:#231f20;stroke-width:10;stroke-linecap:butt;stroke-linejoin:miter;stroke-miterlimit:4;stroke-dasharray:none;stroke-opacity:1"
         d="m 2869.18,1330.25 -598.5,-256.5" /><path
         id="path108"
         style="fill:none;stroke:#231f20;stroke-width:10;stroke-linecap:butt;stroke-linejoin:miter;stroke-miterlimit:4;stroke-dasharray:none;stroke-opacity:1"
         d="m 2869.18,1330.25 v -256.5" /><path
         id="path110"
         style="fill:none;stroke:#231f20;stroke-width:10;stroke-linecap:butt;stroke-linejoin:miter;stroke-miterlimit:4;stroke-dasharray:none;stroke-opacity:1"
         d="m 2869.18,1330.25 600.14,-256.5" /><path
         id="path112"
         style="fill:none;stroke:#231f20;stroke-width:10;stroke-linecap:butt;stroke-linejoin:miter;stroke-miterlimit:4;stroke-dasharray:none;stroke-opacity:1"
         d="M 390.496,389.75 V 218.762" /><path
         id="path114"
         style="fill:none;stroke:#231f20;stroke-width:10;stroke-linecap:butt;stroke-linejoin:miter;stroke-miterlimit:4;stroke-dasharray:none;stroke-opacity:1"
         d="M 989,389.75 V 218.762" /><g
         transform="scale(10)"
         id="g116"><text
           id="text120"
           style="font-variant:normal;font-weight:bold;font-size:10.44999981px;font-family:'Times New Roman';-inkscape-font-specification:Times-Bold;writing-mode:lr-tb;fill:#231f20;fill-opacity:1;fill-rule:nonzero;stroke:none"
           transform="matrix(1,0,0,-1,195.688,183.942)"><tspan
             id="tspan118"
             y="0"
             x="0 5.8120065">bd</tspan></text>
</g><path
         id="path122"
         style="fill:none;stroke:#231f20;stroke-width:10;stroke-linecap:butt;stroke-linejoin:miter;stroke-miterlimit:4;stroke-dasharray:none;stroke-opacity:1"
         d="M 1886.75,1802.52 2015,2016.27" /><path
         id="path124"
         style="fill:none;stroke:#231f20;stroke-width:10;stroke-linecap:butt;stroke-linejoin:miter;stroke-miterlimit:4;stroke-dasharray:none;stroke-opacity:1"
         d="m 2015,2016.27 128.24,-213.75" /><path
         id="path126"
         style="fill:none;stroke:#231f20;stroke-width:10;stroke-linecap:butt;stroke-linejoin:miter;stroke-miterlimit:4;stroke-dasharray:none;stroke-opacity:1"
         d="M 2143.24,1802.52 H 1886.75" /><path
         id="path128"
         style="fill:none;stroke:#231f20;stroke-width:10;stroke-linecap:butt;stroke-linejoin:miter;stroke-miterlimit:4;stroke-dasharray:none;stroke-opacity:1"
         d="M 1031.75,1544 1160,1330.25" /><path
         id="path130"
         style="fill:none;stroke:#231f20;stroke-width:10;stroke-linecap:butt;stroke-linejoin:miter;stroke-miterlimit:4;stroke-dasharray:none;stroke-opacity:1"
         d="M 1160,1330.25 1288.25,1544" /><path
         id="path132"
         style="fill:none;stroke:#231f20;stroke-width:10;stroke-linecap:butt;stroke-linejoin:miter;stroke-miterlimit:4;stroke-dasharray:none;stroke-opacity:1"
         d="m 1288.25,1544 h -256.5" /><g
         transform="scale(10)"
         id="g134"><text
           id="text138"
           style="font-variant:normal;font-weight:bold;font-size:10.44999981px;font-family:'Times New Roman';-inkscape-font-specification:Times-Bold;writing-mode:lr-tb;fill:#231f20;fill-opacity:1;fill-rule:nonzero;stroke:none"
           transform="matrix(1,0,0,-1,110.775,144.314)"><tspan
             id="tspan136"
             y="0"
             x="0 4.6381888">cd</tspan></text>
</g><path
         id="path140"
         style="fill:none;stroke:#231f20;stroke-width:10;stroke-linecap:butt;stroke-linejoin:miter;stroke-miterlimit:4;stroke-dasharray:none;stroke-opacity:1"
         d="M 2741.74,1544 2870,1330.25" /><path
         id="path142"
         style="fill:none;stroke:#231f20;stroke-width:10;stroke-linecap:butt;stroke-linejoin:miter;stroke-miterlimit:4;stroke-dasharray:none;stroke-opacity:1"
         d="M 2870,1330.25 2998.24,1544" /><path
         id="path144"
         style="fill:none;stroke:#231f20;stroke-width:10;stroke-linecap:butt;stroke-linejoin:miter;stroke-miterlimit:4;stroke-dasharray:none;stroke-opacity:1"
         d="m 2998.24,1544 h -256.5" /><g
         transform="scale(10)"
         id="g146"><text
           id="text150"
           style="font-variant:normal;font-weight:bold;font-size:10.44999981px;font-family:'Times New Roman';-inkscape-font-specification:Times-Bold;writing-mode:lr-tb;fill:#231f20;fill-opacity:1;fill-rule:nonzero;stroke:none"
           transform="matrix(1,0,0,-1,281.481,144.314)"><tspan
             id="tspan148"
             y="0"
             x="0 5.2249999">ad</tspan></text>
</g><path
         id="path152"
         style="fill:none;stroke:#231f20;stroke-width:10;stroke-linecap:butt;stroke-linejoin:miter;stroke-miterlimit:4;stroke-dasharray:none;stroke-opacity:1"
         d="M 433.246,860 561.5,1073.75" /><path
         id="path154"
         style="fill:none;stroke:#231f20;stroke-width:10;stroke-linecap:butt;stroke-linejoin:miter;stroke-miterlimit:4;stroke-dasharray:none;stroke-opacity:1"
         d="M 561.5,1073.75 689.746,860" /><path
         id="path156"
         style="fill:none;stroke:#231f20;stroke-width:10;stroke-linecap:butt;stroke-linejoin:miter;stroke-miterlimit:4;stroke-dasharray:none;stroke-opacity:1"
         d="m 689.746,860 h -256.5" /><g
         transform="scale(10)"
         id="g158"><text
           id="text162"
           style="font-variant:normal;font-weight:bold;font-size:10.44999981px;font-family:'Times New Roman';-inkscape-font-specification:Times-Bold;writing-mode:lr-tb;fill:#231f20;fill-opacity:1;fill-rule:nonzero;stroke:none"
           transform="matrix(1,0,0,-1,51.5117,89.6891)"><tspan
             id="tspan160"
             y="0"
             x="0 4.6381764">ce</tspan></text>
</g><path
         id="path164"
         style="fill:none;stroke:#231f20;stroke-width:10;stroke-linecap:butt;stroke-linejoin:miter;stroke-miterlimit:4;stroke-dasharray:none;stroke-opacity:1"
         d="M 1031.75,860 1160,1073.75" /><path
         id="path166"
         style="fill:none;stroke:#231f20;stroke-width:10;stroke-linecap:butt;stroke-linejoin:miter;stroke-miterlimit:4;stroke-dasharray:none;stroke-opacity:1"
         d="M 1160,1073.75 1288.25,860" /><path
         id="path168"
         style="fill:none;stroke:#231f20;stroke-width:10;stroke-linecap:butt;stroke-linejoin:miter;stroke-miterlimit:4;stroke-dasharray:none;stroke-opacity:1"
         d="m 1288.25,860 h -256.5" /><g
         transform="scale(10)"
         id="g170"><text
           id="text176"
           style="font-variant:normal;font-weight:bold;font-size:10.44999981px;font-family:'Times New Roman';-inkscape-font-specification:Times-Bold;writing-mode:lr-tb;fill:#231f20;fill-opacity:1;fill-rule:nonzero;stroke:none"
           transform="matrix(1,0,0,-1,111.653,89.6891)"><tspan
             id="tspan172"
             y="0"
             x="0 4.6381888">cf</tspan><tspan
             id="tspan174"
             y="-0.26992199"
             x="59.720699 64.358887">cc</tspan></text>
</g><path
         id="path178"
         style="fill:none;stroke:#231f20;stroke-width:10;stroke-linecap:butt;stroke-linejoin:miter;stroke-miterlimit:4;stroke-dasharray:none;stroke-opacity:1"
         d="m 1631.87,862.699 128.25,213.751" /><path
         id="path180"
         style="fill:none;stroke:#231f20;stroke-width:10;stroke-linecap:butt;stroke-linejoin:miter;stroke-miterlimit:4;stroke-dasharray:none;stroke-opacity:1"
         d="M 1760.12,1076.45 1888.37,862.699" /><path
         id="path182"
         style="fill:none;stroke:#231f20;stroke-width:10;stroke-linecap:butt;stroke-linejoin:miter;stroke-miterlimit:4;stroke-dasharray:none;stroke-opacity:1"
         d="m 1888.37,862.699 h -256.5" /><path
         id="path184"
         style="fill:none;stroke:#231f20;stroke-width:10;stroke-linecap:butt;stroke-linejoin:miter;stroke-miterlimit:4;stroke-dasharray:none;stroke-opacity:1"
         d="M 2142.44,858.652 2270.68,1072.4" /><path
         id="path186"
         style="fill:none;stroke:#231f20;stroke-width:10;stroke-linecap:butt;stroke-linejoin:miter;stroke-miterlimit:4;stroke-dasharray:none;stroke-opacity:1"
         d="M 2270.68,1072.4 2398.93,858.652" /><path
         id="path188"
         style="fill:none;stroke:#231f20;stroke-width:10;stroke-linecap:butt;stroke-linejoin:miter;stroke-miterlimit:4;stroke-dasharray:none;stroke-opacity:1"
         d="M 2398.93,858.652 H 2142.44" /><g
         transform="scale(10)"
         id="g190"><text
           id="text194"
           style="font-variant:normal;font-weight:bold;font-size:10.44999981px;font-family:'Times New Roman';-inkscape-font-specification:Times-Bold;writing-mode:lr-tb;fill:#231f20;fill-opacity:1;fill-rule:nonzero;stroke:none"
           transform="matrix(1,0,0,-1,222.138,89.5539)"><tspan
             id="tspan192"
             y="0"
             x="0 5.2249999">ae</tspan></text>
</g><path
         id="path196"
         style="fill:none;stroke:#231f20;stroke-width:10;stroke-linecap:butt;stroke-linejoin:miter;stroke-miterlimit:4;stroke-dasharray:none;stroke-opacity:1"
         d="M 2740.93,858.652 2869.18,1072.4" /><path
         id="path198"
         style="fill:none;stroke:#231f20;stroke-width:10;stroke-linecap:butt;stroke-linejoin:miter;stroke-miterlimit:4;stroke-dasharray:none;stroke-opacity:1"
         d="M 2869.18,1072.4 2997.42,858.652" /><path
         id="path200"
         style="fill:none;stroke:#231f20;stroke-width:10;stroke-linecap:butt;stroke-linejoin:miter;stroke-miterlimit:4;stroke-dasharray:none;stroke-opacity:1"
         d="M 2997.42,858.652 H 2740.93" /><g
         transform="scale(10)"
         id="g202"><text
           id="text206"
           style="font-variant:normal;font-weight:bold;font-size:10.44999981px;font-family:'Times New Roman';-inkscape-font-specification:Times-Bold;writing-mode:lr-tb;fill:#231f20;fill-opacity:1;fill-rule:nonzero;stroke:none"
           transform="matrix(1,0,0,-1,282.279,89.5539)"><tspan
             id="tspan204"
             y="0"
             x="0 5.2249999">af</tspan></text>
</g><path
         id="path208"
         style="fill:none;stroke:#231f20;stroke-width:10;stroke-linecap:butt;stroke-linejoin:miter;stroke-miterlimit:4;stroke-dasharray:none;stroke-opacity:1"
         d="M 3341.05,861.352 3469.32,1075.1" /><path
         id="path210"
         style="fill:none;stroke:#231f20;stroke-width:10;stroke-linecap:butt;stroke-linejoin:miter;stroke-miterlimit:4;stroke-dasharray:none;stroke-opacity:1"
         d="M 3469.32,1075.1 3597.56,861.352" /><path
         id="path212"
         style="fill:none;stroke:#231f20;stroke-width:10;stroke-linecap:butt;stroke-linejoin:miter;stroke-miterlimit:4;stroke-dasharray:none;stroke-opacity:1"
         d="M 3597.56,861.352 H 3341.05" /><g
         transform="scale(10)"
         id="g214"><text
           id="text218"
           style="font-variant:normal;font-weight:bold;font-size:10.44999981px;font-family:'Times New Roman';-inkscape-font-specification:Times-Bold;writing-mode:lr-tb;fill:#231f20;fill-opacity:1;fill-rule:nonzero;stroke:none"
           transform="matrix(1,0,0,-1,341.999,89.825)"><tspan
             id="tspan216"
             y="0"
             x="0 5.2249999">ac</tspan></text>
</g><path
         id="path220"
         style="fill:none;stroke:#231f20;stroke-width:10;stroke-linecap:butt;stroke-linejoin:miter;stroke-miterlimit:4;stroke-dasharray:none;stroke-opacity:1"
         d="M 262.246,603.5 390.496,389.75" /><path
         id="path222"
         style="fill:none;stroke:#231f20;stroke-width:10;stroke-linecap:butt;stroke-linejoin:miter;stroke-miterlimit:4;stroke-dasharray:none;stroke-opacity:1"
         d="M 390.496,389.75 518.75,603.5" /><path
         id="path224"
         style="fill:none;stroke:#231f20;stroke-width:10;stroke-linecap:butt;stroke-linejoin:miter;stroke-miterlimit:4;stroke-dasharray:none;stroke-opacity:1"
         d="M 518.75,603.5 H 262.246" /><g
         transform="scale(10)"
         id="g226"><text
           id="text230"
           style="font-variant:normal;font-weight:bold;font-size:10.44999981px;font-family:'Times New Roman';-inkscape-font-specification:Times-Bold;writing-mode:lr-tb;fill:#231f20;fill-opacity:1;fill-rule:nonzero;stroke:none"
           transform="matrix(1,0,0,-1,33.8246,50.2641)"><tspan
             id="tspan228"
             y="0"
             x="0 5.8120098">de</tspan></text>
</g><path
         id="path232"
         style="fill:none;stroke:#231f20;stroke-width:10;stroke-linecap:butt;stroke-linejoin:miter;stroke-miterlimit:4;stroke-dasharray:none;stroke-opacity:1"
         d="M 860.746,603.5 989,389.75" /><path
         id="path234"
         style="fill:none;stroke:#231f20;stroke-width:10;stroke-linecap:butt;stroke-linejoin:miter;stroke-miterlimit:4;stroke-dasharray:none;stroke-opacity:1"
         d="M 989,389.75 1117.25,603.5" /><path
         id="path236"
         style="fill:none;stroke:#231f20;stroke-width:10;stroke-linecap:butt;stroke-linejoin:miter;stroke-miterlimit:4;stroke-dasharray:none;stroke-opacity:1"
         d="M 1117.25,603.5 H 860.746" /><g
         transform="scale(10)"
         id="g238"><text
           id="text242"
           style="font-variant:normal;font-weight:bold;font-size:10.44999981px;font-family:'Times New Roman';-inkscape-font-specification:Times-Bold;writing-mode:lr-tb;fill:#231f20;fill-opacity:1;fill-rule:nonzero;stroke:none"
           transform="matrix(1,0,0,-1,93.6746,50.2652)"><tspan
             id="tspan240"
             y="0"
             x="0 5.8120127">df</tspan></text>
</g><path
         id="path244"
         style="fill:none;stroke:#231f20;stroke-width:10;stroke-linecap:butt;stroke-linejoin:miter;stroke-miterlimit:4;stroke-dasharray:none;stroke-opacity:1"
         d="m 262.246,5 128.25,213.75" /><path
         id="path246"
         style="fill:none;stroke:#231f20;stroke-width:10;stroke-linecap:butt;stroke-linejoin:miter;stroke-miterlimit:4;stroke-dasharray:none;stroke-opacity:1"
         d="M 390.496,218.75 518.75,5" /><path
         id="path248"
         style="fill:none;stroke:#231f20;stroke-width:10;stroke-linecap:butt;stroke-linejoin:miter;stroke-miterlimit:4;stroke-dasharray:none;stroke-opacity:1"
         d="M 518.75,5 H 262.246" /><g
         transform="scale(10)"
         id="g250"><text
           id="text254"
           style="font-variant:normal;font-weight:bold;font-size:10.44999981px;font-family:'Times New Roman';-inkscape-font-specification:Times-Bold;writing-mode:lr-tb;fill:#231f20;fill-opacity:1;fill-rule:nonzero;stroke:none"
           transform="matrix(1,0,0,-1,33.2379,5.14023)"><tspan
             id="tspan252"
             y="0"
             x="0 5.8120098">dd</tspan></text>
</g><path
         id="path256"
         style="fill:none;stroke:#231f20;stroke-width:10;stroke-linecap:butt;stroke-linejoin:miter;stroke-miterlimit:4;stroke-dasharray:none;stroke-opacity:1"
         d="M 860.746,5 989,218.75" /><path
         id="path258"
         style="fill:none;stroke:#231f20;stroke-width:10;stroke-linecap:butt;stroke-linejoin:miter;stroke-miterlimit:4;stroke-dasharray:none;stroke-opacity:1"
         d="M 989,218.75 1117.25,5" /><path
         id="path260"
         style="fill:none;stroke:#231f20;stroke-width:10;stroke-linecap:butt;stroke-linejoin:miter;stroke-miterlimit:4;stroke-dasharray:none;stroke-opacity:1"
         d="M 1117.25,5 H 860.746" /><g
         transform="scale(10)"
         id="g262"><text
           id="text266"
           style="font-variant:normal;font-weight:bold;font-size:10.44999981px;font-family:'Times New Roman';-inkscape-font-specification:Times-Bold;writing-mode:lr-tb;fill:#231f20;fill-opacity:1;fill-rule:nonzero;stroke:none"
           transform="matrix(1,0,0,-1,93.0883,5.14023)"><tspan
             id="tspan264"
             y="0"
             x="0 5.8120127">dd</tspan></text>
</g><path
         id="path268"
         style="fill:none;stroke:#231f20;stroke-width:10;stroke-linecap:butt;stroke-linejoin:miter;stroke-miterlimit:4;stroke-dasharray:none;stroke-opacity:1"
         d="M 2270.68,861.352 V 731.75" /><path
         id="path270"
         style="fill:none;stroke:#231f20;stroke-width:10;stroke-linecap:butt;stroke-linejoin:miter;stroke-miterlimit:4;stroke-dasharray:none;stroke-opacity:1"
         d="M 2869.18,858.652 V 731.75" /><path
         id="path272"
         style="fill:none;stroke:#231f20;stroke-width:10;stroke-linecap:butt;stroke-linejoin:miter;stroke-miterlimit:4;stroke-dasharray:none;stroke-opacity:1"
         d="M 3469.32,861.352 V 731.75" /><g
         transform="scale(10)"
         id="g274"><text
           id="text278"
           style="font-variant:normal;font-weight:bold;font-size:10.44999981px;font-family:'Times New Roman';-inkscape-font-specification:Times-Bold;writing-mode:lr-tb;fill:#231f20;fill-opacity:1;fill-rule:nonzero;stroke:none"
           transform="matrix(1,0,0,-1,62.3246,64.625)"><tspan
             id="tspan276"
             y="0"
             x="0 282.14999 222.3 162.45 59.849998">?????</tspan></text>
<text
           id="text282"
           style="font-style:italic;font-variant:normal;font-size:11px;font-family:'Times New Roman';-inkscape-font-specification:TimesNewRomanPS-ItalicMT;writing-mode:lr-tb;fill:#231f20;fill-opacity:1;fill-rule:nonzero;stroke:none"
           transform="matrix(1,0,0,-1,127.82968,232.101)"><tspan
             id="tspan280"
             y="0"
             x="0 90.333977">PE</tspan></text>
</g></g></g></svg>