<?xml version="1.0" encoding="UTF-8" standalone="no"?>
<svg
   xmlns:dc="http://purl.org/dc/elements/1.1/"
   xmlns:cc="http://creativecommons.org/ns#"
   xmlns:rdf="http://www.w3.org/1999/02/22-rdf-syntax-ns#"
   xmlns:svg="http://www.w3.org/2000/svg"
   xmlns="http://www.w3.org/2000/svg"
   viewBox="0 0 529.53333 186.77333"
   height="186.77333"
   width="529.53333"
   xml:space="preserve"
   id="svg2"
   version="1.1"><metadata
     id="metadata8"><rdf:RDF><cc:Work
         rdf:about=""><dc:format>image/svg+xml</dc:format><dc:type
           rdf:resource="http://purl.org/dc/dcmitype/StillImage" /></cc:Work></rdf:RDF></metadata><defs
     id="defs6" /><g
     transform="matrix(1.3333333,0,0,-1.3333333,0,186.77333)"
     id="g10"><g
       transform="scale(0.1)"
       id="g12"><path
         id="path14"
         style="fill:none;stroke:#231f20;stroke-width:6.87099981;stroke-linecap:butt;stroke-linejoin:miter;stroke-miterlimit:10;stroke-dasharray:none;stroke-opacity:1"
         d="M 3164.1,1186.85 V 516.902" /><path
         id="path16"
         style="fill:#231f20;fill-opacity:1;fill-rule:evenodd;stroke:none"
         d="m 3185.68,589.063 -21.58,-86.333 -21.57,86.333" /><path
         id="path18"
         style="fill:none;stroke:#231f20;stroke-width:6.87099981;stroke-linecap:butt;stroke-linejoin:miter;stroke-miterlimit:10;stroke-dasharray:none;stroke-opacity:1"
         d="m 3181.29,585.621 -17.19,-68.719 -17.17,68.719" /><path
         id="path20"
         style="fill:none;stroke:#231f20;stroke-width:6.27099991;stroke-linecap:butt;stroke-linejoin:miter;stroke-miterlimit:10;stroke-dasharray:none;stroke-opacity:1"
         d="M 3220.21,1189.02 3449.25,944.633" /><path
         id="path22"
         style="fill:#231f20;fill-opacity:1;fill-rule:evenodd;stroke:none"
         d="m 3407.75,1007.47 52.37,-71.919 -80.05,38.816" /><path
         id="path24"
         style="fill:none;stroke:#231f20;stroke-width:6.87099981;stroke-linecap:butt;stroke-linejoin:miter;stroke-miterlimit:10;stroke-dasharray:none;stroke-opacity:1"
         d="m 3407.57,1001.9 41.68,-57.267 -63.71,30.906" /><path
         id="path26"
         style="fill:none;stroke:#231f20;stroke-width:6.87099981;stroke-linecap:butt;stroke-linejoin:miter;stroke-miterlimit:10;stroke-dasharray:none;stroke-opacity:1"
         d="M 3791.09,1188.56 3584.96,948.07" /><path
         id="path28"
         style="fill:#231f20;fill-opacity:1;fill-rule:evenodd;stroke:none"
         d="m 3648.3,988.809 -72.56,-51.493 39.79,79.574" /><path
         id="path30"
         style="fill:none;stroke:#231f20;stroke-width:6.87099981;stroke-linecap:butt;stroke-linejoin:miter;stroke-miterlimit:10;stroke-dasharray:none;stroke-opacity:1"
         d="m 3642.72,989.063 -57.76,-40.993 31.68,63.35" /><path
         id="path32"
         style="fill:none;stroke:#231f20;stroke-width:6.87099981;stroke-linecap:butt;stroke-linejoin:miter;stroke-miterlimit:10;stroke-dasharray:none;stroke-opacity:1"
         d="M 3481.89,755.676 3284.35,468.809" /><path
         id="path34"
         style="fill:#231f20;fill-opacity:1;fill-rule:evenodd;stroke:none"
         d="m 3343.05,515.992 -66.73,-58.847 31.18,83.324" /><path
         id="path36"
         style="fill:none;stroke:#231f20;stroke-width:6.87099981;stroke-linecap:butt;stroke-linejoin:miter;stroke-miterlimit:10;stroke-dasharray:none;stroke-opacity:1"
         d="m 3337.46,515.66 -53.11,-46.851 24.82,66.328" /><path
         id="path38"
         style="fill:none;stroke:#231f20;stroke-width:6.87099981;stroke-linecap:butt;stroke-linejoin:miter;stroke-miterlimit:10;stroke-dasharray:none;stroke-opacity:1"
         d="M 3825.45,1202.31 V 499.727" /><path
         id="path40"
         style="fill:#231f20;fill-opacity:1;fill-rule:evenodd;stroke:none"
         d="m 3847.03,571.871 -21.58,-86.308 -21.56,86.308" /><path
         id="path42"
         style="fill:none;stroke:#231f20;stroke-width:6.87099981;stroke-linecap:butt;stroke-linejoin:miter;stroke-miterlimit:10;stroke-dasharray:none;stroke-opacity:1"
         d="m 3842.64,568.438 -17.19,-68.711 -17.17,68.711" /><path
         id="path44"
         style="fill:none;stroke:#231f20;stroke-width:6.87099981;stroke-linecap:butt;stroke-linejoin:miter;stroke-miterlimit:10;stroke-dasharray:none;stroke-opacity:1"
         d="M 3578.09,755.676 3768.77,480.84" /><path
         id="path46"
         style="fill:#231f20;fill-opacity:1;fill-rule:evenodd;stroke:none"
         d="m 3745.37,552.41 31.47,-83.215 -66.93,58.618" /><path
         id="path48"
         style="fill:none;stroke:#231f20;stroke-width:6.87099981;stroke-linecap:butt;stroke-linejoin:miter;stroke-miterlimit:10;stroke-dasharray:none;stroke-opacity:1"
         d="m 3743.72,547.09 25.05,-66.25 -53.28,46.656" /><path
         id="path50"
         style="fill:none;stroke:#231f20;stroke-width:6.87099981;stroke-linecap:butt;stroke-linejoin:miter;stroke-miterlimit:10;stroke-dasharray:none;stroke-opacity:1"
         d="m 3239.68,1241.81 h 443.2" /><path
         id="path52"
         style="fill:#231f20;fill-opacity:1;fill-rule:evenodd;stroke:none"
         d="m 3610.72,1263.39 86.32,-21.58 -86.32,-21.57" /><path
         id="path54"
         style="fill:none;stroke:#231f20;stroke-width:6.87099981;stroke-linecap:butt;stroke-linejoin:miter;stroke-miterlimit:10;stroke-dasharray:none;stroke-opacity:1"
         d="m 3614.16,1258.99 68.72,-17.18 -68.72,-17.17" /><path
         id="path56"
         style="fill:#ffffff;fill-opacity:1;fill-rule:evenodd;stroke:none"
         d="m 3310.47,1254.26 c 0,72.07 -58.5,130.55 -130.55,130.55 -72.07,0 -130.54,-58.48 -130.54,-130.55 0,-72.06 58.47,-130.55 130.54,-130.55 72.05,0 130.55,58.49 130.55,130.55" /><path
         id="path58"
         style="fill:none;stroke:#231f20;stroke-width:6.87099981;stroke-linecap:butt;stroke-linejoin:miter;stroke-miterlimit:10;stroke-dasharray:none;stroke-opacity:1"
         d="m 3310.47,1254.26 c 0,72.07 -58.5,130.55 -130.55,130.55 -72.07,0 -130.54,-58.48 -130.54,-130.55 0,-72.06 58.47,-130.55 130.54,-130.55 72.05,0 130.55,58.49 130.55,130.55" /><path
         id="path60"
         style="fill:#ffffff;fill-opacity:1;fill-rule:evenodd;stroke:none"
         d="m 3968.04,1256.76 c 0,72.07 -58.49,130.55 -130.56,130.55 -72.07,0 -130.56,-58.48 -130.56,-130.55 0,-72.06 58.49,-130.55 130.56,-130.55 72.07,0 130.56,58.49 130.56,130.55" /><path
         id="path62"
         style="fill:none;stroke:#231f20;stroke-width:6.87099981;stroke-linecap:butt;stroke-linejoin:miter;stroke-miterlimit:10;stroke-dasharray:none;stroke-opacity:1"
         d="m 3968.04,1256.76 c 0,72.07 -58.49,130.55 -130.56,130.55 -72.07,0 -130.56,-58.48 -130.56,-130.55 0,-72.06 58.49,-130.55 130.56,-130.55 72.07,0 130.56,58.49 130.56,130.55" /><path
         id="path64"
         style="fill:#ffffff;fill-opacity:1;fill-rule:evenodd;stroke:none"
         d="m 3316.31,363.43 c 0,72.054 -58.5,130.543 -130.55,130.543 -72.07,0 -130.55,-58.489 -130.55,-130.543 0,-72.059 58.48,-130.559 130.55,-130.559 72.05,0 130.55,58.5 130.55,130.559" /><path
         id="path66"
         style="fill:none;stroke:#231f20;stroke-width:6.87099981;stroke-linecap:butt;stroke-linejoin:miter;stroke-miterlimit:10;stroke-dasharray:none;stroke-opacity:1"
         d="m 3316.31,363.43 c 0,72.054 -58.5,130.543 -130.55,130.543 -72.07,0 -130.55,-58.489 -130.55,-130.543 0,-72.059 58.48,-130.559 130.55,-130.559 72.05,0 130.55,58.5 130.55,130.559" /><path
         id="path68"
         style="fill:#ffffff;fill-opacity:1;fill-rule:evenodd;stroke:none"
         d="m 3966.37,363.43 c 0,72.054 -58.48,130.543 -130.55,130.543 -72.07,0 -130.57,-58.489 -130.57,-130.543 0,-72.059 58.5,-130.559 130.57,-130.559 72.07,0 130.55,58.5 130.55,130.559" /><path
         id="path70"
         style="fill:none;stroke:#231f20;stroke-width:6.87099981;stroke-linecap:butt;stroke-linejoin:miter;stroke-miterlimit:10;stroke-dasharray:none;stroke-opacity:1"
         d="m 3966.37,363.43 c 0,72.054 -58.48,130.543 -130.55,130.543 -72.07,0 -130.57,-58.489 -130.57,-130.543 0,-72.059 58.5,-130.559 130.57,-130.559 72.07,0 130.55,58.5 130.55,130.559" /><path
         id="path72"
         style="fill:#ffffff;fill-opacity:1;fill-rule:evenodd;stroke:none"
         d="m 3652.75,815.988 c 0,72.071 -58.49,130.559 -130.55,130.559 -72.07,0 -130.55,-58.488 -130.55,-130.559 0,-72.058 58.48,-130.543 130.55,-130.543 72.06,0 130.55,58.485 130.55,130.543" /><path
         id="path74"
         style="fill:none;stroke:#231f20;stroke-width:6.87099981;stroke-linecap:butt;stroke-linejoin:miter;stroke-miterlimit:10;stroke-dasharray:none;stroke-opacity:1"
         d="m 3652.75,815.988 c 0,72.071 -58.49,130.559 -130.55,130.559 -72.07,0 -130.55,-58.488 -130.55,-130.559 0,-72.058 58.48,-130.543 130.55,-130.543 72.06,0 130.55,58.485 130.55,130.543" /><g
         transform="scale(10)"
         id="g76"><text
           id="text80"
           style="font-style:italic;font-variant:normal;font-size:12px;font-family:'Times New Roman';-inkscape-font-specification:Times-Italic;writing-mode:lr-tb;fill:#231f20;fill-opacity:1;fill-rule:nonzero;stroke:none"
           transform="matrix(1,0,0,-1,348.219,77.7973)"><tspan
             id="tspan78"
             y="0"
             x="0">N</tspan></text>
</g><path
         id="path82"
         style="fill:none;stroke:#231f20;stroke-width:6.87099981;stroke-linecap:butt;stroke-linejoin:miter;stroke-miterlimit:10;stroke-dasharray:none;stroke-opacity:1"
         d="M 961.406,1195.43 V 944.633" /><path
         id="path84"
         style="fill:#231f20;fill-opacity:1;fill-rule:evenodd;stroke:none"
         d="m 982.984,1016.79 -21.578,-86.313 -21.578,86.313" /><path
         id="path86"
         style="fill:none;stroke:#231f20;stroke-width:6.87099981;stroke-linecap:butt;stroke-linejoin:miter;stroke-miterlimit:10;stroke-dasharray:none;stroke-opacity:1"
         d="m 978.586,1013.35 -17.18,-68.717 -17.176,68.717" /><path
         id="path88"
         style="fill:none;stroke:#231f20;stroke-width:6.87099981;stroke-linecap:butt;stroke-linejoin:miter;stroke-miterlimit:10;stroke-dasharray:none;stroke-opacity:1"
         d="M 191.836,683.531 432.324,479.117" /><path
         id="path90"
         style="fill:#231f20;fill-opacity:1;fill-rule:evenodd;stroke:none"
         d="m 391.328,542.281 51.793,-72.343 -79.738,39.472" /><path
         id="path92"
         style="fill:none;stroke:#231f20;stroke-width:6.87099981;stroke-linecap:butt;stroke-linejoin:miter;stroke-miterlimit:10;stroke-dasharray:none;stroke-opacity:1"
         d="m 391.094,536.695 41.23,-57.578 -63.476,31.406" /><path
         id="path94"
         style="fill:none;stroke:#231f20;stroke-width:6.87099981;stroke-linecap:butt;stroke-linejoin:miter;stroke-miterlimit:10;stroke-dasharray:none;stroke-opacity:1"
         d="M 906.441,683.531 638.457,479.117" /><path
         id="path96"
         style="fill:#231f20;fill-opacity:1;fill-rule:evenodd;stroke:none"
         d="m 708.906,505.723 -81.711,-35.2 55.543,69.512" /><path
         id="path98"
         style="fill:none;stroke:#231f20;stroke-width:6.87099981;stroke-linecap:butt;stroke-linejoin:miter;stroke-miterlimit:10;stroke-dasharray:none;stroke-opacity:1"
         d="m 703.512,507.129 -65.055,-28.012 44.219,55.332" /><path
         id="path100"
         style="fill:none;stroke:#231f20;stroke-width:6.87099981;stroke-linecap:butt;stroke-linejoin:miter;stroke-miterlimit:10;stroke-dasharray:none;stroke-opacity:1"
         d="M 121.406,1173.1 V 949.789" /><path
         id="path102"
         style="fill:#231f20;fill-opacity:1;fill-rule:evenodd;stroke:none"
         d="M 142.984,1021.94 121.406,935.625 99.8281,1021.94" /><path
         id="path104"
         style="fill:none;stroke:#231f20;stroke-width:6.87099981;stroke-linecap:butt;stroke-linejoin:miter;stroke-miterlimit:10;stroke-dasharray:none;stroke-opacity:1"
         d="M 138.586,1018.5 121.406,949.789 104.23,1018.5" /><path
         id="path106"
         style="fill:#ffffff;fill-opacity:1;fill-rule:evenodd;stroke:none"
         d="m 264.539,790.984 c 0,72.063 -58.488,130.559 -130.551,130.559 -72.07,0 -130.5505,-58.496 -130.5505,-130.559 0,-72.07 58.4805,-130.546 130.5505,-130.546 72.063,0 130.551,58.476 130.551,130.546" /><path
         id="path108"
         style="fill:none;stroke:#231f20;stroke-width:6.87099981;stroke-linecap:butt;stroke-linejoin:miter;stroke-miterlimit:10;stroke-dasharray:none;stroke-opacity:1"
         d="m 264.539,790.984 c 0,72.063 -58.488,130.559 -130.551,130.559 -72.07,0 -130.5505,-58.496 -130.5505,-130.559 0,-72.07 58.4805,-130.546 130.5505,-130.546 72.063,0 130.551,58.476 130.551,130.546" /><path
         id="path110"
         style="fill:#ffffff;fill-opacity:1;fill-rule:evenodd;stroke:none"
         d="m 1100.47,789.91 c 0,72.067 -58.49,130.559 -130.552,130.559 -72.063,0 -130.555,-58.492 -130.555,-130.559 0,-72.058 58.492,-130.566 130.555,-130.566 72.062,0 130.552,58.508 130.552,130.566" /><path
         id="path112"
         style="fill:none;stroke:#231f20;stroke-width:6.87099981;stroke-linecap:butt;stroke-linejoin:miter;stroke-miterlimit:10;stroke-dasharray:none;stroke-opacity:1"
         d="m 1100.47,789.91 c 0,72.067 -58.49,130.559 -130.552,130.559 -72.063,0 -130.555,-58.492 -130.555,-130.559 0,-72.058 58.492,-130.566 130.555,-130.566 72.062,0 130.552,58.508 130.552,130.566" /><path
         id="path114"
         style="fill:#ffffff;fill-opacity:1;fill-rule:evenodd;stroke:none"
         d="m 267.875,1266.76 c 0,72.07 -58.488,130.55 -130.551,130.55 -72.0701,0 -130.55056,-58.48 -130.55056,-130.55 0,-72.06 58.48046,-130.55 130.55056,-130.55 72.063,0 130.551,58.49 130.551,130.55" /><path
         id="path116"
         style="fill:none;stroke:#231f20;stroke-width:6.87099981;stroke-linecap:butt;stroke-linejoin:miter;stroke-miterlimit:10;stroke-dasharray:none;stroke-opacity:1"
         d="m 267.875,1266.76 c 0,72.07 -58.488,130.55 -130.551,130.55 -72.0701,0 -130.55056,-58.48 -130.55056,-130.55 0,-72.06 58.48046,-130.55 130.55056,-130.55 72.063,0 130.551,58.49 130.551,130.55" /><path
         id="path118"
         style="fill:#ffffff;fill-opacity:1;fill-rule:evenodd;stroke:none"
         d="m 1103.81,1251.76 c 0,72.07 -58.49,130.55 -130.556,130.55 -72.063,0 -130.555,-58.48 -130.555,-130.55 0,-72.06 58.492,-130.55 130.555,-130.55 72.066,0 130.556,58.49 130.556,130.55" /><path
         id="path120"
         style="fill:none;stroke:#231f20;stroke-width:6.87099981;stroke-linecap:butt;stroke-linejoin:miter;stroke-miterlimit:10;stroke-dasharray:none;stroke-opacity:1"
         d="m 1103.81,1251.76 c 0,72.07 -58.49,130.55 -130.556,130.55 -72.063,0 -130.555,-58.48 -130.555,-130.55 0,-72.06 58.492,-130.55 130.555,-130.55 72.066,0 130.556,58.49 130.556,130.55" /><path
         id="path122"
         style="fill:#ffffff;fill-opacity:1;fill-rule:evenodd;stroke:none"
         d="m 671.809,369.059 c 0,72.074 -58.489,130.57 -130.547,130.57 -72.074,0 -130.559,-58.496 -130.559,-130.57 0,-72.071 58.485,-130.547 130.559,-130.547 72.058,0 130.547,58.476 130.547,130.547" /><path
         id="path124"
         style="fill:none;stroke:#231f20;stroke-width:6.87099981;stroke-linecap:butt;stroke-linejoin:miter;stroke-miterlimit:10;stroke-dasharray:none;stroke-opacity:1"
         d="m 671.809,369.059 c 0,72.074 -58.489,130.57 -130.547,130.57 -72.074,0 -130.559,-58.496 -130.559,-130.57 0,-72.071 58.485,-130.547 130.559,-130.547 72.058,0 130.547,58.476 130.547,130.547" /><g
         transform="scale(10)"
         id="g126"><text
           id="text130"
           style="font-style:italic;font-variant:normal;font-size:12px;font-family:'Times New Roman';-inkscape-font-specification:Times-Italic;writing-mode:lr-tb;fill:#231f20;fill-opacity:1;fill-rule:nonzero;stroke:none"
           transform="matrix(1,0,0,-1,50.1238,33.1031)"><tspan
             id="tspan128"
             y="0"
             x="0">N</tspan></text>
</g><path
         id="path132"
         style="fill:none;stroke:#231f20;stroke-width:6.87099981;stroke-linecap:butt;stroke-linejoin:miter;stroke-miterlimit:10;stroke-dasharray:none;stroke-opacity:1"
         d="m 1627.91,1181.69 54.97,-319.51" /><path
         id="path134"
         style="fill:#231f20;fill-opacity:1;fill-rule:evenodd;stroke:none"
         d="m 1691.91,936.941 -6.63,-88.718 -35.9,81.398" /><path
         id="path136"
         style="fill:none;stroke:#231f20;stroke-width:6.87099981;stroke-linecap:butt;stroke-linejoin:miter;stroke-miterlimit:10;stroke-dasharray:none;stroke-opacity:1"
         d="m 1688.16,932.816 -5.28,-70.636 -28.58,64.808" /><path
         id="path138"
         style="fill:none;stroke:#231f20;stroke-width:6.87099981;stroke-linecap:butt;stroke-linejoin:miter;stroke-miterlimit:10;stroke-dasharray:none;stroke-opacity:1"
         d="M 2079.69,1145.63 1763.61,843.285" /><path
         id="path140"
         style="fill:#231f20;fill-opacity:1;fill-rule:evenodd;stroke:none"
         d="m 1830.66,877.563 -77.28,-44.071 47.46,75.258" /><path
         id="path142"
         style="fill:none;stroke:#231f20;stroke-width:6.87099981;stroke-linecap:butt;stroke-linejoin:miter;stroke-miterlimit:10;stroke-dasharray:none;stroke-opacity:1"
         d="m 1825.14,878.367 -61.53,-35.082 37.79,59.91" /><path
         id="path144"
         style="fill:none;stroke:#231f20;stroke-width:6.87099981;stroke-linecap:butt;stroke-linejoin:miter;stroke-miterlimit:10;stroke-dasharray:none;stroke-opacity:1"
         d="m 2047.05,1149.05 298.9,-312.636" /><path
         id="path146"
         style="fill:#231f20;fill-opacity:1;fill-rule:evenodd;stroke:none"
         d="m 2311.69,903.48 44.05,-77.3 -75.25,47.476" /><path
         id="path148"
         style="fill:none;stroke:#231f20;stroke-width:6.87099981;stroke-linecap:butt;stroke-linejoin:miter;stroke-miterlimit:10;stroke-dasharray:none;stroke-opacity:1"
         d="m 2310.88,897.953 35.07,-61.539 -59.91,37.797" /><path
         id="path150"
         style="fill:none;stroke:#231f20;stroke-width:6.87099981;stroke-linecap:butt;stroke-linejoin:miter;stroke-miterlimit:10;stroke-dasharray:none;stroke-opacity:1"
         d="M 2466.19,1195.43 2435.27,857.027" /><path
         id="path152"
         style="fill:#231f20;fill-opacity:1;fill-rule:evenodd;stroke:none"
         d="m 2463.32,926.91 -29.35,-83.988 -13.62,87.922" /><path
         id="path154"
         style="fill:none;stroke:#231f20;stroke-width:6.87099981;stroke-linecap:butt;stroke-linejoin:miter;stroke-miterlimit:10;stroke-dasharray:none;stroke-opacity:1"
         d="m 2458.62,923.895 -23.35,-66.868 -10.86,69.993" /><path
         id="path156"
         style="fill:#ffffff;fill-opacity:1;fill-rule:evenodd;stroke:none"
         d="m 2607.14,1261.76 c 0,72.07 -58.5,130.55 -130.55,130.55 -72.07,0 -130.55,-58.48 -130.55,-130.55 0,-72.06 58.48,-130.55 130.55,-130.55 72.05,0 130.55,58.49 130.55,130.55" /><path
         id="path158"
         style="fill:none;stroke:#231f20;stroke-width:6.87099981;stroke-linecap:butt;stroke-linejoin:miter;stroke-miterlimit:10;stroke-dasharray:none;stroke-opacity:1"
         d="m 2607.14,1261.76 c 0,72.07 -58.5,130.55 -130.55,130.55 -72.07,0 -130.55,-58.48 -130.55,-130.55 0,-72.06 58.48,-130.55 130.55,-130.55 72.05,0 130.55,58.49 130.55,130.55" /><path
         id="path160"
         style="fill:#ffffff;fill-opacity:1;fill-rule:evenodd;stroke:none"
         d="m 2198.45,1261.76 c 0,72.07 -58.5,130.55 -130.55,130.55 -72.07,0 -130.56,-58.48 -130.56,-130.55 0,-72.06 58.49,-130.55 130.56,-130.55 72.05,0 130.55,58.49 130.55,130.55" /><path
         id="path162"
         style="fill:none;stroke:#231f20;stroke-width:6.87099981;stroke-linecap:butt;stroke-linejoin:miter;stroke-miterlimit:10;stroke-dasharray:none;stroke-opacity:1"
         d="m 2198.45,1261.76 c 0,72.07 -58.5,130.55 -130.55,130.55 -72.07,0 -130.56,-58.48 -130.56,-130.55 0,-72.06 58.49,-130.55 130.56,-130.55 72.05,0 130.55,58.49 130.55,130.55" /><path
         id="path164"
         style="fill:#ffffff;fill-opacity:1;fill-rule:evenodd;stroke:none"
         d="m 1752.98,1256.76 c 0,72.07 -58.49,130.55 -130.55,130.55 -72.07,0 -130.56,-58.48 -130.56,-130.55 0,-72.06 58.49,-130.55 130.56,-130.55 72.06,0 130.55,58.49 130.55,130.55" /><path
         id="path166"
         style="fill:none;stroke:#231f20;stroke-width:6.87099981;stroke-linecap:butt;stroke-linejoin:miter;stroke-miterlimit:10;stroke-dasharray:none;stroke-opacity:1"
         d="m 1752.98,1256.76 c 0,72.07 -58.49,130.55 -130.55,130.55 -72.07,0 -130.56,-58.48 -130.56,-130.55 0,-72.06 58.49,-130.55 130.56,-130.55 72.06,0 130.55,58.49 130.55,130.55" /><path
         id="path168"
         style="fill:#ffffff;fill-opacity:1;fill-rule:evenodd;stroke:none"
         d="m 1840.79,698.758 c 0,72.07 -58.49,130.555 -130.56,130.555 -72.07,0 -130.55,-58.485 -130.55,-130.555 0,-72.063 58.48,-130.547 130.55,-130.547 72.07,0 130.56,58.484 130.56,130.547" /><path
         id="path170"
         style="fill:none;stroke:#231f20;stroke-width:6.87099981;stroke-linecap:butt;stroke-linejoin:miter;stroke-miterlimit:10;stroke-dasharray:none;stroke-opacity:1"
         d="m 1840.79,698.758 c 0,72.07 -58.49,130.555 -130.56,130.555 -72.07,0 -130.55,-58.485 -130.55,-130.555 0,-72.063 58.48,-130.547 130.55,-130.547 72.07,0 130.56,58.484 130.56,130.547" /><path
         id="path172"
         style="fill:#ffffff;fill-opacity:1;fill-rule:evenodd;stroke:none"
         d="m 2559.65,703.758 c 0,72.07 -58.49,130.555 -130.55,130.555 -72.06,0 -130.55,-58.485 -130.55,-130.555 0,-72.063 58.49,-130.547 130.55,-130.547 72.06,0 130.55,58.484 130.55,130.547" /><path
         id="path174"
         style="fill:none;stroke:#231f20;stroke-width:6.87099981;stroke-linecap:butt;stroke-linejoin:miter;stroke-miterlimit:10;stroke-dasharray:none;stroke-opacity:1"
         d="m 2559.65,703.758 c 0,72.07 -58.49,130.555 -130.55,130.555 -72.06,0 -130.55,-58.485 -130.55,-130.555 0,-72.063 58.49,-130.547 130.55,-130.547 72.06,0 130.55,58.484 130.55,130.547" /><g
         transform="scale(10)"
         id="g176"><text
           id="text184"
           style="font-variant:normal;font-weight:normal;font-size:12px;font-family:'Times New Roman';-inkscape-font-specification:Times-Roman;writing-mode:lr-tb;fill:#231f20;fill-opacity:1;fill-rule:nonzero;stroke:none"
           transform="matrix(1,0,0,-1,51.1348,5.13789)"><tspan
             id="tspan178"
             y="0"
             x="0 3.9960001 7.3319998">(i)</tspan><tspan
             id="tspan180"
             y="-1.37422"
             x="151.509 155.505 158.841 162.177">(ii)</tspan><tspan
             id="tspan182"
             y="-2.0609391"
             x="292.36801 296.36401 299.70001 303.03601 306.37201">(iii)</tspan></text>
<text
           id="text188"
           style="font-style:italic;font-variant:normal;font-size:12px;font-family:'Times New Roman';-inkscape-font-specification:Times-Italic;writing-mode:lr-tb;fill:#231f20;fill-opacity:1;fill-rule:nonzero;stroke:none"
           transform="matrix(1,0,0,-1,7.8168,124.37383)"><tspan
             id="tspan186"
             y="0"
             x="0">F</tspan></text>
<text
           id="text192"
           style="font-variant:normal;font-weight:normal;font-size:9px;font-family:'Times New Roman';-inkscape-font-specification:Times-Roman;writing-mode:lr-tb;fill:#231f20;fill-opacity:1;fill-rule:nonzero;stroke:none"
           transform="matrix(1,0,0,-1,15.14727,121.37383)"><tspan
             id="tspan190"
             y="0"
             x="0">1</tspan></text>
<text
           id="text196"
           style="font-style:italic;font-variant:normal;font-size:12px;font-family:'Times New Roman';-inkscape-font-specification:Times-Italic;writing-mode:lr-tb;fill:#231f20;fill-opacity:1;fill-rule:nonzero;stroke:none"
           transform="matrix(1,0,0,-1,156.32627,123.37383)"><tspan
             id="tspan194"
             y="0"
             x="0">F</tspan></text>
<text
           id="text200"
           style="font-variant:normal;font-weight:normal;font-size:9px;font-family:'Times New Roman';-inkscape-font-specification:Times-Roman;writing-mode:lr-tb;fill:#231f20;fill-opacity:1;fill-rule:nonzero;stroke:none"
           transform="matrix(1,0,0,-1,163.65635,120.37383)"><tspan
             id="tspan198"
             y="0"
             x="0">1</tspan></text>
<text
           id="text204"
           style="font-style:italic;font-variant:normal;font-size:12px;font-family:'Times New Roman';-inkscape-font-specification:Times-Italic;writing-mode:lr-tb;fill:#231f20;fill-opacity:1;fill-rule:nonzero;stroke:none"
           transform="matrix(1,0,0,-1,312.65935,34.039429)"><tspan
             id="tspan202"
             y="0"
             x="0">F</tspan></text>
<text
           id="text208"
           style="font-variant:normal;font-weight:normal;font-size:9px;font-family:'Times New Roman';-inkscape-font-specification:Times-Roman;writing-mode:lr-tb;fill:#231f20;fill-opacity:1;fill-rule:nonzero;stroke:none"
           transform="matrix(1,0,0,-1,319.98904,31.039429)"><tspan
             id="tspan206"
             y="0"
             x="0">1</tspan></text>
<text
           id="text212"
           style="font-style:italic;font-variant:normal;font-size:12px;font-family:'Times New Roman';-inkscape-font-specification:Times-Italic;writing-mode:lr-tb;fill:#231f20;fill-opacity:1;fill-rule:nonzero;stroke:none"
           transform="matrix(1,0,0,-1,6.15004,76.796029)"><tspan
             id="tspan210"
             y="0"
             x="0">M</tspan></text>
<text
           id="text216"
           style="font-variant:normal;font-weight:normal;font-size:9px;font-family:'Times New Roman';-inkscape-font-specification:Times-Roman;writing-mode:lr-tb;fill:#231f20;fill-opacity:1;fill-rule:nonzero;stroke:none"
           transform="matrix(1,0,0,-1,16.14613,73.796029)"><tspan
             id="tspan214"
             y="0"
             x="0">1</tspan></text>
<text
           id="text220"
           style="font-style:italic;font-variant:normal;font-size:12px;font-family:'Times New Roman';-inkscape-font-specification:Times-Italic;writing-mode:lr-tb;fill:#231f20;fill-opacity:1;fill-rule:nonzero;stroke:none"
           transform="matrix(1,0,0,-1,163.77413,67.573369)"><tspan
             id="tspan218"
             y="0"
             x="0">M</tspan></text>
<text
           id="text224"
           style="font-variant:normal;font-weight:normal;font-size:9px;font-family:'Times New Roman';-inkscape-font-specification:Times-Roman;writing-mode:lr-tb;fill:#231f20;fill-opacity:1;fill-rule:nonzero;stroke:none"
           transform="matrix(1,0,0,-1,173.77022,64.573369)"><tspan
             id="tspan222"
             y="0"
             x="0">1</tspan></text>
<text
           id="text228"
           style="font-style:italic;font-variant:normal;font-size:12px;font-family:'Times New Roman';-inkscape-font-specification:Times-Italic;writing-mode:lr-tb;fill:#231f20;fill-opacity:1;fill-rule:nonzero;stroke:none"
           transform="matrix(1,0,0,-1,310.74322,123.12377)"><tspan
             id="tspan226"
             y="0"
             x="0">M</tspan></text>
<text
           id="text232"
           style="font-variant:normal;font-weight:normal;font-size:9px;font-family:'Times New Roman';-inkscape-font-specification:Times-Roman;writing-mode:lr-tb;fill:#231f20;fill-opacity:1;fill-rule:nonzero;stroke:none"
           transform="matrix(1,0,0,-1,320.73892,120.12377)"><tspan
             id="tspan230"
             y="0"
             x="0">1</tspan></text>
<text
           id="text236"
           style="font-style:italic;font-variant:normal;font-size:12px;font-family:'Times New Roman';-inkscape-font-specification:Times-Italic;writing-mode:lr-tb;fill:#231f20;fill-opacity:1;fill-rule:nonzero;stroke:none"
           transform="matrix(1,0,0,-1,91.40992,122.87377)"><tspan
             id="tspan234"
             y="0"
             x="0">F</tspan></text>
<text
           id="text240"
           style="font-variant:normal;font-weight:normal;font-size:9px;font-family:'Times New Roman';-inkscape-font-specification:Times-Roman;writing-mode:lr-tb;fill:#231f20;fill-opacity:1;fill-rule:nonzero;stroke:none"
           transform="matrix(1,0,0,-1,98.74,119.87377)"><tspan
             id="tspan238"
             y="0"
             x="0">2</tspan></text>
<text
           id="text244"
           style="font-style:italic;font-variant:normal;font-size:12px;font-family:'Times New Roman';-inkscape-font-specification:Times-Italic;writing-mode:lr-tb;fill:#231f20;fill-opacity:1;fill-rule:nonzero;stroke:none"
           transform="matrix(1,0,0,-1,241.744,123.87377)"><tspan
             id="tspan242"
             y="0"
             x="0">F</tspan></text>
<text
           id="text248"
           style="font-variant:normal;font-weight:normal;font-size:9px;font-family:'Times New Roman';-inkscape-font-specification:Times-Roman;writing-mode:lr-tb;fill:#231f20;fill-opacity:1;fill-rule:nonzero;stroke:none"
           transform="matrix(1,0,0,-1,249.07369,120.87377)"><tspan
             id="tspan246"
             y="0"
             x="0">2</tspan></text>
<text
           id="text252"
           style="font-style:italic;font-variant:normal;font-size:12px;font-family:'Times New Roman';-inkscape-font-specification:Times-Italic;writing-mode:lr-tb;fill:#231f20;fill-opacity:1;fill-rule:nonzero;stroke:none"
           transform="matrix(1,0,0,-1,377.66569,34.039369)"><tspan
             id="tspan250"
             y="0"
             x="0">F</tspan></text>
<text
           id="text256"
           style="font-variant:normal;font-weight:normal;font-size:9px;font-family:'Times New Roman';-inkscape-font-specification:Times-Roman;writing-mode:lr-tb;fill:#231f20;fill-opacity:1;fill-rule:nonzero;stroke:none"
           transform="matrix(1,0,0,-1,384.99577,31.039369)"><tspan
             id="tspan254"
             y="0"
             x="0">2</tspan></text>
<text
           id="text260"
           style="font-style:italic;font-variant:normal;font-size:12px;font-family:'Times New Roman';-inkscape-font-specification:Times-Italic;writing-mode:lr-tb;fill:#231f20;fill-opacity:1;fill-rule:nonzero;stroke:none"
           transform="matrix(1,0,0,-1,89.74377,76.688169)"><tspan
             id="tspan258"
             y="0"
             x="0">M</tspan></text>
<text
           id="text264"
           style="font-variant:normal;font-weight:normal;font-size:9px;font-family:'Times New Roman';-inkscape-font-specification:Times-Roman;writing-mode:lr-tb;fill:#231f20;fill-opacity:1;fill-rule:nonzero;stroke:none"
           transform="matrix(1,0,0,-1,99.73986,73.688169)"><tspan
             id="tspan262"
             y="0"
             x="0">2</tspan></text>
<text
           id="text268"
           style="font-style:italic;font-variant:normal;font-size:12px;font-family:'Times New Roman';-inkscape-font-specification:Times-Italic;writing-mode:lr-tb;fill:#231f20;fill-opacity:1;fill-rule:nonzero;stroke:none"
           transform="matrix(1,0,0,-1,235.66186,68.073329)"><tspan
             id="tspan266"
             y="0"
             x="0">M</tspan></text>
<text
           id="text272"
           style="font-variant:normal;font-weight:normal;font-size:9px;font-family:'Times New Roman';-inkscape-font-specification:Times-Roman;writing-mode:lr-tb;fill:#231f20;fill-opacity:1;fill-rule:nonzero;stroke:none"
           transform="matrix(1,0,0,-1,245.65795,65.073329)"><tspan
             id="tspan270"
             y="0"
             x="0">2</tspan></text>
<text
           id="text276"
           style="font-style:italic;font-variant:normal;font-size:12px;font-family:'Times New Roman';-inkscape-font-specification:Times-Italic;writing-mode:lr-tb;fill:#231f20;fill-opacity:1;fill-rule:nonzero;stroke:none"
           transform="matrix(1,0,0,-1,376.49995,123.37373)"><tspan
             id="tspan274"
             y="0"
             x="0">M</tspan></text>
<text
           id="text280"
           style="font-variant:normal;font-weight:normal;font-size:9px;font-family:'Times New Roman';-inkscape-font-specification:Times-Roman;writing-mode:lr-tb;fill:#231f20;fill-opacity:1;fill-rule:nonzero;stroke:none"
           transform="matrix(1,0,0,-1,386.49604,120.37373)"><tspan
             id="tspan278"
             y="0"
             x="0">2</tspan></text>
<text
           id="text284"
           style="font-style:italic;font-variant:normal;font-size:12px;font-family:'Times New Roman';-inkscape-font-specification:Times-Italic;writing-mode:lr-tb;fill:#231f20;fill-opacity:1;fill-rule:nonzero;stroke:none"
           transform="matrix(1,0,0,-1,202.78804,122.37373)"><tspan
             id="tspan282"
             y="0"
             x="0">N</tspan></text>
</g></g></g></svg>