<?xml version="1.0" encoding="UTF-8" standalone="no"?>
<svg
   xmlns:dc="http://purl.org/dc/elements/1.1/"
   xmlns:cc="http://creativecommons.org/ns#"
   xmlns:rdf="http://www.w3.org/1999/02/22-rdf-syntax-ns#"
   xmlns:svg="http://www.w3.org/2000/svg"
   xmlns="http://www.w3.org/2000/svg"
   viewBox="0 0 193.72 254.39999"
   height="254.39999"
   width="193.72"
   xml:space="preserve"
   id="svg2"
   version="1.1"><metadata
     id="metadata8"><rdf:RDF><cc:Work
         rdf:about=""><dc:format>image/svg+xml</dc:format><dc:type
           rdf:resource="http://purl.org/dc/dcmitype/StillImage" /></cc:Work></rdf:RDF></metadata><defs
     id="defs6" /><g
     transform="matrix(1.3333333,0,0,-1.3333333,0,254.4)"
     id="g10"><g
       transform="scale(0.1)"
       id="g12"><path
         id="path14"
         style="fill:none;stroke:#231f20;stroke-width:10;stroke-linecap:round;stroke-linejoin:miter;stroke-miterlimit:10;stroke-dasharray:none;stroke-opacity:1"
         d="M 408.18,1222.46 730.715,876 M 412.418,1222.46 378.469,876 M 412.418,1222.46 5,876 m 1281.68,847.27 161.26,-70.31 m -161.26,70.31 -874.262,-351.55" /><path
         id="path16"
         style="fill:#c8c7c7;fill-opacity:1;fill-rule:evenodd;stroke:none"
         d="m 1288.18,1898.91 88.45,-167.08 h -176.91 l 88.46,167.08 v 0" /><path
         id="path18"
         style="fill:none;stroke:#231f20;stroke-width:8.48799992;stroke-linecap:butt;stroke-linejoin:miter;stroke-miterlimit:10;stroke-dasharray:none;stroke-opacity:1"
         d="m 1288.18,1898.91 88.45,-167.08 h -176.91 l 88.46,167.08 z" /><path
         id="path20"
         style="fill:#c8c7c7;fill-opacity:1;fill-rule:evenodd;stroke:none"
         d="m 412.418,1211.11 88.445,167.07 H 323.961 l 88.457,-167.07 v 0" /><path
         id="path22"
         style="fill:none;stroke:#231f20;stroke-width:8.48799992;stroke-linecap:butt;stroke-linejoin:miter;stroke-miterlimit:10;stroke-dasharray:none;stroke-opacity:1"
         d="m 412.418,1211.11 88.445,167.07 H 323.961 l 88.457,-167.07 z" /><path
         id="path24"
         style="fill:none;stroke:#231f20;stroke-width:10;stroke-linecap:butt;stroke-linejoin:miter;stroke-miterlimit:10;stroke-dasharray:40, 20;stroke-dashoffset:0;stroke-opacity:1"
         d="m 728.168,725.32 c 0,0 0,0 -2.117,-17.66 -2.121,-17.66 -6.36,-52.98 19.777,-58.629 26.125,-5.652 82.641,18.367 127.141,22.61 44.504,4.238 76.992,-11.313 65.691,-36.731 -11.297,-25.43 -66.402,-60.75 -81.238,-84.769 -14.824,-24.012 10.605,-36.731 43.098,-36.731 32.488,0 72.039,12.719 101.72,9.891 29.66,-2.832 49.44,-21.192 39.55,-43.09 -9.89,-21.891 -49.446,-47.32 -64.981,-70.629 -15.539,-23.312 -7.063,-44.512 16.953,-52.273 24.018,-7.778 63.568,-2.118 83.348,0.703 19.77,2.828 19.77,2.828 19.77,2.828" /><path
         id="path26"
         style="fill:#c8c7c7;fill-opacity:1;fill-rule:evenodd;stroke:none"
         d="m 734.18,870.969 88.457,-167.09 H 645.723 l 88.457,167.09 v 0" /><path
         id="path28"
         style="fill:none;stroke:#231f20;stroke-width:8.48799992;stroke-linecap:butt;stroke-linejoin:miter;stroke-miterlimit:10;stroke-dasharray:none;stroke-opacity:1"
         d="m 734.18,870.969 88.457,-167.09 H 645.723 l 88.457,167.09 z" /><path
         id="path30"
         style="fill:#c8c7c7;fill-opacity:1;fill-rule:evenodd;stroke:none"
         d="m 1094.3,357.34 88.45,-167.078 h -176.9 l 88.45,167.078 v 0" /><path
         id="path32"
         style="fill:none;stroke:#231f20;stroke-width:8.48799992;stroke-linecap:butt;stroke-linejoin:miter;stroke-miterlimit:10;stroke-dasharray:none;stroke-opacity:1"
         d="m 1094.3,357.34 88.45,-167.078 h -176.9 l 88.45,167.078 z" /><g
         transform="scale(10)"
         id="g34"><text
           id="text38"
           style="font-style:italic;font-variant:normal;font-size:10px;font-family:'Times New Roman';-inkscape-font-specification:Times-Italic;writing-mode:lr-tb;fill:#231f20;fill-opacity:1;fill-rule:nonzero;stroke:none"
           transform="matrix(1,0,0,-1,22.8867,126.376)"><tspan
             id="tspan36"
             y="0"
             x="0">n</tspan></text>
<text
           id="text42"
           style="font-variant:normal;font-weight:normal;font-size:6px;font-family:'Times New Roman';-inkscape-font-specification:Times-Roman;writing-mode:lr-tb;fill:#231f20;fill-opacity:1;fill-rule:nonzero;stroke:none"
           transform="matrix(1,0,0,-1,27.8867,124.376)"><tspan
             id="tspan40"
             y="0"
             x="0">1</tspan></text>
<text
           id="text46"
           style="font-style:italic;font-variant:normal;font-size:10px;font-family:'Times New Roman';-inkscape-font-specification:Times-Italic;writing-mode:lr-tb;fill:#231f20;fill-opacity:1;fill-rule:nonzero;stroke:none"
           transform="matrix(1,0,0,-1,86.8867,78.8764)"><tspan
             id="tspan44"
             y="0"
             x="0">n</tspan></text>
<text
           id="text50"
           style="font-variant:normal;font-weight:normal;font-size:6px;font-family:'Times New Roman';-inkscape-font-specification:Times-Roman;writing-mode:lr-tb;fill:#231f20;fill-opacity:1;fill-rule:nonzero;stroke:none"
           transform="matrix(1,0,0,-1,91.8867,76.8764)"><tspan
             id="tspan48"
             y="0"
             x="0">2</tspan></text>
<text
           id="text54"
           style="font-style:italic;font-variant:normal;font-size:10px;font-family:'Times New Roman';-inkscape-font-specification:Times-Italic;writing-mode:lr-tb;fill:#231f20;fill-opacity:1;fill-rule:nonzero;stroke:none"
           transform="matrix(1,0,0,-1,106.8031,6.1264)"><tspan
             id="tspan52"
             y="0"
             x="0">n</tspan></text>
<text
           id="text58"
           style="font-style:italic;font-variant:normal;font-size:6px;font-family:'Times New Roman';-inkscape-font-specification:Times-Italic;writing-mode:lr-tb;fill:#231f20;fill-opacity:1;fill-rule:nonzero;stroke:none"
           transform="matrix(1,0,0,-1,111.8031,4.1264)"><tspan
             id="tspan56"
             y="0"
             x="0">j</tspan></text>
</g></g></g></svg>