<?xml version="1.0" encoding="UTF-8" standalone="no"?>
<svg
   xmlns:dc="http://purl.org/dc/elements/1.1/"
   xmlns:cc="http://creativecommons.org/ns#"
   xmlns:rdf="http://www.w3.org/1999/02/22-rdf-syntax-ns#"
   xmlns:svg="http://www.w3.org/2000/svg"
   xmlns="http://www.w3.org/2000/svg"
   viewBox="0 0 420.44 96.973335"
   height="96.973335"
   width="420.44"
   xml:space="preserve"
   id="svg2"
   version="1.1"><metadata
     id="metadata8"><rdf:RDF><cc:Work
         rdf:about=""><dc:format>image/svg+xml</dc:format><dc:type
           rdf:resource="http://purl.org/dc/dcmitype/StillImage" /></cc:Work></rdf:RDF></metadata><defs
     id="defs6" /><g
     transform="matrix(1.3333333,0,0,-1.3333333,0,96.973333)"
     id="g10"><g
       transform="scale(0.1)"
       id="g12"><path
         id="path14"
         style="fill:#918f90;fill-opacity:1;fill-rule:evenodd;stroke:none"
         d="m 7.67969,720.211 c 0,0 0,0 142.20331,0 142.211,0 426.625,0 568.84,0 142.207,0 142.207,0 142.207,-11.379 0,-11.375 0,-34.129 0,-45.508 0,-11.375 0,-11.375 5.687,-11.375 5.688,0 17.067,0 22.754,0 5.688,0 5.688,0 11.375,5.688 5.692,5.687 17.063,17.066 28.438,17.066 11.379,0 22.754,-11.379 28.445,-22.754 5.687,-11.379 5.687,-22.754 0,-34.133 -5.691,-11.375 -17.066,-22.75 -28.445,-22.75 -11.375,0 -22.746,11.375 -28.438,17.063 -5.687,5.687 -5.687,5.687 -11.375,5.687 -5.687,0 -17.066,0 -22.754,0 -5.687,0 -5.687,0 -5.687,-11.375 0,-11.375 0,-34.132 0,-45.507 0,-11.379 0,-11.379 -142.207,-11.379 -142.215,0 -426.629,0 -568.84,0 -142.20331,0 -142.20331,0 -142.20331,11.379 0,11.375 0,34.132 0,45.507 0,11.375 0,11.375 5.68361,11.375 5.6875,0 17.0703,0 22.7539,0 5.6953,0 5.6953,0 11.3789,-5.687 5.6914,-5.688 17.0625,-17.063 28.4453,-17.063 11.375,0 22.75,11.375 28.4376,22.75 5.687,11.379 5.687,22.754 0,34.133 -5.6876,11.375 -17.0626,22.754 -28.4376,22.754 -11.3828,0 -22.7539,-11.379 -28.4453,-17.066 -5.6836,-5.688 -5.6836,-5.688 -11.3789,-5.688 -5.6836,0 -17.0664,0 -22.7539,0 -5.68361,0 -5.68361,0 -5.68361,11.375 0,11.379 0,34.133 0,45.508 0,11.379 0,11.379 0,11.379" /><path
         id="path16"
         style="fill:none;stroke:#231f20;stroke-width:14.19089985;stroke-linecap:butt;stroke-linejoin:miter;stroke-miterlimit:10;stroke-dasharray:none;stroke-opacity:1"
         d="m 7.67969,720.211 c 0,0 0,0 142.20331,0 142.211,0 426.625,0 568.84,0 142.207,0 142.207,0 142.207,-11.379 0,-11.375 0,-34.129 0,-45.508 0,-11.375 0,-11.375 5.687,-11.375 5.688,0 17.067,0 22.754,0 5.688,0 5.688,0 11.375,5.688 5.692,5.687 17.063,17.066 28.438,17.066 11.379,0 22.754,-11.379 28.445,-22.754 5.687,-11.379 5.687,-22.754 0,-34.133 -5.691,-11.375 -17.066,-22.75 -28.445,-22.75 -11.375,0 -22.746,11.375 -28.438,17.063 -5.687,5.687 -5.687,5.687 -11.375,5.687 -5.687,0 -17.066,0 -22.754,0 -5.687,0 -5.687,0 -5.687,-11.375 0,-11.375 0,-34.132 0,-45.507 0,-11.379 0,-11.379 -142.207,-11.379 -142.215,0 -426.629,0 -568.84,0 -142.20331,0 -142.20331,0 -142.20331,11.379 0,11.375 0,34.132 0,45.507 0,11.375 0,11.375 5.68361,11.375 5.6875,0 17.0703,0 22.7539,0 5.6953,0 5.6953,0 11.3789,-5.687 5.6914,-5.688 17.0625,-17.063 28.4453,-17.063 11.375,0 22.75,11.375 28.4376,22.75 5.687,11.379 5.687,22.754 0,34.133 -5.6876,11.375 -17.0626,22.754 -28.4376,22.754 -11.3828,0 -22.7539,-11.379 -28.4453,-17.066 -5.6836,-5.688 -5.6836,-5.688 -11.3789,-5.688 -5.6836,0 -17.0664,0 -22.7539,0 -5.68361,0 -5.68361,0 -5.68361,11.375 0,11.379 0,34.133 0,45.508 0,11.379 0,11.379 0,11.379" /><path
         id="path18"
         style="fill:#918f90;fill-opacity:1;fill-rule:evenodd;stroke:none"
         d="m 9.45703,441.129 c 0.35547,6.039 0.35547,6.039 5.69137,6.039 5.3243,0 15.9961,0 51.1954,-2.844 35.1952,-2.844 94.9182,-8.539 150.3792,-19.195 55.461,-10.664 106.656,-26.313 162.832,-49.774 56.168,-23.46 117.32,-54.761 172.425,-90.66 55.106,-35.918 104.168,-76.441 132.61,-100.601 28.441,-24.192 36.262,-32.004 40.172,-35.91 3.91,-3.918 3.91,-3.918 -3.91,-12.082 -7.821,-8.192 -23.465,-24.539 -31.286,-32.715 -7.82,-8.1722 -7.82,-8.1722 -3.195,-12.4417 4.613,-4.2734 13.863,-12.8086 18.484,-17.0664 4.618,-4.2812 4.618,-4.2812 11.02,-5.332 6.406,-1.0664 19.199,-3.2031 25.594,-10.6641 6.398,-7.4609 6.398,-20.2773 1.422,-30.2148 -4.969,-9.9649 -14.93,-17.0821 -25.953,-19.56253 -11.016,-2.49219 -23.11,-0.36328 -28.438,6.04293 -5.332,6.3985 -3.91,17.0704 -3.203,22.3829 0.715,5.3437 0.715,5.3437 -3.906,10.6875 -4.621,5.332 -13.868,15.996 -18.485,21.3281 -4.629,5.332 -4.629,5.332 -12.445,-2.8555 -7.824,-8.1641 -23.465,-24.5312 -31.289,-32.7031 -7.82,-8.1758 -7.82,-8.1758 -24.891,6.4062 -17.058,14.5782 -51.191,43.7188 -91.359,72.1685 -40.18,28.449 -86.395,56.16 -134.035,78.914 -47.637,22.753 -96.703,40.546 -139.004,52.992 -42.309,12.429 -77.867,19.539 -110.215,24.16 -32.3516,4.617 -61.5039,6.758 -79.6367,7.832 -18.1329,1.051 -25.2422,1.051 -28.793,1.051 -3.55861,0 -3.55861,0 -3.55861,11.027 0,11.035 0,33.055 0,44.094 0,11.012 0,11.012 5.68361,11.012 5.6875,0 17.0703,0 23.1094,0 6.0468,0 6.7578,0 12.0976,-4.981 5.3281,-4.98 15.2813,-14.93 26.3008,-14.93 11.0234,0 23.1133,9.95 28.8009,20.985 5.687,11.015 4.98,23.101 -1.07,34.832 -6.0395,11.73 -17.4223,23.113 -27.7309,22.758 -10.3125,-0.352 -19.5547,-12.446 -24.5273,-18.141 -4.9766,-5.68 -5.6915,-4.969 -12.4415,-4.258 -6.7578,0.707 -19.5585,1.426 -25.5976,1.426 -6.04298,0 -5.33595,-0.719 -4.98048,-1.074 0.35547,-0.352 0.35547,-0.352 0.35547,4.98 0,5.332 0,15.996 0.36328,27.375 0.34375,11.375 1.05859,23.461 1.41406,29.512" /><path
         id="path20"
         style="fill:none;stroke:#231f20;stroke-width:14.19089985;stroke-linecap:butt;stroke-linejoin:miter;stroke-miterlimit:10;stroke-dasharray:none;stroke-opacity:1"
         d="m 9.45703,441.129 c 0.35547,6.039 0.35547,6.039 5.69137,6.039 5.3243,0 15.9961,0 51.1954,-2.844 35.1952,-2.844 94.9182,-8.539 150.3792,-19.195 55.461,-10.664 106.656,-26.313 162.832,-49.774 56.168,-23.46 117.32,-54.761 172.425,-90.66 55.106,-35.918 104.168,-76.441 132.61,-100.601 28.441,-24.192 36.262,-32.004 40.172,-35.91 3.91,-3.918 3.91,-3.918 -3.91,-12.082 -7.821,-8.192 -23.465,-24.539 -31.286,-32.715 -7.82,-8.1722 -7.82,-8.1722 -3.195,-12.4417 4.613,-4.2734 13.863,-12.8086 18.484,-17.0664 4.618,-4.2812 4.618,-4.2812 11.02,-5.332 6.406,-1.0664 19.199,-3.2031 25.594,-10.6641 6.398,-7.4609 6.398,-20.2773 1.422,-30.2148 -4.969,-9.9649 -14.93,-17.0821 -25.953,-19.56253 -11.016,-2.49219 -23.11,-0.36328 -28.438,6.04293 -5.332,6.3985 -3.91,17.0704 -3.203,22.3829 0.715,5.3437 0.715,5.3437 -3.906,10.6875 -4.621,5.332 -13.868,15.996 -18.485,21.3281 -4.629,5.332 -4.629,5.332 -12.445,-2.8555 -7.824,-8.1641 -23.465,-24.5312 -31.289,-32.7031 -7.82,-8.1758 -7.82,-8.1758 -24.891,6.4062 -17.058,14.5782 -51.191,43.7188 -91.359,72.1685 -40.18,28.449 -86.395,56.16 -134.035,78.914 -47.637,22.753 -96.703,40.546 -139.004,52.992 -42.309,12.429 -77.867,19.539 -110.215,24.16 -32.3516,4.617 -61.5039,6.758 -79.6367,7.832 -18.1329,1.051 -25.2422,1.051 -28.793,1.051 -3.55861,0 -3.55861,0 -3.55861,11.027 0,11.035 0,33.055 0,44.094 0,11.012 0,11.012 5.68361,11.012 5.6875,0 17.0703,0 23.1094,0 6.0468,0 6.7578,0 12.0976,-4.981 5.3281,-4.98 15.2813,-14.93 26.3008,-14.93 11.0234,0 23.1133,9.95 28.8009,20.985 5.687,11.015 4.98,23.101 -1.07,34.832 -6.0395,11.73 -17.4223,23.113 -27.7309,22.758 -10.3125,-0.352 -19.5547,-12.446 -24.5273,-18.141 -4.9766,-5.68 -5.6915,-4.969 -12.4415,-4.258 -6.7578,0.707 -19.5585,1.426 -25.5976,1.426 -6.04298,0 -5.33595,-0.719 -4.98048,-1.074 0.35547,-0.352 0.35547,-0.352 0.35547,4.98 0,5.332 0,15.996 0.36328,27.375 0.34375,11.375 1.05859,23.461 1.41406,29.512" /><path
         id="path22"
         style="fill:#918f90;fill-opacity:1;fill-rule:evenodd;stroke:none"
         d="m 1108.28,720.211 c 0,0 -4.1,0 133.76,0 142.21,0 426.63,0 568.82,0 142.22,0 142.22,0 142.22,-11.379 0,-11.375 0,-34.129 0,-45.508 0,-11.375 0,-11.375 5.69,-11.375 5.7,0 17.06,0 22.75,0 5.7,0 5.7,0 11.38,5.688 5.69,5.687 17.08,17.066 28.44,17.066 11.39,0 22.76,-11.379 28.44,-22.754 5.68,-11.379 5.68,-22.754 0,-34.133 -5.68,-11.375 -17.05,-22.75 -28.44,-22.75 -11.36,0 -22.75,11.375 -28.44,17.063 -5.68,5.687 -5.68,5.687 -11.38,5.687 -5.69,0 -17.05,0 -22.75,0 -5.69,0 -5.69,0 -5.69,-11.375 0,-11.375 0,-34.132 0,-45.507 0,-11.379 0,-11.379 -142.22,-11.379 -142.19,0 -426.61,0 -568.82,0 -142.21,0 -142.21,0 -142.21,11.379 0,11.375 0,34.132 0,45.507 0,11.375 0,11.375 5.7,11.375 5.68,0 17.06,0 22.75,0 5.68,0 5.68,0 11.38,-5.687 5.68,-5.688 17.06,-17.063 28.44,-17.063 11.37,0 22.75,11.375 28.44,22.75 5.69,11.379 5.69,22.754 0,34.133 -5.69,11.375 -17.07,22.754 -28.44,22.754 -11.38,0 -22.76,-11.379 -28.44,-17.066 -5.7,-5.688 -5.7,-5.688 -11.38,-5.688 -5.69,0 -17.07,0 -22.75,0 -5.7,0 -5.7,0 -5.7,11.375 0,11.379 0,34.133 0,45.508 0,3.238 2.99,11.379 2.99,11.379" /><path
         id="path24"
         style="fill:none;stroke:#231f20;stroke-width:14.19089985;stroke-linecap:butt;stroke-linejoin:miter;stroke-miterlimit:10;stroke-dasharray:none;stroke-opacity:1"
         d="m 1108.28,720.211 c 0,0 -4.1,0 133.76,0 142.21,0 426.63,0 568.82,0 142.22,0 142.22,0 142.22,-11.379 0,-11.375 0,-34.129 0,-45.508 0,-11.375 0,-11.375 5.69,-11.375 5.7,0 17.06,0 22.75,0 5.7,0 5.7,0 11.38,5.688 5.69,5.687 17.08,17.066 28.44,17.066 11.39,0 22.76,-11.379 28.44,-22.754 5.68,-11.379 5.68,-22.754 0,-34.133 -5.68,-11.375 -17.05,-22.75 -28.44,-22.75 -11.36,0 -22.75,11.375 -28.44,17.063 -5.68,5.687 -5.68,5.687 -11.38,5.687 -5.69,0 -17.05,0 -22.75,0 -5.69,0 -5.69,0 -5.69,-11.375 0,-11.375 0,-34.132 0,-45.507 0,-11.379 0,-11.379 -142.22,-11.379 -142.19,0 -426.61,0 -568.82,0 -142.21,0 -142.21,0 -142.21,11.379 0,11.375 0,34.132 0,45.507 0,11.375 0,11.375 5.7,11.375 5.68,0 17.06,0 22.75,0 5.68,0 5.68,0 11.38,-5.687 5.68,-5.688 17.06,-17.063 28.44,-17.063 11.37,0 22.75,11.375 28.44,22.75 5.69,11.379 5.69,22.754 0,34.133 -5.69,11.375 -17.07,22.754 -28.44,22.754 -11.38,0 -22.76,-11.379 -28.44,-17.066 -5.7,-5.688 -5.7,-5.688 -11.38,-5.688 -5.69,0 -17.07,0 -22.75,0 -5.7,0 -5.7,0 -5.7,11.375 0,11.379 0,34.133 0,45.508 0,3.238 2.99,11.379 2.99,11.379" /><path
         id="path26"
         style="fill:#918f90;fill-opacity:1;fill-rule:evenodd;stroke:none"
         d="m 1101.62,714.16 c 0.35,6.051 0.35,6.051 5.68,6.051 5.33,0 16,0 51.2,-2.848 35.19,-2.843 94.92,-8.531 150.38,-19.199 55.46,-10.668 106.66,-26.309 162.82,-49.769 56.18,-23.465 117.32,-54.754 172.43,-90.661 55.11,-35.902 104.17,-76.441 132.61,-100.609 28.45,-24.176 36.26,-31.996 40.17,-35.906 3.92,-3.914 3.92,-3.914 -3.91,-12.094 -7.81,-8.168 -23.45,-24.527 -31.29,-32.699 -7.81,-8.184 -7.81,-8.184 -3.18,-12.446 4.6,-4.269 13.85,-12.8 18.48,-17.066 4.63,-4.269 4.63,-4.269 11.02,-5.332 6.4,-1.066 19.19,-3.195 25.59,-10.676 6.41,-7.461 6.41,-20.254 1.43,-30.215 -4.98,-9.961 -14.94,-17.058 -25.95,-19.55 -11.03,-2.489 -23.11,-0.36 -28.44,6.047 -5.34,6.398 -3.92,17.058 -3.2,22.39 0.72,5.332 0.72,5.332 -3.91,10.676 -4.63,5.32 -13.87,15.996 -18.49,21.328 -4.62,5.332 -4.62,5.332 -12.44,-2.844 -7.83,-8.183 -23.46,-24.539 -31.3,-32.715 -7.81,-8.164 -7.81,-8.164 -24.88,6.399 -17.06,14.582 -51.19,43.738 -91.37,72.176 -40.17,28.433 -86.38,56.168 -134.03,78.922 -47.64,22.753 -96.7,40.535 -139,52.972 -42.31,12.449 -77.87,19.559 -110.22,24.176 -32.35,4.625 -61.5,6.758 -79.63,7.828 -18.13,1.059 -25.25,1.059 -28.8,1.059 -3.56,0 -3.56,0 -3.56,11.027 0,11.016 0,33.059 0,44.086 0,11.016 0,11.016 5.7,11.016 5.68,0 17.06,0 23.1,0 6.05,0 6.76,0 12.09,-4.977 5.33,-4.984 15.29,-14.926 26.31,-14.926 11.02,0 23.1,9.942 28.8,20.973 5.68,11.016 4.97,23.109 -1.07,34.844 -6.04,11.726 -17.42,23.105 -27.73,22.746 -10.31,-0.356 -19.56,-12.434 -24.53,-18.129 -4.98,-5.688 -5.69,-4.977 -12.45,-4.266 -6.75,0.711 -19.56,1.699 -25.6,1.418 -3.79,-0.168 -3.12,2.422 -2.77,2.063 0,0 -1.85,-3.481 -1.85,1.851 0,5.332 0,15.996 0.36,27.371 0.36,11.383 1.06,23.461 1.43,29.508" /><path
         id="path28"
         style="fill:none;stroke:#231f20;stroke-width:14.19089985;stroke-linecap:butt;stroke-linejoin:miter;stroke-miterlimit:10;stroke-dasharray:none;stroke-opacity:1"
         d="m 1101.62,714.16 c 0.35,6.051 0.35,6.051 5.68,6.051 5.33,0 16,0 51.2,-2.848 35.19,-2.843 94.92,-8.531 150.38,-19.199 55.46,-10.668 106.66,-26.309 162.82,-49.769 56.18,-23.465 117.32,-54.754 172.43,-90.661 55.11,-35.902 104.17,-76.441 132.61,-100.609 28.45,-24.176 36.26,-31.996 40.17,-35.906 3.92,-3.914 3.92,-3.914 -3.91,-12.094 -7.81,-8.168 -23.45,-24.527 -31.29,-32.699 -7.81,-8.184 -7.81,-8.184 -3.18,-12.446 4.6,-4.269 13.85,-12.8 18.48,-17.066 4.63,-4.269 4.63,-4.269 11.02,-5.332 6.4,-1.066 19.19,-3.195 25.59,-10.676 6.41,-7.461 6.41,-20.254 1.43,-30.215 -4.98,-9.961 -14.94,-17.058 -25.95,-19.55 -11.03,-2.489 -23.11,-0.36 -28.44,6.047 -5.34,6.398 -3.92,17.058 -3.2,22.39 0.72,5.332 0.72,5.332 -3.91,10.676 -4.63,5.32 -13.87,15.996 -18.49,21.328 -4.62,5.332 -4.62,5.332 -12.44,-2.844 -7.83,-8.183 -23.46,-24.539 -31.3,-32.715 -7.81,-8.164 -7.81,-8.164 -24.88,6.399 -17.06,14.582 -51.19,43.738 -91.37,72.176 -40.17,28.433 -86.38,56.168 -134.03,78.922 -47.64,22.753 -96.7,40.535 -139,52.972 -42.31,12.449 -77.87,19.559 -110.22,24.176 -32.35,4.625 -61.5,6.758 -79.63,7.828 -18.13,1.059 -25.25,1.059 -28.8,1.059 -3.56,0 -3.56,0 -3.56,11.027 0,11.016 0,33.059 0,44.086 0,11.016 0,11.016 5.7,11.016 5.68,0 17.06,0 23.1,0 6.05,0 6.76,0 12.09,-4.977 5.33,-4.984 15.29,-14.926 26.31,-14.926 11.02,0 23.1,9.942 28.8,20.973 5.68,11.016 4.97,23.109 -1.07,34.844 -6.04,11.726 -17.42,23.105 -27.73,22.746 -10.31,-0.356 -19.56,-12.434 -24.53,-18.129 -4.98,-5.688 -5.69,-4.977 -12.45,-4.266 -6.75,0.711 -19.56,1.699 -25.6,1.418 -3.79,-0.168 -3.12,2.422 -2.77,2.063 0,0 -1.85,-3.481 -1.85,1.851 0,5.332 0,15.996 0.36,27.371 0.36,11.383 1.06,23.461 1.43,29.508" /><path
         id="path30"
         style="fill:#918f90;fill-opacity:1;fill-rule:evenodd;stroke:none"
         d="m 1105.32,695.926 128.2,-19.16 394.76,-122.786 h 49.37 l -157.1,154.278 -197.31,7.539 h -217 l -0.92,-19.871" /><path
         id="path32"
         style="fill:#918f90;fill-opacity:1;fill-rule:evenodd;stroke:none"
         d="m 2325.79,419.004 c -4.02,4.527 -4.02,4.527 -0.25,8.297 3.78,3.769 11.3,11.312 38.21,34.183 26.9,22.879 73.16,61.09 119.9,92.762 46.77,31.676 94.03,56.817 150.34,79.942 56.32,23.132 121.68,44.25 186.03,57.824 64.36,13.578 127.71,19.609 164.92,22.625 37.2,3.019 48.27,3.019 53.79,3.019 5.52,0 5.52,0 5.78,-11.312 0.25,-11.317 0.76,-33.942 1,-45.25 0.27,-11.313 0.27,-11.313 6.55,-11.067 6.27,0.25 18.84,0.754 25.13,1.008 6.29,0.25 6.29,0.25 11.56,4.024 5.3,3.765 15.84,11.308 25.66,10.554 9.79,-0.75 18.85,-9.797 22.36,-20.363 3.52,-10.555 1.52,-22.621 -4.51,-32.176 -6.04,-9.551 -16.09,-16.59 -24.39,-15.84 -8.3,0.754 -14.85,9.305 -18.11,13.575 -3.26,4.273 -3.26,4.273 -10.29,4.777 -7.05,0.508 -21.14,1.512 -28.17,2.012 -7.05,0.504 -7.05,0.504 -6.79,-10.805 0.25,-11.32 0.76,-33.938 1,-45.254 0.27,-11.309 0.27,-11.309 -22.12,-13.07 -22.37,-1.758 -67.13,-5.278 -115.64,-13.578 -48.52,-8.293 -100.8,-21.368 -150.57,-38.957 -49.78,-17.598 -97.05,-39.727 -135.76,-60.844 -38.71,-21.11 -68.88,-41.227 -95.02,-60.836 -26.15,-19.617 -48.27,-38.719 -61.84,-50.777 -13.58,-12.071 -18.61,-17.09 -21.13,-19.622 -2.51,-2.5 -2.51,-2.5 -10.3,5.293 -7.78,7.786 -23.39,23.379 -31.17,31.165 -7.79,7.8 -7.79,7.8 -3.76,11.816 4,4.031 12.06,12.07 16.33,16.344 4.27,4.269 4.78,4.781 12.07,5.027 7.29,0.25 21.36,0.25 29.17,8.047 7.78,7.789 9.28,23.375 5.51,35.195 -3.76,11.813 -12.82,19.86 -25.39,23.879 -12.56,4.024 -28.66,4.024 -35.69,-3.523 -7.04,-7.539 -5.03,-22.621 -4.52,-30.164 0.49,-7.539 -0.51,-7.539 -5.78,-11.813 -5.28,-4.273 -14.85,-12.82 -19.1,-17.098 -4.29,-4.273 -0.51,0 0,0 0.49,0 -2.27,-4.273 -6.05,-0.5 -3.76,3.77 -11.31,11.309 -19.09,19.61 -7.79,8.293 -15.85,17.344 -19.87,21.871" /><path
         id="path34"
         style="fill:none;stroke:#231f20;stroke-width:14.19089985;stroke-linecap:butt;stroke-linejoin:miter;stroke-miterlimit:10;stroke-dasharray:none;stroke-opacity:1"
         d="m 2325.79,419.004 c -4.02,4.527 -4.02,4.527 -0.25,8.297 3.78,3.769 11.3,11.312 38.21,34.183 26.9,22.879 73.16,61.09 119.9,92.762 46.77,31.676 94.03,56.817 150.34,79.942 56.32,23.132 121.68,44.25 186.03,57.824 64.36,13.578 127.71,19.609 164.92,22.625 37.2,3.019 48.27,3.019 53.79,3.019 5.52,0 5.52,0 5.78,-11.312 0.25,-11.317 0.76,-33.942 1,-45.25 0.27,-11.313 0.27,-11.313 6.55,-11.067 6.27,0.25 18.84,0.754 25.13,1.008 6.29,0.25 6.29,0.25 11.56,4.024 5.3,3.765 15.84,11.308 25.66,10.554 9.79,-0.75 18.85,-9.797 22.36,-20.363 3.52,-10.555 1.52,-22.621 -4.51,-32.176 -6.04,-9.551 -16.09,-16.59 -24.39,-15.84 -8.3,0.754 -14.85,9.305 -18.11,13.575 -3.26,4.273 -3.26,4.273 -10.29,4.777 -7.05,0.508 -21.14,1.512 -28.17,2.012 -7.05,0.504 -7.05,0.504 -6.79,-10.805 0.25,-11.32 0.76,-33.938 1,-45.254 0.27,-11.309 0.27,-11.309 -22.12,-13.07 -22.37,-1.758 -67.13,-5.278 -115.64,-13.578 -48.52,-8.293 -100.8,-21.368 -150.57,-38.957 -49.78,-17.598 -97.05,-39.727 -135.76,-60.844 -38.71,-21.11 -68.88,-41.227 -95.02,-60.836 -26.15,-19.617 -48.27,-38.719 -61.84,-50.777 -13.58,-12.071 -18.61,-17.09 -21.13,-19.622 -2.51,-2.5 -2.51,-2.5 -10.3,5.293 -7.78,7.786 -23.39,23.379 -31.17,31.165 -7.79,7.8 -7.79,7.8 -3.76,11.816 4,4.031 12.06,12.07 16.33,16.344 4.27,4.269 4.78,4.781 12.07,5.027 7.29,0.25 21.36,0.25 29.17,8.047 7.78,7.789 9.28,23.375 5.51,35.195 -3.76,11.813 -12.82,19.86 -25.39,23.879 -12.56,4.024 -28.66,4.024 -35.69,-3.523 -7.04,-7.539 -5.03,-22.621 -4.52,-30.164 0.49,-7.539 -0.51,-7.539 -5.78,-11.813 -5.28,-4.273 -14.85,-12.82 -19.1,-17.098 -4.29,-4.273 -0.51,0 0,0 0.49,0 -2.27,-4.273 -6.05,-0.5 -3.76,3.77 -11.31,11.309 -19.09,19.61 -7.79,8.293 -15.85,17.344 -19.87,21.871" /><path
         id="path36"
         style="fill:#918f90;fill-opacity:1;fill-rule:evenodd;stroke:none"
         d="m 2193.92,720.211 c 0,0 -1.93,0 140.27,0 142.21,0 426.64,0 568.84,0 142.2,0 142.2,0 142.2,-11.379 0,-11.375 0,-34.129 0,-45.508 0,-11.375 0,-11.375 5.7,-11.375 5.69,0 17.05,0 22.75,0 5.67,0 5.67,0 11.36,5.688 5.7,5.687 17.08,17.066 28.45,17.066 11.39,0 22.76,-11.379 28.44,-22.754 5.7,-11.379 5.7,-22.754 0,-34.133 -5.68,-11.375 -17.05,-22.75 -28.44,-22.75 -11.37,0 -22.75,11.375 -28.45,17.063 -5.69,5.687 -5.69,5.687 -11.36,5.687 -5.7,0 -17.06,0 -22.75,0 -5.7,0 -5.7,0 -5.7,-11.375 0,-11.375 0,-34.132 0,-45.507 0,-11.375 0,-11.375 -142.2,-11.375 -142.2,0 -426.63,0 -568.84,0 -142.2,0 -142.2,0 -142.2,11.375 0,11.375 0,34.132 0,45.507 0,11.375 0,11.375 5.69,11.375 5.69,0 17.06,0 22.74,0 5.71,0 5.71,0 11.39,-5.687 5.69,-5.688 17.07,-17.063 28.44,-17.063 11.37,0 22.75,11.375 28.45,22.75 5.69,11.379 5.69,22.754 0,34.133 -5.7,11.375 -17.08,22.754 -28.45,22.754 -11.37,0 -22.75,-11.379 -28.44,-17.066 -5.68,-5.688 -5.68,-5.688 -11.39,-5.688 -5.68,0 -17.05,0 -22.74,0 -5.69,0 -5.69,0 -5.69,11.375 0,11.379 0,34.133 0,45.508 0,12.356 0,11.379 0,11.379" /><path
         id="path38"
         style="fill:none;stroke:#231f20;stroke-width:14.19089985;stroke-linecap:butt;stroke-linejoin:miter;stroke-miterlimit:10;stroke-dasharray:none;stroke-opacity:1"
         d="m 2193.92,720.211 c 0,0 -1.93,0 140.27,0 142.21,0 426.64,0 568.84,0 142.2,0 142.2,0 142.2,-11.379 0,-11.375 0,-34.129 0,-45.508 0,-11.375 0,-11.375 5.7,-11.375 5.69,0 17.05,0 22.75,0 5.67,0 5.67,0 11.36,5.688 5.7,5.687 17.08,17.066 28.45,17.066 11.39,0 22.76,-11.379 28.44,-22.754 5.7,-11.379 5.7,-22.754 0,-34.133 -5.68,-11.375 -17.05,-22.75 -28.44,-22.75 -11.37,0 -22.75,11.375 -28.45,17.063 -5.69,5.687 -5.69,5.687 -11.36,5.687 -5.7,0 -17.06,0 -22.75,0 -5.7,0 -5.7,0 -5.7,-11.375 0,-11.375 0,-34.132 0,-45.507 0,-11.375 0,-11.375 -142.2,-11.375 -142.2,0 -426.63,0 -568.84,0 -142.2,0 -142.2,0 -142.2,11.375 0,11.375 0,34.132 0,45.507 0,11.375 0,11.375 5.69,11.375 5.69,0 17.06,0 22.74,0 5.71,0 5.71,0 11.39,-5.687 5.69,-5.688 17.07,-17.063 28.44,-17.063 11.37,0 22.75,11.375 28.45,22.75 5.69,11.379 5.69,22.754 0,34.133 -5.7,11.375 -17.08,22.754 -28.45,22.754 -11.37,0 -22.75,-11.379 -28.44,-17.066 -5.68,-5.688 -5.68,-5.688 -11.39,-5.688 -5.68,0 -17.05,0 -22.74,0 -5.69,0 -5.69,0 -5.69,11.375 0,11.379 0,34.133 0,45.508 0,12.356 0,11.379 0,11.379" /><path
         id="path40"
         style="fill:#918f90;fill-opacity:1;fill-rule:evenodd;stroke:none"
         d="m 2910.95,541.09 128.32,16.273 -562.52,18.856 v -52.254 l 434.2,17.125" /><g
         transform="scale(10)"
         id="g42"><text
           id="text52"
           style="font-variant:normal;font-weight:normal;font-size:9.99995995px;font-family:Helvetica;-inkscape-font-specification:Helvetica;writing-mode:lr-tb;fill:#231f20;fill-opacity:1;fill-rule:nonzero;stroke:none"
           transform="matrix(1,0,0,-1,49.6586,44.1836)"><tspan
             id="tspan44"
             y="0"
             x="0 4.99998 7.7799687 13.339947">x 12</tspan><tspan
             id="tspan46"
             y="34.835201"
             x="-32.802299 -27.80232 -25.022331 -19.462353">x 16</tspan><tspan
             id="tspan48"
             y="6.0176001"
             x="77.266701 82.266678 85.046669">x 2</tspan><tspan
             id="tspan50"
             y="5.9347873"
             x="224.03371 229.03368 231.81367">x 2</tspan></text>
</g></g></g></svg>