<?xml version="1.0" encoding="UTF-8" standalone="no"?>
<svg
   xmlns:dc="http://purl.org/dc/elements/1.1/"
   xmlns:cc="http://creativecommons.org/ns#"
   xmlns:rdf="http://www.w3.org/1999/02/22-rdf-syntax-ns#"
   xmlns:svg="http://www.w3.org/2000/svg"
   xmlns="http://www.w3.org/2000/svg"
   viewBox="0 0 316.58667 173.38667"
   height="173.38667"
   width="316.58667"
   xml:space="preserve"
   id="svg2"
   version="1.1"><metadata
     id="metadata8"><rdf:RDF><cc:Work
         rdf:about=""><dc:format>image/svg+xml</dc:format><dc:type
           rdf:resource="http://purl.org/dc/dcmitype/StillImage" /></cc:Work></rdf:RDF></metadata><defs
     id="defs6" /><g
     transform="matrix(1.3333333,0,0,-1.3333333,0,173.38667)"
     id="g10"><g
       transform="scale(0.1)"
       id="g12"><path
         id="path14"
         style="fill:none;stroke:#231f20;stroke-width:10;stroke-linecap:butt;stroke-linejoin:miter;stroke-miterlimit:10;stroke-dasharray:none;stroke-opacity:1"
         d="M 50.7852,5 V 1295.41 H 2356.88 L 2356.88,5 Z" /><path
         id="path16"
         style="fill:#918f90;fill-opacity:1;fill-rule:evenodd;stroke:none"
         d="m 1353.52,699.836 c 0,112.59 -91.38,203.969 -203.97,203.969 -112.6,0 -203.976,-91.379 -203.976,-203.969 0,-112.59 91.376,-203.973 203.976,-203.973 112.59,0 203.97,91.383 203.97,203.973 v 0" /><path
         id="path18"
         style="fill:none;stroke:#231f20;stroke-width:10;stroke-linecap:butt;stroke-linejoin:miter;stroke-miterlimit:10;stroke-dasharray:none;stroke-opacity:1"
         d="m 1353.52,699.836 c 0,112.59 -91.38,203.969 -203.97,203.969 -112.6,0 -203.976,-91.379 -203.976,-203.969 0,-112.59 91.376,-203.973 203.976,-203.973 112.59,0 203.97,91.383 203.97,203.973 z" /><path
         id="path20"
         style="fill:#231f20;fill-opacity:1;fill-rule:evenodd;stroke:none"
         d="m 2369.36,1020.84 c 0,6.9 -5.61,12.5 -12.49,12.5 -6.9,0 -12.49,-5.6 -12.49,-12.5 0,-6.89 5.59,-12.48 12.49,-12.48 6.88,0 12.49,5.59 12.49,12.48 v 0" /><path
         id="path22"
         style="fill:none;stroke:#231f20;stroke-width:10;stroke-linecap:butt;stroke-linejoin:miter;stroke-miterlimit:10;stroke-dasharray:none;stroke-opacity:1"
         d="m 2369.36,1020.84 c 0,6.9 -5.61,12.5 -12.49,12.5 -6.9,0 -12.49,-5.6 -12.49,-12.5 0,-6.89 5.59,-12.48 12.49,-12.48 6.88,0 12.49,5.59 12.49,12.48 z" /><path
         id="path24"
         style="fill:#231f20;fill-opacity:1;fill-rule:evenodd;stroke:none"
         d="m 1039.38,539.594 c 0,6.89 -5.6,12.484 -12.5,12.484 -6.89,0 -12.48,-5.594 -12.48,-12.484 0,-6.899 5.59,-12.489 12.48,-12.489 6.9,0 12.5,5.59 12.5,12.489 v 0" /><path
         id="path26"
         style="fill:none;stroke:#231f20;stroke-width:10;stroke-linecap:butt;stroke-linejoin:miter;stroke-miterlimit:10;stroke-dasharray:none;stroke-opacity:1"
         d="m 1039.38,539.594 c 0,6.89 -5.6,12.484 -12.5,12.484 -6.89,0 -12.48,-5.594 -12.48,-12.484 0,-6.899 5.59,-12.489 12.48,-12.489 6.9,0 12.5,5.59 12.5,12.489 z" /><path
         id="path28"
         style="fill:#231f20;fill-opacity:1;fill-rule:evenodd;stroke:none"
         d="m 1037.29,862.168 c 0,6.895 -5.6,12.484 -12.5,12.484 -6.89,0 -12.48,-5.589 -12.48,-12.484 0,-6.895 5.59,-12.488 12.48,-12.488 6.9,0 12.5,5.593 12.5,12.488 v 0" /><path
         id="path30"
         style="fill:none;stroke:#231f20;stroke-width:10;stroke-linecap:butt;stroke-linejoin:miter;stroke-miterlimit:10;stroke-dasharray:none;stroke-opacity:1"
         d="m 1037.29,862.168 c 0,6.895 -5.6,12.484 -12.5,12.484 -6.89,0 -12.48,-5.589 -12.48,-12.484 0,-6.895 5.59,-12.488 12.48,-12.488 6.9,0 12.5,5.593 12.5,12.488 z" /><path
         id="path32"
         style="fill:#231f20;fill-opacity:1;fill-rule:evenodd;stroke:none"
         d="m 957.949,704.531 c 0,6.895 -5.594,12.489 -12.488,12.489 -6.898,0 -12.492,-5.594 -12.492,-12.489 0,-6.894 5.594,-12.484 12.492,-12.484 6.894,0 12.488,5.59 12.488,12.484 v 0" /><path
         id="path34"
         style="fill:none;stroke:#231f20;stroke-width:10;stroke-linecap:butt;stroke-linejoin:miter;stroke-miterlimit:10;stroke-dasharray:none;stroke-opacity:1"
         d="m 957.949,704.531 c 0,6.895 -5.594,12.489 -12.488,12.489 -6.898,0 -12.492,-5.594 -12.492,-12.489 0,-6.894 5.594,-12.484 12.492,-12.484 6.894,0 12.488,5.59 12.488,12.484 z" /><path
         id="path36"
         style="fill:#231f20;fill-opacity:1;fill-rule:evenodd;stroke:none"
         d="m 63.2891,520.801 c 0,6.89 -5.5938,12.492 -12.4844,12.492 -6.8945,0 -12.4883,-5.602 -12.4883,-12.492 0,-6.891 5.5938,-12.492 12.4883,-12.492 6.8906,0 12.4844,5.601 12.4844,12.492 v 0" /><path
         id="path38"
         style="fill:none;stroke:#231f20;stroke-width:10;stroke-linecap:butt;stroke-linejoin:miter;stroke-miterlimit:10;stroke-dasharray:none;stroke-opacity:1"
         d="m 63.2891,520.801 c 0,6.89 -5.5938,12.492 -12.4844,12.492 -6.8945,0 -12.4883,-5.602 -12.4883,-12.492 0,-6.891 5.5938,-12.492 12.4883,-12.492 6.8906,0 12.4844,5.601 12.4844,12.492 z" /><path
         id="path40"
         style="fill:#231f20;fill-opacity:1;fill-rule:evenodd;stroke:none"
         d="m 63.2891,895.57 c 0,6.895 -5.5938,12.493 -12.4844,12.493 -6.8945,0 -12.4883,-5.598 -12.4883,-12.493 0,-6.89 5.5938,-12.484 12.4883,-12.484 6.8906,0 12.4844,5.594 12.4844,12.484 v 0" /><path
         id="path42"
         style="fill:none;stroke:#231f20;stroke-width:10;stroke-linecap:butt;stroke-linejoin:miter;stroke-miterlimit:10;stroke-dasharray:none;stroke-opacity:1"
         d="m 63.2891,895.57 c 0,6.895 -5.5938,12.493 -12.4844,12.493 -6.8945,0 -12.4883,-5.598 -12.4883,-12.493 0,-6.89 5.5938,-12.484 12.4883,-12.484 6.8906,0 12.4844,5.594 12.4844,12.484 z" /><path
         id="path44"
         style="fill:#231f20;fill-opacity:1;fill-rule:evenodd;stroke:none"
         d="m 2369.36,367.344 c 0,6.89 -5.61,12.48 -12.49,12.48 -6.9,0 -12.49,-5.59 -12.49,-12.48 0,-6.899 5.59,-12.485 12.49,-12.485 6.88,0 12.49,5.586 12.49,12.485 v 0" /><path
         id="path46"
         style="fill:none;stroke:#231f20;stroke-width:10;stroke-linecap:butt;stroke-linejoin:miter;stroke-miterlimit:10;stroke-dasharray:none;stroke-opacity:1"
         d="m 2369.36,367.344 c 0,6.89 -5.61,12.48 -12.49,12.48 -6.9,0 -12.49,-5.59 -12.49,-12.48 0,-6.899 5.59,-12.485 12.49,-12.485 6.88,0 12.49,5.586 12.49,12.485 z" /><path
         id="path48"
         style="fill:#231f20;fill-opacity:1;fill-rule:evenodd;stroke:none"
         d="m 5,487.859 v 66.61 h 83.2539 v -66.61 H 5" /><path
         id="path50"
         style="fill:none;stroke:#231f20;stroke-width:10;stroke-linecap:butt;stroke-linejoin:miter;stroke-miterlimit:10;stroke-dasharray:none;stroke-opacity:1"
         d="m 5,487.859 v 66.61 h 83.2539 v -66.61 z" /><path
         id="path52"
         style="fill:#231f20;fill-opacity:1;fill-rule:evenodd;stroke:none"
         d="m 88.2539,504.516 33.3011,-16.657 v 66.61 L 88.2539,537.816 v -33.3" /><path
         id="path54"
         style="fill:none;stroke:#231f20;stroke-width:10;stroke-linecap:butt;stroke-linejoin:miter;stroke-miterlimit:10;stroke-dasharray:none;stroke-opacity:1"
         d="m 88.2539,504.516 33.3011,-16.657 v 66.61 L 88.2539,537.816 Z" /><path
         id="path56"
         style="fill:#231f20;fill-opacity:1;fill-rule:evenodd;stroke:none"
         d="m 5,854.176 v 66.601 H 88.2539 V 854.176 H 5" /><path
         id="path58"
         style="fill:none;stroke:#231f20;stroke-width:10;stroke-linecap:butt;stroke-linejoin:miter;stroke-miterlimit:10;stroke-dasharray:none;stroke-opacity:1"
         d="m 5,854.176 v 66.601 h 83.2539 v -66.601 z" /><path
         id="path60"
         style="fill:#231f20;fill-opacity:1;fill-rule:evenodd;stroke:none"
         d="m 88.2539,870.824 33.3011,-16.648 v 66.601 L 88.2539,904.125 v -33.301" /><path
         id="path62"
         style="fill:none;stroke:#231f20;stroke-width:10;stroke-linecap:butt;stroke-linejoin:miter;stroke-miterlimit:10;stroke-dasharray:none;stroke-opacity:1"
         d="m 88.2539,870.824 33.3011,-16.648 v 66.601 L 88.2539,904.125 Z" /><g
         transform="scale(10)"
         id="g64"><text
           id="text80"
           style="font-variant:normal;font-weight:normal;font-size:10px;font-family:Helvetica;-inkscape-font-specification:Helvetica;writing-mode:lr-tb;fill:#231f20;fill-opacity:1;fill-rule:nonzero;stroke:none"
           transform="matrix(1,0,0,-1,224.174,27.7238)"><tspan
             id="tspan66"
             y="0"
             x="0">E</tspan><tspan
             id="tspan68"
             y="-63.6656"
             x="-127.334">A</tspan><tspan
             id="tspan70"
             y="-39.1656"
             x="-141.084">B</tspan><tspan
             id="tspan72"
             y="-14.1656"
             x="-129.334">C</tspan><tspan
             id="tspan74"
             y="-46.499599"
             x="-214.7504">X</tspan><tspan
             id="tspan76"
             y="-9.7496004"
             x="-215.0004">Y</tspan><tspan
             id="tspan78"
             y="-75.249603"
             x="-0.00039999999">D</tspan></text>
</g></g></g></svg>