<?xml version="1.0" encoding="UTF-8" standalone="no"?>
<svg
   xmlns:dc="http://purl.org/dc/elements/1.1/"
   xmlns:cc="http://creativecommons.org/ns#"
   xmlns:rdf="http://www.w3.org/1999/02/22-rdf-syntax-ns#"
   xmlns:svg="http://www.w3.org/2000/svg"
   xmlns="http://www.w3.org/2000/svg"
   viewBox="0 0 408.06668 194.37334"
   height="194.37334"
   width="408.06668"
   xml:space="preserve"
   id="svg2"
   version="1.1"><metadata
     id="metadata8"><rdf:RDF><cc:Work
         rdf:about=""><dc:format>image/svg+xml</dc:format><dc:type
           rdf:resource="http://purl.org/dc/dcmitype/StillImage" /></cc:Work></rdf:RDF></metadata><defs
     id="defs6" /><g
     transform="matrix(1.3333333,0,0,-1.3333333,0,194.37333)"
     id="g10"><g
       transform="scale(0.1)"
       id="g12"><path
         id="path14"
         style="fill:#a7a5a6;fill-opacity:1;fill-rule:nonzero;stroke:none"
         d="M 2090.98,231.891 H 1707.19 V 690.68 h 383.79 V 231.891" /><path
         id="path16"
         style="fill:#a7a5a6;fill-opacity:1;fill-rule:nonzero;stroke:none"
         d="M 1553.68,231.891 H 1093.13 V 155.43 h 460.55 v 76.461" /><path
         id="path18"
         style="fill:#a7a5a6;fill-opacity:1;fill-rule:nonzero;stroke:none"
         d="M 1553.68,231.891 V 920.07 h -76.46 V 231.891 h 76.46" /><path
         id="path20"
         style="fill:#a7a5a6;fill-opacity:1;fill-rule:nonzero;stroke:none"
         d="m 2627.99,537.754 v 841.106 h -76.47 V 537.754 h 76.47" /><path
         id="path22"
         style="fill:#a7a5a6;fill-opacity:1;fill-rule:nonzero;stroke:none"
         d="m 2551.52,614.215 h -230.27 v -76.461 h 230.27 v 76.461" /><path
         id="path24"
         style="fill:#a7a5a6;fill-opacity:1;fill-rule:nonzero;stroke:none"
         d="m 2551.52,1225.93 h -307.03 v -76.47 h 307.03 v 76.47" /><path
         id="path26"
         style="fill:#a7a5a6;fill-opacity:1;fill-rule:nonzero;stroke:none"
         d="M 2321.25,537.754 V 155.43 h 76.46 v 382.324 h -76.46" /><path
         id="path28"
         style="fill:#a7a5a6;fill-opacity:1;fill-rule:nonzero;stroke:none"
         d="M 2705.04,231.891 H 2398.01 V 155.43 h 307.03 v 76.461" /><path
         id="path30"
         style="fill:#a7a5a6;fill-opacity:1;fill-rule:nonzero;stroke:none"
         d="M 862.859,155.43 V 2.5 h 76.465 v 152.93 h -76.465" /><path
         id="path32"
         style="fill:#a7a5a6;fill-opacity:1;fill-rule:nonzero;stroke:none"
         d="m 2244.49,1378.86 v -152.93 h 76.47 v 152.93 h -76.47" /><path
         id="path34"
         style="fill:#a7a5a6;fill-opacity:1;fill-rule:nonzero;stroke:none"
         d="m 2398.01,1455.32 v -152.93 h 76.46 v 152.93 h -76.46" /><path
         id="path36"
         style="fill:#a7a5a6;fill-opacity:1;fill-rule:nonzero;stroke:none"
         d="M 1016.37,231.891 H 786.105 V 155.43 h 230.265 v 76.461" /><path
         id="path38"
         style="fill:#a7a5a6;fill-opacity:1;fill-rule:nonzero;stroke:none"
         d="M 1476.92,690.68 H 862.859 v -76.465 h 614.061 v 76.465" /><path
         id="path40"
         style="fill:#a7a5a6;fill-opacity:1;fill-rule:nonzero;stroke:none"
         d="M 939.324,690.68 V 996.535 H 862.859 V 690.68 h 76.465" /><path
         id="path42"
         style="fill:#a7a5a6;fill-opacity:1;fill-rule:nonzero;stroke:none"
         d="M 708.191,231.891 H 555.828 V 155.43 h 152.363 v 76.461" /><path
         id="path44"
         style="fill:#a7a5a6;fill-opacity:1;fill-rule:nonzero;stroke:none"
         d="M 1629.56,1225.93 H 1477.2 v -76.47 h 152.36 v 76.47" /><path
         id="path46"
         style="fill:#a7a5a6;fill-opacity:1;fill-rule:nonzero;stroke:none"
         d="M 1091.69,996.535 H 939.324 V 920.07 h 152.366 v 76.465" /><path
         id="path48"
         style="fill:#a7a5a6;fill-opacity:1;fill-rule:nonzero;stroke:none"
         d="M 1091.69,767.707 V 920.07 h -76.47 V 767.707 h 76.47" /><path
         id="path50"
         style="fill:#a7a5a6;fill-opacity:1;fill-rule:nonzero;stroke:none"
         d="m 1323.4,843.605 h -230.27 v -76.464 h 230.27 v 76.464" /><path
         id="path52"
         style="fill:#a7a5a6;fill-opacity:1;fill-rule:nonzero;stroke:none"
         d="m 2014.22,1073 h -307.03 v -76.465 h 307.03 V 1073" /><path
         id="path54"
         style="fill:#a7a5a6;fill-opacity:1;fill-rule:nonzero;stroke:none"
         d="M 1169.89,1149.46 H 786.105 V 1073 h 383.785 v 76.46" /><path
         id="path56"
         style="fill:#a7a5a6;fill-opacity:1;fill-rule:nonzero;stroke:none"
         d="m 862.566,1149.46 v 305.86 h -76.461 v -305.86 h 76.461" /><path
         id="path58"
         style="fill:#a7a5a6;fill-opacity:1;fill-rule:nonzero;stroke:none"
         d="m 862.859,1378.86 h 844.331 v 76.46 H 862.859 v -76.46" /><path
         id="path60"
         style="fill:#a7a5a6;fill-opacity:1;fill-rule:nonzero;stroke:none"
         d="M 1630.72,1378.86 V 996.535 h 76.47 v 382.325 h -76.47" /><path
         id="path62"
         style="fill:#a7a5a6;fill-opacity:1;fill-rule:nonzero;stroke:none"
         d="M 1246.65,1302.39 H 939.617 v -76.46 h 307.033 v 76.46" /><path
         id="path64"
         style="fill:#a7a5a6;fill-opacity:1;fill-rule:nonzero;stroke:none"
         d="m 1323.11,843.754 v 458.636 h -76.46 V 843.754 h 76.46" /><path
         id="path66"
         style="fill:#a7a5a6;fill-opacity:1;fill-rule:nonzero;stroke:none"
         d="M 402.02,154.262 V 461.285 H 325.559 V 154.262 h 76.461" /><path
         id="path68"
         style="fill:#a7a5a6;fill-opacity:1;fill-rule:nonzero;stroke:none"
         d="M 1476.92,385.391 H 402.691 V 308.922 H 1476.92 v 76.469" /><path
         id="path70"
         style="fill:#a7a5a6;fill-opacity:1;fill-rule:nonzero;stroke:none"
         d="m 479.07,230.719 h -77.05 v -76.457 h 77.05 v 76.457" /><path
         id="path72"
         style="fill:#a7a5a6;fill-opacity:1;fill-rule:nonzero;stroke:none"
         d="m 1477.22,920.07 h -77.05 v -76.461 h 77.05 v 76.461" /><path
         id="path74"
         style="fill:#a7a5a6;fill-opacity:1;fill-rule:nonzero;stroke:none"
         d="m 709.348,461.285 h 690.812 v 76.469 H 709.348 v -76.469" /><path
         id="path76"
         style="fill:#a7a5a6;fill-opacity:1;fill-rule:nonzero;stroke:none"
         d="M 325.559,461.285 H 632.59 v 76.469 H 325.559 v -76.469" /><path
         id="path78"
         style="fill:none;stroke:#231f20;stroke-width:5;stroke-linecap:butt;stroke-linejoin:miter;stroke-miterlimit:4;stroke-dasharray:none;stroke-opacity:1"
         d="M 2781.8,1455.32 H 325.559 V 2.5 H 2781.8 Z" /><path
         id="path80"
         style="fill:none;stroke:#c8c7c7;stroke-width:5;stroke-linecap:butt;stroke-linejoin:miter;stroke-miterlimit:4;stroke-dasharray:none;stroke-opacity:1"
         d="M 325.559,78.9609 H 2781.8" /><path
         id="path82"
         style="fill:none;stroke:#c8c7c7;stroke-width:5;stroke-linecap:butt;stroke-linejoin:miter;stroke-miterlimit:4;stroke-dasharray:none;stroke-opacity:1"
         d="M 325.559,155.43 H 2781.8" /><path
         id="path84"
         style="fill:none;stroke:#c8c7c7;stroke-width:5;stroke-linecap:butt;stroke-linejoin:miter;stroke-miterlimit:4;stroke-dasharray:none;stroke-opacity:1"
         d="M 325.559,231.891 H 2781.8" /><path
         id="path86"
         style="fill:none;stroke:#c8c7c7;stroke-width:5;stroke-linecap:butt;stroke-linejoin:miter;stroke-miterlimit:4;stroke-dasharray:none;stroke-opacity:1"
         d="M 325.559,308.359 H 2781.8" /><path
         id="path88"
         style="fill:none;stroke:#c8c7c7;stroke-width:5;stroke-linecap:butt;stroke-linejoin:miter;stroke-miterlimit:4;stroke-dasharray:none;stroke-opacity:1"
         d="M 325.559,384.82 H 2781.8" /><path
         id="path90"
         style="fill:none;stroke:#c8c7c7;stroke-width:5;stroke-linecap:butt;stroke-linejoin:miter;stroke-miterlimit:4;stroke-dasharray:none;stroke-opacity:1"
         d="M 325.559,461.285 H 2781.8" /><path
         id="path92"
         style="fill:none;stroke:#c8c7c7;stroke-width:5;stroke-linecap:butt;stroke-linejoin:miter;stroke-miterlimit:4;stroke-dasharray:none;stroke-opacity:1"
         d="M 325.559,537.754 H 2781.8" /><path
         id="path94"
         style="fill:none;stroke:#c8c7c7;stroke-width:5;stroke-linecap:butt;stroke-linejoin:miter;stroke-miterlimit:4;stroke-dasharray:none;stroke-opacity:1"
         d="M 325.559,614.215 H 2781.8" /><path
         id="path96"
         style="fill:none;stroke:#c8c7c7;stroke-width:5;stroke-linecap:butt;stroke-linejoin:miter;stroke-miterlimit:4;stroke-dasharray:none;stroke-opacity:1"
         d="M 325.559,690.68 H 2781.8" /><path
         id="path98"
         style="fill:none;stroke:#c8c7c7;stroke-width:5;stroke-linecap:butt;stroke-linejoin:miter;stroke-miterlimit:4;stroke-dasharray:none;stroke-opacity:1"
         d="M 325.559,767.141 H 2781.8" /><path
         id="path100"
         style="fill:none;stroke:#c8c7c7;stroke-width:5;stroke-linecap:butt;stroke-linejoin:miter;stroke-miterlimit:4;stroke-dasharray:none;stroke-opacity:1"
         d="M 325.559,843.605 H 2781.8" /><path
         id="path102"
         style="fill:none;stroke:#c8c7c7;stroke-width:5;stroke-linecap:butt;stroke-linejoin:miter;stroke-miterlimit:4;stroke-dasharray:none;stroke-opacity:1"
         d="M 325.559,920.07 H 2781.8" /><path
         id="path104"
         style="fill:none;stroke:#c8c7c7;stroke-width:5;stroke-linecap:butt;stroke-linejoin:miter;stroke-miterlimit:4;stroke-dasharray:none;stroke-opacity:1"
         d="M 325.559,996.535 H 2781.8" /><path
         id="path106"
         style="fill:none;stroke:#c8c7c7;stroke-width:5;stroke-linecap:butt;stroke-linejoin:miter;stroke-miterlimit:4;stroke-dasharray:none;stroke-opacity:1"
         d="M 325.559,1073 H 2781.8" /><path
         id="path108"
         style="fill:none;stroke:#c8c7c7;stroke-width:5;stroke-linecap:butt;stroke-linejoin:miter;stroke-miterlimit:4;stroke-dasharray:none;stroke-opacity:1"
         d="M 325.559,1149.46 H 2781.8" /><path
         id="path110"
         style="fill:none;stroke:#c8c7c7;stroke-width:5;stroke-linecap:butt;stroke-linejoin:miter;stroke-miterlimit:4;stroke-dasharray:none;stroke-opacity:1"
         d="M 325.559,1225.93 H 2781.8" /><path
         id="path112"
         style="fill:none;stroke:#c8c7c7;stroke-width:5;stroke-linecap:butt;stroke-linejoin:miter;stroke-miterlimit:4;stroke-dasharray:none;stroke-opacity:1"
         d="M 325.559,1302.39 H 2781.8" /><path
         id="path114"
         style="fill:none;stroke:#c8c7c7;stroke-width:5;stroke-linecap:butt;stroke-linejoin:miter;stroke-miterlimit:4;stroke-dasharray:none;stroke-opacity:1"
         d="M 325.559,1378.86 H 2781.8" /><path
         id="path116"
         style="fill:none;stroke:#231f20;stroke-width:5;stroke-linecap:butt;stroke-linejoin:miter;stroke-miterlimit:4;stroke-dasharray:none;stroke-opacity:1"
         d="M 325.559,1455.32 V 2.5" /><path
         id="path118"
         style="fill:none;stroke:#231f20;stroke-width:5;stroke-linecap:butt;stroke-linejoin:miter;stroke-miterlimit:4;stroke-dasharray:none;stroke-opacity:1"
         d="M 2781.8,1455.32 V 2.5" /><path
         id="path120"
         style="fill:none;stroke:#c8c7c7;stroke-width:5;stroke-linecap:butt;stroke-linejoin:miter;stroke-miterlimit:4;stroke-dasharray:none;stroke-opacity:1"
         d="M 402.313,1455.32 V 2.5" /><path
         id="path122"
         style="fill:none;stroke:#c8c7c7;stroke-width:5;stroke-linecap:butt;stroke-linejoin:miter;stroke-miterlimit:4;stroke-dasharray:none;stroke-opacity:1"
         d="M 479.07,1455.32 V 2.5" /><path
         id="path124"
         style="fill:none;stroke:#c8c7c7;stroke-width:5;stroke-linecap:butt;stroke-linejoin:miter;stroke-miterlimit:4;stroke-dasharray:none;stroke-opacity:1"
         d="M 555.828,1455.32 V 2.5" /><path
         id="path126"
         style="fill:none;stroke:#c8c7c7;stroke-width:5;stroke-linecap:butt;stroke-linejoin:miter;stroke-miterlimit:4;stroke-dasharray:none;stroke-opacity:1"
         d="M 632.59,1455.32 V 2.5" /><path
         id="path128"
         style="fill:none;stroke:#c8c7c7;stroke-width:5;stroke-linecap:butt;stroke-linejoin:miter;stroke-miterlimit:4;stroke-dasharray:none;stroke-opacity:1"
         d="M 709.348,1455.32 V 2.5" /><path
         id="path130"
         style="fill:none;stroke:#c8c7c7;stroke-width:5;stroke-linecap:butt;stroke-linejoin:miter;stroke-miterlimit:4;stroke-dasharray:none;stroke-opacity:1"
         d="M 786.105,1455.32 V 2.5" /><path
         id="path132"
         style="fill:none;stroke:#c8c7c7;stroke-width:5;stroke-linecap:butt;stroke-linejoin:miter;stroke-miterlimit:4;stroke-dasharray:none;stroke-opacity:1"
         d="M 862.859,1455.32 V 2.5" /><path
         id="path134"
         style="fill:none;stroke:#c8c7c7;stroke-width:5;stroke-linecap:butt;stroke-linejoin:miter;stroke-miterlimit:4;stroke-dasharray:none;stroke-opacity:1"
         d="M 939.617,1455.32 V 2.5" /><path
         id="path136"
         style="fill:none;stroke:#c8c7c7;stroke-width:5;stroke-linecap:butt;stroke-linejoin:miter;stroke-miterlimit:4;stroke-dasharray:none;stroke-opacity:1"
         d="M 1016.37,1455.32 V 2.5" /><path
         id="path138"
         style="fill:none;stroke:#c8c7c7;stroke-width:5;stroke-linecap:butt;stroke-linejoin:miter;stroke-miterlimit:4;stroke-dasharray:none;stroke-opacity:1"
         d="M 1093.13,1455.32 V 2.5" /><path
         id="path140"
         style="fill:none;stroke:#c8c7c7;stroke-width:5;stroke-linecap:butt;stroke-linejoin:miter;stroke-miterlimit:4;stroke-dasharray:none;stroke-opacity:1"
         d="M 1169.89,1455.32 V 2.5" /><path
         id="path142"
         style="fill:none;stroke:#c8c7c7;stroke-width:5;stroke-linecap:butt;stroke-linejoin:miter;stroke-miterlimit:4;stroke-dasharray:none;stroke-opacity:1"
         d="M 1246.65,1455.32 V 2.5" /><path
         id="path144"
         style="fill:none;stroke:#c8c7c7;stroke-width:5;stroke-linecap:butt;stroke-linejoin:miter;stroke-miterlimit:4;stroke-dasharray:none;stroke-opacity:1"
         d="M 1323.4,1455.32 V 2.5" /><path
         id="path146"
         style="fill:none;stroke:#c8c7c7;stroke-width:5;stroke-linecap:butt;stroke-linejoin:miter;stroke-miterlimit:4;stroke-dasharray:none;stroke-opacity:1"
         d="M 1400.16,1455.32 V 2.5" /><path
         id="path148"
         style="fill:none;stroke:#c8c7c7;stroke-width:5;stroke-linecap:butt;stroke-linejoin:miter;stroke-miterlimit:4;stroke-dasharray:none;stroke-opacity:1"
         d="M 1476.92,1455.32 V 2.5" /><path
         id="path150"
         style="fill:none;stroke:#c8c7c7;stroke-width:5;stroke-linecap:butt;stroke-linejoin:miter;stroke-miterlimit:4;stroke-dasharray:none;stroke-opacity:1"
         d="M 1553.68,1455.32 V 2.5" /><path
         id="path152"
         style="fill:none;stroke:#c8c7c7;stroke-width:5;stroke-linecap:butt;stroke-linejoin:miter;stroke-miterlimit:4;stroke-dasharray:none;stroke-opacity:1"
         d="M 1630.43,1455.32 V 2.5" /><path
         id="path154"
         style="fill:none;stroke:#c8c7c7;stroke-width:5;stroke-linecap:butt;stroke-linejoin:miter;stroke-miterlimit:4;stroke-dasharray:none;stroke-opacity:1"
         d="M 1707.19,1455.32 V 2.5" /><path
         id="path156"
         style="fill:none;stroke:#c8c7c7;stroke-width:5;stroke-linecap:butt;stroke-linejoin:miter;stroke-miterlimit:4;stroke-dasharray:none;stroke-opacity:1"
         d="M 1783.95,1455.32 V 2.5" /><path
         id="path158"
         style="fill:none;stroke:#c8c7c7;stroke-width:5;stroke-linecap:butt;stroke-linejoin:miter;stroke-miterlimit:4;stroke-dasharray:none;stroke-opacity:1"
         d="M 1860.7,1455.32 V 2.5" /><path
         id="path160"
         style="fill:none;stroke:#c8c7c7;stroke-width:5;stroke-linecap:butt;stroke-linejoin:miter;stroke-miterlimit:4;stroke-dasharray:none;stroke-opacity:1"
         d="M 1937.46,1455.32 V 2.5" /><path
         id="path162"
         style="fill:none;stroke:#c8c7c7;stroke-width:5;stroke-linecap:butt;stroke-linejoin:miter;stroke-miterlimit:4;stroke-dasharray:none;stroke-opacity:1"
         d="M 2014.22,1455.32 V 2.5" /><path
         id="path164"
         style="fill:none;stroke:#c8c7c7;stroke-width:5;stroke-linecap:butt;stroke-linejoin:miter;stroke-miterlimit:4;stroke-dasharray:none;stroke-opacity:1"
         d="M 2090.98,1455.32 V 2.5" /><path
         id="path166"
         style="fill:none;stroke:#c8c7c7;stroke-width:5;stroke-linecap:butt;stroke-linejoin:miter;stroke-miterlimit:4;stroke-dasharray:none;stroke-opacity:1"
         d="M 2167.73,1455.32 V 2.5" /><path
         id="path168"
         style="fill:none;stroke:#c8c7c7;stroke-width:5;stroke-linecap:butt;stroke-linejoin:miter;stroke-miterlimit:4;stroke-dasharray:none;stroke-opacity:1"
         d="M 2244.49,1455.32 V 2.5" /><path
         id="path170"
         style="fill:none;stroke:#c8c7c7;stroke-width:5;stroke-linecap:butt;stroke-linejoin:miter;stroke-miterlimit:4;stroke-dasharray:none;stroke-opacity:1"
         d="M 2321.25,1455.32 V 2.5" /><path
         id="path172"
         style="fill:none;stroke:#c8c7c7;stroke-width:5;stroke-linecap:butt;stroke-linejoin:miter;stroke-miterlimit:4;stroke-dasharray:none;stroke-opacity:1"
         d="M 2398.01,1455.32 V 2.5" /><path
         id="path174"
         style="fill:none;stroke:#c8c7c7;stroke-width:5;stroke-linecap:butt;stroke-linejoin:miter;stroke-miterlimit:4;stroke-dasharray:none;stroke-opacity:1"
         d="M 2474.77,1455.32 V 2.5" /><path
         id="path176"
         style="fill:none;stroke:#c8c7c7;stroke-width:5;stroke-linecap:butt;stroke-linejoin:miter;stroke-miterlimit:4;stroke-dasharray:none;stroke-opacity:1"
         d="M 2551.52,1455.32 V 2.5" /><path
         id="path178"
         style="fill:none;stroke:#c8c7c7;stroke-width:5;stroke-linecap:butt;stroke-linejoin:miter;stroke-miterlimit:4;stroke-dasharray:none;stroke-opacity:1"
         d="M 2628.28,1455.32 V 2.5" /><path
         id="path180"
         style="fill:none;stroke:#c8c7c7;stroke-width:5;stroke-linecap:butt;stroke-linejoin:miter;stroke-miterlimit:4;stroke-dasharray:none;stroke-opacity:1"
         d="M 2705.04,1455.32 V 2.5" /><path
         id="path182"
         style="fill:none;stroke:#231f20;stroke-width:4;stroke-linecap:butt;stroke-linejoin:miter;stroke-miterlimit:4;stroke-dasharray:none;stroke-opacity:1"
         d="M 443.359,996.535 H 251.34" /><path
         id="path184"
         style="fill:#231f20;fill-opacity:1;fill-rule:nonzero;stroke:none"
         d="m 439.277,996.535 -8.757,14.415 0.488,0.32 23.5,-9.33 c 8.187,-1.8 16.375,-3.6 24.562,-5.405 -8.187,-1.801 -16.375,-3.601 -24.562,-5.402 l -23.5,-9.332 -0.488,0.242 8.757,14.492" /><path
         id="path186"
         style="fill:none;stroke:#231f20;stroke-width:4;stroke-linecap:butt;stroke-linejoin:miter;stroke-miterlimit:4;stroke-dasharray:none;stroke-opacity:1"
         d="M 293.18,1258.94 526.684,1093.63" /><path
         id="path188"
         style="fill:#231f20;fill-opacity:1;fill-rule:nonzero;stroke:none"
         d="m 523.355,1095.99 1.176,16.83 0.59,-0.02 13.785,-21.2 c 5.641,-6.2 11.285,-12.4 16.922,-18.6 -7.719,3.26 -15.441,6.52 -23.168,9.78 l -24.574,5.96 -0.254,0.48 15.523,6.77" /><g
         transform="scale(10)"
         id="g190"><text
           id="text198"
           style="font-variant:normal;font-weight:normal;font-size:8px;font-family:Helvetica;-inkscape-font-specification:Helvetica;writing-mode:lr-tb;fill:#231f20;fill-opacity:1;fill-rule:nonzero;stroke:none"
           transform="matrix(1,0,0,-1,8.75977,123.75)"><tspan
             id="tspan192"
             y="0"
             x="0 2.664 7.112 11.56 16.007999">robot</tspan><tspan
             id="tspan194"
             y="22.4191"
             x="-8.7597704 -4.7597699 -0.31176999 4.13623 8.1362305 12.58423">sensor</tspan><tspan
             id="tspan196"
             y="31.4191"
             x="-6.9843798 -4.3203802 0.12762 4.5756202 9.0236197">range</tspan></text>
<text
           id="text202"
           style="font-variant:normal;font-weight:normal;font-size:8px;font-family:'Times New Roman';-inkscape-font-specification:Times-Roman;writing-mode:lr-tb;fill:#231f20;fill-opacity:1;fill-rule:nonzero;stroke:none"
           transform="matrix(1,0,0,-1,292.27939,16.1918)"><tspan
             id="tspan200"
             y="0"
             x="0 4 8 11.552">goal</tspan></text>
</g><path
         id="path204"
         style="fill:none;stroke:#231f20;stroke-width:5;stroke-linecap:butt;stroke-linejoin:miter;stroke-miterlimit:4;stroke-dasharray:none;stroke-opacity:1"
         d="m 633.344,1028.81 c 0,-17.83 -14.449,-32.275 -32.274,-32.275 -17.828,0 -32.277,14.445 -32.277,32.275 0,17.83 14.449,32.28 32.277,32.28 17.825,0 32.274,-14.45 32.274,-32.28 z" /><path
         id="path206"
         style="fill:none;stroke:#231f20;stroke-width:5;stroke-linecap:butt;stroke-linejoin:miter;stroke-miterlimit:4;stroke-dasharray:none;stroke-opacity:1"
         d="m 619.922,1028.81 c 0,-10.41 -8.442,-18.85 -18.852,-18.85 -10.41,0 -18.851,8.44 -18.851,18.85" /><path
         id="path208"
         style="fill:#231f20;fill-opacity:1;fill-rule:nonzero;stroke:none"
         d="m 593.531,1042.15 c 0,-2.56 -2.078,-4.64 -4.64,-4.64 -2.563,0 -4.637,2.08 -4.637,4.64 0,2.56 2.074,4.64 4.637,4.64 2.562,0 4.64,-2.08 4.64,-4.64" /><path
         id="path210"
         style="fill:#231f20;fill-opacity:1;fill-rule:nonzero;stroke:none"
         d="m 616.152,1042.15 c 0,-2.56 -2.074,-4.64 -4.636,-4.64 -2.567,0 -4.641,2.08 -4.641,4.64 0,2.56 2.074,4.64 4.641,4.64 2.562,0 4.636,-2.08 4.636,-4.64" /><path
         id="path212"
         style="fill:none;stroke:#231f20;stroke-width:4;stroke-linecap:butt;stroke-linejoin:miter;stroke-miterlimit:4;stroke-dasharray:none;stroke-opacity:1"
         d="M 2697.57,292.32 2904.53,188.309" /><path
         id="path214"
         style="fill:#231f20;fill-opacity:1;fill-rule:nonzero;stroke:none"
         d="m 2701.21,290.488 1.36,-16.808 -0.59,-0.071 -16.8,18.891 c -6.51,5.281 -13.01,10.57 -19.53,15.859 8.13,-2.07 16.26,-4.129 24.39,-6.199 l 25.18,-2.211 0.33,-0.449 -14.34,-9.012" /><path
         id="path216"
         style="fill:none;stroke:#231f20;stroke-width:5;stroke-linecap:butt;stroke-linejoin:miter;stroke-miterlimit:4;stroke-dasharray:none;stroke-opacity:1"
         d="m 2559.71,314.801 26.87,33.89 24.54,-35.062" /><path
         id="path218"
         style="fill:none;stroke:#231f20;stroke-width:5;stroke-linecap:butt;stroke-linejoin:miter;stroke-miterlimit:4;stroke-dasharray:none;stroke-opacity:1"
         d="m 2572.34,330.738 c 0,0 14.48,-12.328 26.81,0" /><path
         id="path220"
         style="fill:none;stroke:#231f20;stroke-width:5;stroke-linecap:butt;stroke-linejoin:miter;stroke-miterlimit:4;stroke-dasharray:none;stroke-opacity:1"
         d="m 2563.34,319.379 c 0,0 26.51,-14.231 43.76,3.019" /><path
         id="path222"
         style="fill:none;stroke:#231f20;stroke-width:5;stroke-linecap:butt;stroke-linejoin:miter;stroke-miterlimit:4;stroke-dasharray:none;stroke-opacity:1"
         d="m 2599.15,330.738 9.34,10.063 12.26,-12.27 -2.62,-2.609 4.39,-4.391" /><path
         id="path224"
         style="fill:none;stroke:#231f20;stroke-width:5;stroke-linecap:butt;stroke-linejoin:miter;stroke-miterlimit:4;stroke-dasharray:none;stroke-opacity:1"
         d="m 2620.75,328.531 3.22,3.231 4.31,-4.313" /><path
         id="path226"
         style="fill:none;stroke:#231f20;stroke-width:5;stroke-linecap:butt;stroke-linejoin:miter;stroke-miterlimit:4;stroke-dasharray:none;stroke-opacity:1"
         d="m 2586.58,348.691 v 29.207 c -11.75,0 -20.45,-7.007 -20.45,-7.007 -8.64,-7.301 -10.51,-15.192 -10.51,-15.192 0,0 4.39,1.621 10.51,4.09 9.91,4 20.45,3.801 20.45,3.801" /><path
         id="path228"
         style="fill:none;stroke:#231f20;stroke-width:5;stroke-linecap:butt;stroke-linejoin:miter;stroke-miterlimit:4;stroke-dasharray:none;stroke-opacity:1"
         d="m 2578.35,367.969 c 0,-3.239 -2.63,-5.86 -5.86,-5.86 -3.23,0 -5.86,2.621 -5.86,5.86 0,3.23 2.63,5.859 5.86,5.859 3.23,0 5.86,-2.629 5.86,-5.859 z" /><path
         id="path230"
         style="fill:none;stroke:#231f20;stroke-width:5;stroke-linecap:butt;stroke-linejoin:miter;stroke-miterlimit:4;stroke-dasharray:none;stroke-opacity:1"
         d="M 709.348,920.07 H 479.07 v 229.39 h 230.278 z" /></g></g></svg>