<?xml version="1.0" encoding="UTF-8" standalone="no"?>
<svg
   xmlns:dc="http://purl.org/dc/elements/1.1/"
   xmlns:cc="http://creativecommons.org/ns#"
   xmlns:rdf="http://www.w3.org/1999/02/22-rdf-syntax-ns#"
   xmlns:svg="http://www.w3.org/2000/svg"
   xmlns="http://www.w3.org/2000/svg"
   viewBox="0 0 364.13333 436.13333"
   height="436.13333"
   width="364.13333"
   xml:space="preserve"
   id="svg2"
   version="1.1"><metadata
     id="metadata8"><rdf:RDF><cc:Work
         rdf:about=""><dc:format>image/svg+xml</dc:format><dc:type
           rdf:resource="http://purl.org/dc/dcmitype/StillImage" /></cc:Work></rdf:RDF></metadata><defs
     id="defs6" /><g
     transform="matrix(1.3333333,0,0,-1.3333333,0,436.13333)"
     id="g10"><g
       transform="scale(0.1)"
       id="g12"><path
         id="path14"
         style="fill:none;stroke:#231f20;stroke-width:8.67500019;stroke-linecap:butt;stroke-linejoin:miter;stroke-miterlimit:10;stroke-dasharray:none;stroke-opacity:1"
         d="m 4.33594,2452.95 v 0 H 1905.53 v 0 z" /><path
         id="path16"
         style="fill:none;stroke:#231f20;stroke-width:8.67500019;stroke-linecap:butt;stroke-linejoin:miter;stroke-miterlimit:10;stroke-dasharray:none;stroke-opacity:1"
         d="M 4.33594,1639.22 H 1905.53" /><path
         id="path18"
         style="fill:none;stroke:#231f20;stroke-width:8.67500019;stroke-linecap:butt;stroke-linejoin:miter;stroke-miterlimit:10;stroke-dasharray:none;stroke-opacity:1"
         d="M 4.33594,818.082 H 1905.53" /><path
         id="path20"
         style="fill:none;stroke:#231f20;stroke-width:8.67500019;stroke-linecap:butt;stroke-linejoin:miter;stroke-miterlimit:10;stroke-dasharray:none;stroke-opacity:1"
         d="M 4.33594,4.33984 V 3266.68 H 2726.65 V 4.33984 Z" /><path
         id="path22"
         style="fill:none;stroke:#231f20;stroke-width:8.67500019;stroke-linecap:butt;stroke-linejoin:miter;stroke-miterlimit:10;stroke-dasharray:none;stroke-opacity:1"
         d="M 1905.53,3266.68 V 2992.97" /><path
         id="path24"
         style="fill:none;stroke:#231f20;stroke-width:8.67500019;stroke-linecap:butt;stroke-linejoin:miter;stroke-miterlimit:10;stroke-dasharray:none;stroke-opacity:1"
         d="M 1905.53,2726.66 V 2179.24" /><path
         id="path26"
         style="fill:none;stroke:#231f20;stroke-width:8.67500019;stroke-linecap:butt;stroke-linejoin:miter;stroke-miterlimit:10;stroke-dasharray:none;stroke-opacity:1"
         d="M 1905.53,1905.53 V 1365.5" /><path
         id="path28"
         style="fill:none;stroke:#231f20;stroke-width:8.67500019;stroke-linecap:butt;stroke-linejoin:miter;stroke-miterlimit:10;stroke-dasharray:none;stroke-opacity:1"
         d="M 1905.53,1091.8 V 551.77" /><path
         id="path30"
         style="fill:none;stroke:#231f20;stroke-width:8.67500019;stroke-linecap:butt;stroke-linejoin:miter;stroke-miterlimit:10;stroke-dasharray:none;stroke-opacity:1"
         d="M 1905.53,278.07 V 4.33984" /><g
         transform="scale(10)"
         id="g32"><text
           id="text42"
           style="font-variant:normal;font-weight:normal;font-size:12.81000042px;font-family:'Times New Roman';-inkscape-font-specification:Times-Roman;writing-mode:lr-tb;fill:#231f20;fill-opacity:1;fill-rule:nonzero;stroke:none"
           transform="matrix(1,0,0,-1,61.7727,275.55)"><tspan
             id="tspan34"
             y="0"
             x="0 8.5442696 14.94927 21.354271 31.32045 34.522949">Room 4</tspan><tspan
             id="tspan36"
             y="81.373802"
             x="0 8.5442696 14.94927 21.354271 31.32045 34.522949">Room 3</tspan><tspan
             id="tspan38"
             y="163.4879"
             x="0 8.5442696 14.94927 21.354271 31.32045 34.522949">Room 2</tspan><tspan
             id="tspan40"
             y="244.8602"
             x="0 8.5442696 14.94927 21.354271 31.32045 34.522949">Room 1</tspan></text>
<text
           id="text58"
           style="font-variant:normal;font-weight:normal;font-size:8.87709999px;font-family:'Times New Roman';-inkscape-font-specification:Times-Roman;writing-mode:lr-tb;fill:#231f20;fill-opacity:1;fill-rule:nonzero;stroke:none"
           transform="matrix(1,0,0,-1,177.8677,38.65113)"><tspan
             id="tspan44"
             y="0"
             x="0 6.409266 10.847816 15.286366 18.242441 20.461716">Door 1</tspan><tspan
             id="tspan46"
             y="-82.705902"
             x="-0.33398399 6.0752821 10.513832 14.952382 17.908457 20.127731">Door 2</tspan><tspan
             id="tspan48"
             y="-163.1539"
             x="-0.66718698 5.7420793 10.180629 14.619179 17.575254 19.794529">Door 3</tspan><tspan
             id="tspan50"
             y="-245.52499"
             x="-1.667187 4.7420793 9.1806288 13.619179 16.575254 18.794529">Door 4</tspan><tspan
             id="tspan52"
             y="23.641001"
             x="-28.002386 -22.081362 -17.642811 -13.204261 -10.984986">Box 1</tspan><tspan
             id="tspan54"
             y="-17.0457"
             x="-47.976189 -42.055161 -37.616611 -33.178062 -30.958786">Box 2</tspan><tspan
             id="tspan56"
             y="-23.007811"
             x="-98.844185 -92.923164 -88.484612 -84.046059 -81.82679">Box 3</tspan></text>
</g><path
         id="path60"
         style="fill:none;stroke:#231f20;stroke-width:8.67500019;stroke-linecap:butt;stroke-linejoin:miter;stroke-miterlimit:10;stroke-dasharray:none;stroke-opacity:1"
         d="M 1261.93,485.199 V 692.32 h 273.7 V 485.199 Z" /><path
         id="path62"
         style="fill:none;stroke:#231f20;stroke-width:8.67500019;stroke-linecap:butt;stroke-linejoin:miter;stroke-miterlimit:10;stroke-dasharray:none;stroke-opacity:1"
         d="M 1461.65,78.3203 V 285.449 h 273.71 V 78.3203 Z" /><path
         id="path64"
         style="fill:none;stroke:#231f20;stroke-width:8.67500019;stroke-linecap:butt;stroke-linejoin:miter;stroke-miterlimit:10;stroke-dasharray:none;stroke-opacity:1"
         d="m 753.238,544.801 v 207.14 h 273.702 v -207.14 z" /><g
         transform="scale(10)"
         id="g66"><text
           id="text70"
           style="font-variant:normal;font-weight:normal;font-size:8.87709999px;font-family:'Times New Roman';-inkscape-font-specification:Times-Roman;writing-mode:lr-tb;fill:#231f20;fill-opacity:1;fill-rule:nonzero;stroke:none"
           transform="matrix(1,0,0,-1,17.818,183.895)"><tspan
             id="tspan68"
             y="0"
             x="0 4.9356675 9.374218 13.31565 17.7542 21.695633">Shakey</tspan></text>
</g><path
         id="path72"
         style="fill:#231f20;fill-opacity:1;fill-rule:evenodd;stroke:none"
         d="m 429.77,2030.24 c 0,16.33 -16.567,29.58 -36.993,29.58 -20.41,0 -36.98,-13.25 -36.98,-29.58 0,-16.34 16.57,-29.59 36.98,-29.59 20.426,0 36.993,13.25 36.993,29.59" /><path
         id="path74"
         style="fill:none;stroke:#231f20;stroke-width:17.34900093;stroke-linecap:butt;stroke-linejoin:miter;stroke-miterlimit:10;stroke-dasharray:none;stroke-opacity:1"
         d="m 429.77,2030.24 c 0,16.33 -16.567,29.58 -36.993,29.58 -20.41,0 -36.98,-13.25 -36.98,-29.58 0,-16.34 16.57,-29.59 36.98,-29.59 20.426,0 36.993,13.25 36.993,29.59" /><path
         id="path76"
         style="fill:#231f20;fill-opacity:1;fill-rule:evenodd;stroke:none"
         d="m 303.902,2030.24 c 0,16.33 -16.574,29.58 -36.988,29.58 -20.414,0 -36.992,-13.25 -36.992,-29.58 0,-16.34 16.578,-29.59 36.992,-29.59 20.414,0 36.988,13.25 36.988,29.59" /><path
         id="path78"
         style="fill:none;stroke:#231f20;stroke-width:17.34900093;stroke-linecap:butt;stroke-linejoin:miter;stroke-miterlimit:10;stroke-dasharray:none;stroke-opacity:1"
         d="m 303.902,2030.24 c 0,16.33 -16.574,29.58 -36.988,29.58 -20.414,0 -36.992,-13.25 -36.992,-29.58 0,-16.34 16.578,-29.59 36.992,-29.59 20.414,0 36.988,13.25 36.988,29.59" /><path
         id="path80"
         style="fill:none;stroke:#231f20;stroke-width:17.34900093;stroke-linecap:butt;stroke-linejoin:miter;stroke-miterlimit:10;stroke-dasharray:none;stroke-opacity:1"
         d="m 226.266,2060.87 v 199.74 h 207.125 v -199.74 z" /><path
         id="path82"
         style="fill:none;stroke:#231f20;stroke-width:17.34900093;stroke-linecap:butt;stroke-linejoin:miter;stroke-miterlimit:10;stroke-dasharray:none;stroke-opacity:1"
         d="m 300.234,2260.61 v 73.98 h 66.586 v -73.98 z" /><path
         id="path84"
         style="fill:none;stroke:#231f20;stroke-width:17.34900093;stroke-linecap:butt;stroke-linejoin:miter;stroke-miterlimit:10;stroke-dasharray:none;stroke-opacity:1"
         d="m 433.391,2194.03 h 66.582" /><path
         id="path86"
         style="fill:none;stroke:#231f20;stroke-width:17.34900093;stroke-linecap:butt;stroke-linejoin:miter;stroke-miterlimit:10;stroke-dasharray:none;stroke-opacity:1"
         d="m 159.684,2194.03 h 66.582" /><g
         transform="scale(10)"
         id="g88"><text
           id="text98"
           style="font-variant:normal;font-weight:normal;font-size:8.87709999px;font-family:'Times New Roman';-inkscape-font-specification:Times-Roman;writing-mode:lr-tb;fill:#231f20;fill-opacity:1;fill-rule:nonzero;stroke:none"
           transform="matrix(1,0,0,-1,156.361,72.427)"><tspan
             id="tspan90"
             y="0"
             x="0 4.9356675 11.344934 13.812768 16.280602 20.222034 24.660583 26.879858">Switch 1</tspan><tspan
             id="tspan92"
             y="-82.290199"
             x="0 4.9356675 11.344934 13.812768 16.280602 20.222034 24.660583 26.879858">Switch 2</tspan><tspan
             id="tspan94"
             y="-163.248"
             x="0 4.9356675 11.344934 13.812768 16.280602 20.222034 24.660583 26.879858">Switch 3</tspan><tspan
             id="tspan96"
             y="-245.7769"
             x="0 4.9356675 11.344934 13.812768 16.280602 20.222034 24.660583 26.879858">Switch 4</tspan></text>
</g><path
         id="path100"
         style="fill:none;stroke:#231f20;stroke-width:8.67500019;stroke-linecap:butt;stroke-linejoin:miter;stroke-miterlimit:10;stroke-dasharray:none;stroke-opacity:1"
         d="m 1905.53,2205.82 v -66.58" /><path
         id="path102"
         style="fill:none;stroke:#231f20;stroke-width:8.67500019;stroke-linecap:butt;stroke-linejoin:miter;stroke-miterlimit:10;stroke-dasharray:none;stroke-opacity:1"
         d="m 115.297,115.309 v 207.14 h 273.711 v -207.14 z" /><g
         transform="scale(10)"
         id="g104"><text
           id="text108"
           style="font-variant:normal;font-weight:normal;font-size:8.87709999px;font-family:'Times New Roman';-inkscape-font-specification:Times-Roman;writing-mode:lr-tb;fill:#231f20;fill-opacity:1;fill-rule:nonzero;stroke:none"
           transform="matrix(1,0,0,-1,15.2285,18.707)"><tspan
             id="tspan106"
             y="0"
             x="0 5.9210258 10.359575 14.798125 17.017401">Box 4</tspan></text>
<text
           id="text112"
           style="font-variant:normal;font-weight:normal;font-size:12.81000042px;font-family:'Times New Roman';-inkscape-font-specification:Times-Roman;writing-mode:lr-tb;fill:#231f20;fill-opacity:1;fill-rule:nonzero;stroke:none"
           transform="matrix(1,0,0,-1,207.7125,159.814)"><tspan
             id="tspan110"
             y="0"
             x="0 8.5442696 14.94927 19.215 23.48073 27.04191 33.446911 39.85191">Corridor</tspan></text>
</g><path
         id="path114"
         style="fill:none;stroke:#231f20;stroke-width:5;stroke-linecap:butt;stroke-linejoin:miter;stroke-miterlimit:4;stroke-dasharray:none;stroke-opacity:1"
         d="m 1900.01,3154.52 c 0,0 -12.93,-9.05 -15.52,-19.4 l -43.96,15.52 c 0,0 -12.93,-7.76 -15.52,-31.03 l 47.84,-23.28 c 0,0 0,-20.69 23.28,-36.21" /><path
         id="path116"
         style="fill:#ffffff;fill-opacity:1;fill-rule:nonzero;stroke:none"
         d="m 1906.26,3027.62 h -12.5 v 152.5 h 12.5 v -152.5" /><path
         id="path118"
         style="fill:none;stroke:#231f20;stroke-width:5;stroke-linecap:butt;stroke-linejoin:miter;stroke-miterlimit:4;stroke-dasharray:none;stroke-opacity:1"
         d="m 1906.26,3027.62 h -12.5 v 152.5 h 12.5 z" /><path
         id="path120"
         style="fill:none;stroke:#231f20;stroke-width:5;stroke-linecap:butt;stroke-linejoin:miter;stroke-miterlimit:4;stroke-dasharray:none;stroke-opacity:1"
         d="m 1900.01,701.191 c 0,0 -12.93,-9.062 -15.52,-19.402 l -43.96,15.52 c 0,0 -12.93,-7.75 -15.52,-31.039 l 47.84,-23.282 c 0,0 0,-20.679 23.28,-36.199" /><path
         id="path122"
         style="fill:#ffffff;fill-opacity:1;fill-rule:nonzero;stroke:none"
         d="m 1906.26,574.289 h -12.5 v 152.5 h 12.5 v -152.5" /><path
         id="path124"
         style="fill:none;stroke:#231f20;stroke-width:5;stroke-linecap:butt;stroke-linejoin:miter;stroke-miterlimit:4;stroke-dasharray:none;stroke-opacity:1"
         d="m 1906.26,574.289 h -12.5 v 152.5 h 12.5 z" /><path
         id="path126"
         style="fill:none;stroke:#231f20;stroke-width:5;stroke-linecap:butt;stroke-linejoin:miter;stroke-miterlimit:4;stroke-dasharray:none;stroke-opacity:1"
         d="m 1900.01,1424.53 c 0,0 -12.93,9.05 -15.52,19.39 l -43.96,-15.52 c 0,0 -12.93,7.76 -15.52,31.04 l 47.84,23.28 c 0,0 0,20.68 23.28,36.2" /><path
         id="path128"
         style="fill:#ffffff;fill-opacity:1;fill-rule:nonzero;stroke:none"
         d="m 1906.26,1551.42 h -12.5 v -152.5 h 12.5 v 152.5" /><path
         id="path130"
         style="fill:none;stroke:#231f20;stroke-width:5;stroke-linecap:butt;stroke-linejoin:miter;stroke-miterlimit:4;stroke-dasharray:none;stroke-opacity:1"
         d="m 1906.26,1551.42 h -12.5 v -152.5 h 12.5 z" /><path
         id="path132"
         style="fill:none;stroke:#231f20;stroke-width:5;stroke-linecap:butt;stroke-linejoin:miter;stroke-miterlimit:4;stroke-dasharray:none;stroke-opacity:1"
         d="m 1900.01,2226.98 c 0,0 -12.93,9.05 -15.52,19.39 l -43.96,-15.52 c 0,0 -12.93,7.76 -15.52,31.04 l 47.84,23.28 c 0,0 0,20.69 23.28,36.2" /><path
         id="path134"
         style="fill:#ffffff;fill-opacity:1;fill-rule:nonzero;stroke:none"
         d="m 1906.26,2353.87 h -12.5 v -152.5 h 12.5 v 152.5" /><path
         id="path136"
         style="fill:none;stroke:#231f20;stroke-width:5;stroke-linecap:butt;stroke-linejoin:miter;stroke-miterlimit:4;stroke-dasharray:none;stroke-opacity:1"
         d="m 1906.26,2353.87 h -12.5 v -152.5 h 12.5 z" /></g></g></svg>